<svg xmlns="http://www.w3.org/2000/svg" xmlns:xlink="http://www.w3.org/1999/xlink" contentStyleType="text/css" data-diagram-type="CLASS" height="790px" preserveAspectRatio="none" style="width:1296px;height:790px;background:#FFFFFF;" version="1.1" viewBox="0 0 1296 790" width="1296px" zoomAndPan="magnify"><title>Cell Crawler - Characters</title><defs/><g><text fill="#000000" font-family="sans-serif" font-size="14" font-weight="bold" lengthAdjust="spacing" textLength="196.3213" x="543.1616" y="22.9951">Cell Crawler - Characters</text><!--class Character--><g class="entity" data-entity="Character" data-source-line="3" data-uid="ent0002" id="entity_Character"><rect fill="#F1F1F1" height="64.2969" rx="2.5" ry="2.5" style="stroke:#181818;stroke-width:0.5;" width="161.1396" x="477.5" y="270.4569"/><ellipse cx="519.5097" cy="286.4569" fill="#ADD1B2" rx="11" ry="11" style="stroke:#181818;stroke-width:1;"/><path d="M522.4784,292.0975 Q521.9003,292.3944 521.2597,292.535 Q520.619,292.6912 519.9159,292.6912 Q517.4159,292.6912 516.0878,291.0506 Q514.7753,289.3944 514.7753,286.2694 Q514.7753,283.1444 516.0878,281.4881 Q517.4159,279.8319 519.9159,279.8319 Q520.619,279.8319 521.2597,279.9881 Q521.9159,280.1444 522.4784,280.4412 L522.4784,283.16 Q521.8534,282.5819 521.2597,282.3162 Q520.6659,282.035 520.0409,282.035 Q518.6972,282.035 518.0097,283.1131 Q517.3222,284.1756 517.3222,286.2694 Q517.3222,288.3631 518.0097,289.4412 Q518.6972,290.5037 520.0409,290.5037 Q520.6659,290.5037 521.2597,290.2381 Q521.8534,289.9569 522.4784,289.3787 L522.4784,292.0975 Z " fill="#000000"/><text fill="#000000" font-family="sans-serif" font-size="14" lengthAdjust="spacing" textLength="69.1182" x="539.5118" y="291.3036">Character</text><line style="stroke:#181818;stroke-width:0.5;" x1="478.5" x2="637.6396" y1="302.4569" y2="302.4569"/><line style="stroke:#181818;stroke-width:0.5;" x1="478.5" x2="637.6396" y1="310.4569" y2="310.4569"/><ellipse cx="488.5" cy="324.1053" fill="#84BE84" rx="3" ry="3" style="stroke:#038048;stroke-width:1;"/><text fill="#000000" font-family="sans-serif" font-size="14" lengthAdjust="spacing" textLength="135.1396" x="497.5" y="327.452">(x,y) next_cell(x, y)</text></g><!--class Node--><g class="entity" data-entity="Node" data-source-line="7" data-uid="ent0003" id="entity_Node"><rect fill="#F1F1F1" height="80.5938" rx="2.5" ry="2.5" style="stroke:#181818;stroke-width:0.5;" width="143.5508" x="298" y="261.9569"/><ellipse cx="347.2563" cy="277.9569" fill="#ADD1B2" rx="11" ry="11" style="stroke:#181818;stroke-width:1;"/><path d="M350.2251,283.5975 Q349.647,283.8944 349.0063,284.035 Q348.3657,284.1912 347.6626,284.1912 Q345.1626,284.1912 343.8345,282.5506 Q342.522,280.8944 342.522,277.7694 Q342.522,274.6444 343.8345,272.9881 Q345.1626,271.3319 347.6626,271.3319 Q348.3657,271.3319 349.0063,271.4881 Q349.6626,271.6444 350.2251,271.9412 L350.2251,274.66 Q349.6001,274.0819 349.0063,273.8162 Q348.4126,273.535 347.7876,273.535 Q346.4438,273.535 345.7563,274.6131 Q345.0688,275.6756 345.0688,277.7694 Q345.0688,279.8631 345.7563,280.9412 Q346.4438,282.0037 347.7876,282.0037 Q348.4126,282.0037 349.0063,281.7381 Q349.6001,281.4569 350.2251,280.8787 L350.2251,283.5975 Z " fill="#000000"/><text fill="#000000" font-family="sans-serif" font-size="14" lengthAdjust="spacing" textLength="36.5381" x="367.7563" y="282.8036">Node</text><line style="stroke:#181818;stroke-width:0.5;" x1="299" x2="440.5508" y1="293.9569" y2="293.9569"/><text fill="#000000" font-family="sans-serif" font-size="14" lengthAdjust="spacing" textLength="131.5508" x="304" y="310.952">impl by the engine</text><line style="stroke:#181818;stroke-width:0.5;" x1="299" x2="440.5508" y1="318.2537" y2="318.2537"/><ellipse cx="309" cy="331.9022" fill="#84BE84" rx="3" ry="3" style="stroke:#038048;stroke-width:1;"/><text fill="#000000" font-family="sans-serif" font-size="14" lengthAdjust="spacing" textLength="104.9043" x="318" y="335.2489">Vec3 get_pos()</text></g><!--class Environment--><g class="entity" data-entity="Environment" data-source-line="12" data-uid="ent0004" id="entity_Environment"><rect fill="#F1F1F1" height="64.2969" rx="2.5" ry="2.5" style="stroke:#181818;stroke-width:0.5;" width="184.6211" x="939.5" y="81.4569"/><ellipse cx="982.814" cy="97.4569" fill="#ADD1B2" rx="11" ry="11" style="stroke:#181818;stroke-width:1;"/><path d="M985.7827,103.0975 Q985.2046,103.3944 984.564,103.535 Q983.9233,103.6912 983.2202,103.6912 Q980.7202,103.6912 979.3921,102.0506 Q978.0796,100.3944 978.0796,97.2694 Q978.0796,94.1444 979.3921,92.4881 Q980.7202,90.8319 983.2202,90.8319 Q983.9233,90.8319 984.564,90.9881 Q985.2202,91.1444 985.7827,91.4412 L985.7827,94.16 Q985.1577,93.5819 984.564,93.3162 Q983.9702,93.035 983.3452,93.035 Q982.0015,93.035 981.314,94.1131 Q980.6265,95.1756 980.6265,97.2694 Q980.6265,99.3631 981.314,100.4412 Q982.0015,101.5037 983.3452,101.5037 Q983.9702,101.5037 984.564,101.2381 Q985.1577,100.9569 985.7827,100.3787 L985.7827,103.0975 Z " fill="#000000"/><text fill="#000000" font-family="sans-serif" font-size="14" lengthAdjust="spacing" textLength="89.7012" x="1003.106" y="102.3036">Environment</text><line style="stroke:#181818;stroke-width:0.5;" x1="940.5" x2="1123.1211" y1="113.4569" y2="113.4569"/><line style="stroke:#181818;stroke-width:0.5;" x1="940.5" x2="1123.1211" y1="121.4569" y2="121.4569"/><ellipse cx="950.5" cy="135.1053" fill="#84BE84" rx="3" ry="3" style="stroke:#038048;stroke-width:1;"/><text fill="#000000" font-family="sans-serif" font-size="14" lengthAdjust="spacing" textLength="158.6211" x="959.5" y="138.452">void update_trackers()</text></g><!--class PositionTracker--><g class="entity" data-entity="PositionTracker" data-source-line="15" data-uid="ent0005" id="entity_PositionTracker"><rect fill="#F1F1F1" height="64.2969" rx="2.5" ry="2.5" style="stroke:#181818;stroke-width:0.5;" width="140.0693" x="870" y="428.4569"/><ellipse cx="885" cy="444.4569" fill="#ADD1B2" rx="11" ry="11" style="stroke:#181818;stroke-width:1;"/><path d="M887.9688,450.0975 Q887.3906,450.3944 886.75,450.535 Q886.1094,450.6912 885.4063,450.6912 Q882.9063,450.6912 881.5781,449.0506 Q880.2656,447.3944 880.2656,444.2694 Q880.2656,441.1444 881.5781,439.4881 Q882.9063,437.8319 885.4063,437.8319 Q886.1094,437.8319 886.75,437.9881 Q887.4063,438.1444 887.9688,438.4412 L887.9688,441.16 Q887.3438,440.5819 886.75,440.3162 Q886.1563,440.035 885.5313,440.035 Q884.1875,440.035 883.5,441.1131 Q882.8125,442.1756 882.8125,444.2694 Q882.8125,446.3631 883.5,447.4412 Q884.1875,448.5037 885.5313,448.5037 Q886.1563,448.5037 886.75,448.2381 Q887.3438,447.9569 887.9688,447.3787 L887.9688,450.0975 Z " fill="#000000"/><text fill="#000000" font-family="sans-serif" font-size="14" lengthAdjust="spacing" textLength="108.0693" x="899" y="449.3036">PositionTracker</text><line style="stroke:#181818;stroke-width:0.5;" x1="871" x2="1009.0693" y1="460.4569" y2="460.4569"/><rect fill="none" height="6" style="stroke:#C82930;stroke-width:1;" width="6" x="878" y="471.1053"/><text fill="#000000" font-family="sans-serif" font-size="14" lengthAdjust="spacing" textLength="76.5283" x="890" y="477.452">x,y current</text><line style="stroke:#181818;stroke-width:0.5;" x1="871" x2="1009.0693" y1="484.7537" y2="484.7537"/></g><!--class MovementStrategy--><g class="entity" data-entity="MovementStrategy" data-source-line="26" data-uid="ent0010" id="entity_MovementStrategy"><rect fill="#F1F1F1" height="64.2969" rx="2.5" ry="2.5" style="stroke:#181818;stroke-width:0.5;" width="208.2188" x="239" y="594.4569"/><ellipse cx="272.9347" cy="610.4569" fill="#A9DCDF" rx="11" ry="11" style="stroke:#181818;stroke-width:1;"/><path d="M273.0441,605.8006 L271.8878,610.8788 L274.216,610.8788 L273.0441,605.8006 Z M271.5597,603.5663 L274.5441,603.5663 L277.9035,615.9569 L275.4503,615.9569 L274.6847,612.8944 L271.4035,612.8944 L270.6535,615.9569 L268.216,615.9569 L271.5597,603.5663 Z " fill="#000000"/><text fill="#000000" font-family="sans-serif" font-size="14" font-style="italic" lengthAdjust="spacing" textLength="134.1416" x="291.1424" y="615.3036">MovementStrategy</text><line style="stroke:#181818;stroke-width:0.5;" x1="240" x2="446.2188" y1="626.4569" y2="626.4569"/><line style="stroke:#181818;stroke-width:0.5;" x1="240" x2="446.2188" y1="634.4569" y2="634.4569"/><ellipse cx="250" cy="648.1053" fill="#84BE84" rx="3" ry="3" style="stroke:#038048;stroke-width:1;"/><text fill="#000000" font-family="sans-serif" font-size="14" lengthAdjust="spacing" textLength="182.2188" x="259" y="651.452">(x,y) next_cell(x, y, maze)</text></g><!--class Player--><g class="entity" data-entity="Player" data-source-line="30" data-uid="ent0011" id="entity_Player"><rect fill="#F1F1F1" height="64.2969" rx="2.5" ry="2.5" style="stroke:#181818;stroke-width:0.5;" width="161.9395" x="209" y="428.4569"/><ellipse cx="263.937" cy="444.4569" fill="#ADD1B2" rx="11" ry="11" style="stroke:#181818;stroke-width:1;"/><path d="M266.9058,450.0975 Q266.3276,450.3944 265.687,450.535 Q265.0464,450.6912 264.3433,450.6912 Q261.8433,450.6912 260.5151,449.0506 Q259.2026,447.3944 259.2026,444.2694 Q259.2026,441.1444 260.5151,439.4881 Q261.8433,437.8319 264.3433,437.8319 Q265.0464,437.8319 265.687,437.9881 Q266.3433,438.1444 266.9058,438.4412 L266.9058,441.16 Q266.2808,440.5819 265.687,440.3162 Q265.0933,440.035 264.4683,440.035 Q263.1245,440.035 262.437,441.1131 Q261.7495,442.1756 261.7495,444.2694 Q261.7495,446.3631 262.437,447.4412 Q263.1245,448.5037 264.4683,448.5037 Q265.0933,448.5037 265.687,448.2381 Q266.2808,447.9569 266.9058,447.3787 L266.9058,450.0975 Z " fill="#000000"/><text fill="#000000" font-family="sans-serif" font-size="14" lengthAdjust="spacing" textLength="43.5654" x="284.437" y="449.3036">Player</text><line style="stroke:#181818;stroke-width:0.5;" x1="210" x2="369.9395" y1="460.4569" y2="460.4569"/><rect fill="none" height="6" style="stroke:#C82930;stroke-width:1;" width="6" x="217" y="471.1053"/><text fill="#000000" font-family="sans-serif" font-size="14" lengthAdjust="spacing" textLength="135.9395" x="229" y="477.452">set[Keybind] active</text><line style="stroke:#181818;stroke-width:0.5;" x1="210" x2="369.9395" y1="484.7537" y2="484.7537"/></g><!--class Mob--><g class="entity" data-entity="Mob" data-source-line="34" data-uid="ent0012" id="entity_Mob"><rect fill="#F1F1F1" height="48" rx="2.5" ry="2.5" style="stroke:#181818;stroke-width:0.5;" width="61.5313" x="406" y="436.4569"/><ellipse cx="421" cy="452.4569" fill="#ADD1B2" rx="11" ry="11" style="stroke:#181818;stroke-width:1;"/><path d="M423.9688,458.0975 Q423.3906,458.3944 422.75,458.535 Q422.1094,458.6912 421.4063,458.6912 Q418.9063,458.6912 417.5781,457.0506 Q416.2656,455.3944 416.2656,452.2694 Q416.2656,449.1444 417.5781,447.4881 Q418.9063,445.8319 421.4063,445.8319 Q422.1094,445.8319 422.75,445.9881 Q423.4063,446.1444 423.9688,446.4412 L423.9688,449.16 Q423.3438,448.5819 422.75,448.3162 Q422.1563,448.035 421.5313,448.035 Q420.1875,448.035 419.5,449.1131 Q418.8125,450.1756 418.8125,452.2694 Q418.8125,454.3631 419.5,455.4412 Q420.1875,456.5037 421.5313,456.5037 Q422.1563,456.5037 422.75,456.2381 Q423.3438,455.9569 423.9688,455.3787 L423.9688,458.0975 Z " fill="#000000"/><text fill="#000000" font-family="sans-serif" font-size="14" lengthAdjust="spacing" textLength="29.5313" x="435" y="457.3036">Mob</text><line style="stroke:#181818;stroke-width:0.5;" x1="407" x2="466.5313" y1="468.4569" y2="468.4569"/><line style="stroke:#181818;stroke-width:0.5;" x1="407" x2="466.5313" y1="476.4569" y2="476.4569"/></g><!--class TargetStrategy--><g class="entity" data-entity="TargetStrategy" data-source-line="37" data-uid="ent0016" id="entity_TargetStrategy"><rect fill="#F1F1F1" height="48" rx="2.5" ry="2.5" style="stroke:#181818;stroke-width:0.5;" width="137.8613" x="182" y="735.9569"/><ellipse cx="197" cy="751.9569" fill="#ADD1B2" rx="11" ry="11" style="stroke:#181818;stroke-width:1;"/><path d="M199.9688,757.5975 Q199.3906,757.8944 198.75,758.035 Q198.1094,758.1913 197.4063,758.1913 Q194.9063,758.1913 193.5781,756.5506 Q192.2656,754.8944 192.2656,751.7694 Q192.2656,748.6444 193.5781,746.9881 Q194.9063,745.3319 197.4063,745.3319 Q198.1094,745.3319 198.75,745.4881 Q199.4063,745.6444 199.9688,745.9413 L199.9688,748.66 Q199.3438,748.0819 198.75,747.8163 Q198.1563,747.535 197.5313,747.535 Q196.1875,747.535 195.5,748.6131 Q194.8125,749.6756 194.8125,751.7694 Q194.8125,753.8631 195.5,754.9413 Q196.1875,756.0038 197.5313,756.0038 Q198.1563,756.0038 198.75,755.7381 Q199.3438,755.4569 199.9688,754.8788 L199.9688,757.5975 Z " fill="#000000"/><text fill="#000000" font-family="sans-serif" font-size="14" lengthAdjust="spacing" textLength="105.8613" x="211" y="756.8036">TargetStrategy</text><line style="stroke:#181818;stroke-width:0.5;" x1="183" x2="318.8613" y1="767.9569" y2="767.9569"/><line style="stroke:#181818;stroke-width:0.5;" x1="183" x2="318.8613" y1="775.9569" y2="775.9569"/></g><!--class StandStillStrategy--><g class="entity" data-entity="StandStillStrategy" data-source-line="38" data-uid="ent0018" id="entity_StandStillStrategy"><rect fill="#F1F1F1" height="48" rx="2.5" ry="2.5" style="stroke:#181818;stroke-width:0.5;" width="158.7451" x="355.5" y="735.9569"/><ellipse cx="370.5" cy="751.9569" fill="#ADD1B2" rx="11" ry="11" style="stroke:#181818;stroke-width:1;"/><path d="M373.4688,757.5975 Q372.8906,757.8944 372.25,758.035 Q371.6094,758.1913 370.9063,758.1913 Q368.4063,758.1913 367.0781,756.5506 Q365.7656,754.8944 365.7656,751.7694 Q365.7656,748.6444 367.0781,746.9881 Q368.4063,745.3319 370.9063,745.3319 Q371.6094,745.3319 372.25,745.4881 Q372.9063,745.6444 373.4688,745.9413 L373.4688,748.66 Q372.8438,748.0819 372.25,747.8163 Q371.6563,747.535 371.0313,747.535 Q369.6875,747.535 369,748.6131 Q368.3125,749.6756 368.3125,751.7694 Q368.3125,753.8631 369,754.9413 Q369.6875,756.0038 371.0313,756.0038 Q371.6563,756.0038 372.25,755.7381 Q372.8438,755.4569 373.4688,754.8788 L373.4688,757.5975 Z " fill="#000000"/><text fill="#000000" font-family="sans-serif" font-size="14" lengthAdjust="spacing" textLength="126.7451" x="384.5" y="756.8036">StandStillStrategy</text><line style="stroke:#181818;stroke-width:0.5;" x1="356.5" x2="513.2451" y1="767.9569" y2="767.9569"/><line style="stroke:#181818;stroke-width:0.5;" x1="356.5" x2="513.2451" y1="775.9569" y2="775.9569"/></g><!--class CalculationNode--><g class="entity" data-entity="CalculationNode" data-source-line="40" data-uid="ent0020" id="entity_CalculationNode"><rect fill="#F1F1F1" height="113.1875" rx="2.5" ry="2.5" style="stroke:#181818;stroke-width:0.5;" width="191.2861" x="503.5" y="403.9569"/><ellipse cx="538.5914" cy="419.9569" fill="#ADD1B2" rx="11" ry="11" style="stroke:#181818;stroke-width:1;"/><path d="M541.5601,425.5975 Q540.982,425.8944 540.3414,426.035 Q539.7007,426.1912 538.9976,426.1912 Q536.4976,426.1912 535.1695,424.5506 Q533.857,422.8944 533.857,419.7694 Q533.857,416.6444 535.1695,414.9881 Q536.4976,413.3319 538.9976,413.3319 Q539.7007,413.3319 540.3414,413.4881 Q540.9976,413.6444 541.5601,413.9412 L541.5601,416.66 Q540.9351,416.0819 540.3414,415.8162 Q539.7476,415.535 539.1226,415.535 Q537.7789,415.535 537.0914,416.6131 Q536.4039,417.6756 536.4039,419.7694 Q536.4039,421.8631 537.0914,422.9412 Q537.7789,424.0037 539.1226,424.0037 Q539.7476,424.0037 540.3414,423.7381 Q540.9351,423.4569 541.5601,422.8787 L541.5601,425.5975 Z " fill="#000000"/><text fill="#000000" font-family="sans-serif" font-size="14" lengthAdjust="spacing" textLength="114.6387" x="557.0561" y="424.8036">CalculationNode</text><line style="stroke:#181818;stroke-width:0.5;" x1="504.5" x2="693.7861" y1="435.9569" y2="435.9569"/><polygon fill="none" points="514.5,444.6053,518.5,448.6053,514.5,452.6053,510.5,448.6053" style="stroke:#B38D22;stroke-width:1;"/><text fill="#000000" font-family="sans-serif" font-size="14" lengthAdjust="spacing" textLength="165.2861" x="523.5" y="452.952">CalculationNode parent</text><line style="stroke:#181818;stroke-width:0.5;" x1="504.5" x2="693.7861" y1="460.2537" y2="460.2537"/><ellipse cx="514.5" cy="473.9022" fill="#84BE84" rx="3" ry="3" style="stroke:#038048;stroke-width:1;"/><text fill="#000000" font-family="sans-serif" font-size="14" lengthAdjust="spacing" textLength="162.7227" x="523.5" y="477.2489">T compute(Event[T], T)</text><polygon fill="#FFFF44" points="514.5,485.1991,518.5,489.1991,514.5,493.1991,510.5,489.1991" style="stroke:#B38D22;stroke-width:1;"/><text fill="#000000" font-family="sans-serif" font-size="14" lengthAdjust="spacing" textLength="160.1182" x="523.5" y="493.5457">void add(Event[T] → T)</text><ellipse cx="514.5" cy="506.4959" fill="#84BE84" rx="3" ry="3" style="stroke:#038048;stroke-width:1;"/><text fill="#000000" font-family="sans-serif" font-size="14" lengthAdjust="spacing" textLength="97.8906" x="523.5" y="509.8426">void destroy()</text></g><!--class Duration--><g class="entity" data-entity="Duration" data-source-line="47" data-uid="ent0021" id="entity_Duration"><rect fill="#F1F1F1" height="96.8906" rx="2.5" ry="2.5" style="stroke:#181818;stroke-width:0.5;" width="136.8311" x="622.5" y="577.9569"/><ellipse cx="657.3114" cy="593.9569" fill="#ADD1B2" rx="11" ry="11" style="stroke:#181818;stroke-width:1;"/><path d="M660.2802,599.5975 Q659.7021,599.8944 659.0614,600.035 Q658.4208,600.1913 657.7177,600.1913 Q655.2177,600.1913 653.8896,598.5506 Q652.5771,596.8944 652.5771,593.7694 Q652.5771,590.6444 653.8896,588.9881 Q655.2177,587.3319 657.7177,587.3319 Q658.4208,587.3319 659.0614,587.4881 Q659.7177,587.6444 660.2802,587.9413 L660.2802,590.66 Q659.6552,590.0819 659.0614,589.8163 Q658.4677,589.535 657.8427,589.535 Q656.4989,589.535 655.8114,590.6131 Q655.1239,591.6756 655.1239,593.7694 Q655.1239,595.8631 655.8114,596.9413 Q656.4989,598.0038 657.8427,598.0038 Q658.4677,598.0038 659.0614,597.7381 Q659.6552,597.4569 660.2802,596.8788 L660.2802,599.5975 Z " fill="#000000"/><text fill="#000000" font-family="sans-serif" font-size="14" lengthAdjust="spacing" textLength="60.8057" x="675.714" y="598.8036">Duration</text><line style="stroke:#181818;stroke-width:0.5;" x1="623.5" x2="758.3311" y1="609.9569" y2="609.9569"/><text fill="#000000" font-family="sans-serif" font-size="14" lengthAdjust="spacing" textLength="110.8311" x="642.5" y="626.952">destroys parent</text><text fill="#000000" font-family="sans-serif" font-size="14" lengthAdjust="spacing" textLength="100.4336" x="642.5" y="643.2489">when runs out</text><rect fill="none" height="6" style="stroke:#C82930;stroke-width:1;" width="6" x="630.5" y="653.1991"/><text fill="#000000" font-family="sans-serif" font-size="14" lengthAdjust="spacing" textLength="94.8145" x="642.5" y="659.5457">float duration</text><line style="stroke:#181818;stroke-width:0.5;" x1="623.5" x2="758.3311" y1="666.8475" y2="666.8475"/></g><!--class EffectStun--><g class="entity" data-entity="EffectStun" data-source-line="54" data-uid="ent0023" id="entity_EffectStun"><rect fill="#F1F1F1" height="48" rx="2.5" ry="2.5" style="stroke:#181818;stroke-width:0.5;" width="104.625" x="482.5" y="602.4569"/><ellipse cx="497.5" cy="618.4569" fill="#ADD1B2" rx="11" ry="11" style="stroke:#181818;stroke-width:1;"/><path d="M500.4688,624.0975 Q499.8906,624.3944 499.25,624.535 Q498.6094,624.6913 497.9063,624.6913 Q495.4063,624.6913 494.0781,623.0506 Q492.7656,621.3944 492.7656,618.2694 Q492.7656,615.1444 494.0781,613.4881 Q495.4063,611.8319 497.9063,611.8319 Q498.6094,611.8319 499.25,611.9881 Q499.9063,612.1444 500.4688,612.4413 L500.4688,615.16 Q499.8438,614.5819 499.25,614.3163 Q498.6563,614.035 498.0313,614.035 Q496.6875,614.035 496,615.1131 Q495.3125,616.1756 495.3125,618.2694 Q495.3125,620.3631 496,621.4413 Q496.6875,622.5038 498.0313,622.5038 Q498.6563,622.5038 499.25,622.2381 Q499.8438,621.9569 500.4688,621.3788 L500.4688,624.0975 Z " fill="#000000"/><text fill="#000000" font-family="sans-serif" font-size="14" lengthAdjust="spacing" textLength="72.625" x="511.5" y="623.3036">EffectStun</text><line style="stroke:#181818;stroke-width:0.5;" x1="483.5" x2="586.125" y1="634.4569" y2="634.4569"/><line style="stroke:#181818;stroke-width:0.5;" x1="483.5" x2="586.125" y1="642.4569" y2="642.4569"/></g><!--class ArmorItem--><g class="entity" data-entity="ArmorItem" data-source-line="56" data-uid="ent0026" id="entity_ArmorItem"><rect fill="#F1F1F1" height="48" rx="2.5" ry="2.5" style="stroke:#181818;stroke-width:0.5;" width="107.1611" x="794.5" y="602.4569"/><ellipse cx="809.5" cy="618.4569" fill="#ADD1B2" rx="11" ry="11" style="stroke:#181818;stroke-width:1;"/><path d="M812.4688,624.0975 Q811.8906,624.3944 811.25,624.535 Q810.6094,624.6913 809.9063,624.6913 Q807.4063,624.6913 806.0781,623.0506 Q804.7656,621.3944 804.7656,618.2694 Q804.7656,615.1444 806.0781,613.4881 Q807.4063,611.8319 809.9063,611.8319 Q810.6094,611.8319 811.25,611.9881 Q811.9063,612.1444 812.4688,612.4413 L812.4688,615.16 Q811.8438,614.5819 811.25,614.3163 Q810.6563,614.035 810.0313,614.035 Q808.6875,614.035 808,615.1131 Q807.3125,616.1756 807.3125,618.2694 Q807.3125,620.3631 808,621.4413 Q808.6875,622.5038 810.0313,622.5038 Q810.6563,622.5038 811.25,622.2381 Q811.8438,621.9569 812.4688,621.3788 L812.4688,624.0975 Z " fill="#000000"/><text fill="#000000" font-family="sans-serif" font-size="14" lengthAdjust="spacing" textLength="75.1611" x="823.5" y="623.3036">ArmorItem</text><line style="stroke:#181818;stroke-width:0.5;" x1="795.5" x2="900.6611" y1="634.4569" y2="634.4569"/><line style="stroke:#181818;stroke-width:0.5;" x1="795.5" x2="900.6611" y1="642.4569" y2="642.4569"/></g><!--class CellManager--><g class="entity" data-entity="CellManager" data-source-line="61" data-uid="ent0030" id="entity_CellManager"><rect fill="#F1F1F1" height="80.5938" rx="2.5" ry="2.5" style="stroke:#181818;stroke-width:0.5;" width="227.4072" x="848.5" y="261.9569"/><ellipse cx="914.1865" cy="277.9569" fill="#ADD1B2" rx="11" ry="11" style="stroke:#181818;stroke-width:1;"/><path d="M917.1553,283.5975 Q916.5771,283.8944 915.9365,284.035 Q915.2959,284.1912 914.5928,284.1912 Q912.0928,284.1912 910.7646,282.5506 Q909.4521,280.8944 909.4521,277.7694 Q909.4521,274.6444 910.7646,272.9881 Q912.0928,271.3319 914.5928,271.3319 Q915.2959,271.3319 915.9365,271.4881 Q916.5928,271.6444 917.1553,271.9412 L917.1553,274.66 Q916.5303,274.0819 915.9365,273.8162 Q915.3428,273.535 914.7178,273.535 Q913.374,273.535 912.6865,274.6131 Q911.999,275.6756 911.999,277.7694 Q911.999,279.8631 912.6865,280.9412 Q913.374,282.0037 914.7178,282.0037 Q915.3428,282.0037 915.9365,281.7381 Q916.5303,281.4569 917.1553,280.8787 L917.1553,283.5975 Z " fill="#000000"/><text fill="#000000" font-family="sans-serif" font-size="14" lengthAdjust="spacing" textLength="87.5342" x="934.6865" y="282.8036">CellManager</text><line style="stroke:#181818;stroke-width:0.5;" x1="849.5" x2="1074.9072" y1="293.9569" y2="293.9569"/><rect fill="none" height="6" style="stroke:#C82930;stroke-width:1;" width="6" x="856.5" y="304.6053"/><text fill="#000000" font-family="sans-serif" font-size="14" lengthAdjust="spacing" textLength="201.4072" x="868.5" y="310.952">dict[{x, y} → list[Character]]</text><line style="stroke:#181818;stroke-width:0.5;" x1="849.5" x2="1074.9072" y1="318.2537" y2="318.2537"/><ellipse cx="859.5" cy="331.9022" fill="#84BE84" rx="3" ry="3" style="stroke:#038048;stroke-width:1;"/><text fill="#000000" font-family="sans-serif" font-size="14" lengthAdjust="spacing" textLength="186.1152" x="868.5" y="335.2489">bool enter(Character, x, y)</text></g><!--class Cell--><g class="entity" data-entity="Cell" data-source-line="69" data-uid="ent0034" id="entity_Cell"><rect fill="#F1F1F1" height="80.5938" rx="2.5" ry="2.5" style="stroke:#181818;stroke-width:0.5;" width="202.3945" x="1045" y="419.9569"/><ellipse cx="1128.8633" cy="435.9569" fill="#A9DCDF" rx="11" ry="11" style="stroke:#181818;stroke-width:1;"/><path d="M1128.9727,431.3006 L1127.8164,436.3787 L1130.1445,436.3787 L1128.9727,431.3006 Z M1127.4883,429.0662 L1130.4727,429.0662 L1133.832,441.4569 L1131.3789,441.4569 L1130.6133,438.3944 L1127.332,438.3944 L1126.582,441.4569 L1124.1445,441.4569 L1127.4883,429.0662 Z " fill="#000000"/><text fill="#000000" font-family="sans-serif" font-size="14" font-style="italic" lengthAdjust="spacing" textLength="26.168" x="1149.3633" y="440.8036">Cell</text><line style="stroke:#181818;stroke-width:0.5;" x1="1046" x2="1246.3945" y1="451.9569" y2="451.9569"/><line style="stroke:#181818;stroke-width:0.5;" x1="1046" x2="1246.3945" y1="459.9569" y2="459.9569"/><ellipse cx="1056" cy="473.6053" fill="#84BE84" rx="3" ry="3" style="stroke:#038048;stroke-width:1;"/><text fill="#000000" font-family="sans-serif" font-size="14" lengthAdjust="spacing" textLength="176.3945" x="1065" y="476.952">bool walkable(Character)</text><ellipse cx="1056" cy="489.9022" fill="#84BE84" rx="3" ry="3" style="stroke:#038048;stroke-width:1;"/><text fill="#000000" font-family="sans-serif" font-size="14" lengthAdjust="spacing" textLength="151.4639" x="1065" y="493.2489">void enter(Character)</text></g><!--class Wall--><g class="entity" data-entity="Wall" data-source-line="74" data-uid="ent0035" id="entity_Wall"><rect fill="#F1F1F1" height="48" rx="2.5" ry="2.5" style="stroke:#181818;stroke-width:0.5;" width="62.2012" x="1115" y="602.4569"/><ellipse cx="1130" cy="618.4569" fill="#ADD1B2" rx="11" ry="11" style="stroke:#181818;stroke-width:1;"/><path d="M1132.9688,624.0975 Q1132.3906,624.3944 1131.75,624.535 Q1131.1094,624.6913 1130.4063,624.6913 Q1127.9063,624.6913 1126.5781,623.0506 Q1125.2656,621.3944 1125.2656,618.2694 Q1125.2656,615.1444 1126.5781,613.4881 Q1127.9063,611.8319 1130.4063,611.8319 Q1131.1094,611.8319 1131.75,611.9881 Q1132.4063,612.1444 1132.9688,612.4413 L1132.9688,615.16 Q1132.3438,614.5819 1131.75,614.3163 Q1131.1563,614.035 1130.5313,614.035 Q1129.1875,614.035 1128.5,615.1131 Q1127.8125,616.1756 1127.8125,618.2694 Q1127.8125,620.3631 1128.5,621.4413 Q1129.1875,622.5038 1130.5313,622.5038 Q1131.1563,622.5038 1131.75,622.2381 Q1132.3438,621.9569 1132.9688,621.3788 L1132.9688,624.0975 Z " fill="#000000"/><text fill="#000000" font-family="sans-serif" font-size="14" lengthAdjust="spacing" textLength="30.2012" x="1144" y="623.3036">Wall</text><line style="stroke:#181818;stroke-width:0.5;" x1="1116" x2="1176.2012" y1="634.4569" y2="634.4569"/><line style="stroke:#181818;stroke-width:0.5;" x1="1116" x2="1176.2012" y1="642.4569" y2="642.4569"/></g><!--class Empty--><g class="entity" data-entity="Empty" data-source-line="75" data-uid="ent0037" id="entity_Empty"><rect fill="#F1F1F1" height="48" rx="2.5" ry="2.5" style="stroke:#181818;stroke-width:0.5;" width="77.1445" x="1212.5" y="602.4569"/><ellipse cx="1227.5" cy="618.4569" fill="#ADD1B2" rx="11" ry="11" style="stroke:#181818;stroke-width:1;"/><path d="M1230.4688,624.0975 Q1229.8906,624.3944 1229.25,624.535 Q1228.6094,624.6913 1227.9063,624.6913 Q1225.4063,624.6913 1224.0781,623.0506 Q1222.7656,621.3944 1222.7656,618.2694 Q1222.7656,615.1444 1224.0781,613.4881 Q1225.4063,611.8319 1227.9063,611.8319 Q1228.6094,611.8319 1229.25,611.9881 Q1229.9063,612.1444 1230.4688,612.4413 L1230.4688,615.16 Q1229.8438,614.5819 1229.25,614.3163 Q1228.6563,614.035 1228.0313,614.035 Q1226.6875,614.035 1226,615.1131 Q1225.3125,616.1756 1225.3125,618.2694 Q1225.3125,620.3631 1226,621.4413 Q1226.6875,622.5038 1228.0313,622.5038 Q1228.6563,622.5038 1229.25,622.2381 Q1229.8438,621.9569 1230.4688,621.3788 L1230.4688,624.0975 Z " fill="#000000"/><text fill="#000000" font-family="sans-serif" font-size="14" lengthAdjust="spacing" textLength="45.1445" x="1241.5" y="623.3036">Empty</text><line style="stroke:#181818;stroke-width:0.5;" x1="1213.5" x2="1288.6445" y1="634.4569" y2="634.4569"/><line style="stroke:#181818;stroke-width:0.5;" x1="1213.5" x2="1288.6445" y1="642.4569" y2="642.4569"/></g><!--class Portal--><g class="entity" data-entity="Portal" data-source-line="76" data-uid="ent0039" id="entity_Portal"><rect fill="#F1F1F1" height="48" rx="2.5" ry="2.5" style="stroke:#181818;stroke-width:0.5;" width="72.7217" x="1006.5" y="602.4569"/><ellipse cx="1021.5" cy="618.4569" fill="#ADD1B2" rx="11" ry="11" style="stroke:#181818;stroke-width:1;"/><path d="M1024.4688,624.0975 Q1023.8906,624.3944 1023.25,624.535 Q1022.6094,624.6913 1021.9063,624.6913 Q1019.4063,624.6913 1018.0781,623.0506 Q1016.7656,621.3944 1016.7656,618.2694 Q1016.7656,615.1444 1018.0781,613.4881 Q1019.4063,611.8319 1021.9063,611.8319 Q1022.6094,611.8319 1023.25,611.9881 Q1023.9063,612.1444 1024.4688,612.4413 L1024.4688,615.16 Q1023.8438,614.5819 1023.25,614.3163 Q1022.6563,614.035 1022.0313,614.035 Q1020.6875,614.035 1020,615.1131 Q1019.3125,616.1756 1019.3125,618.2694 Q1019.3125,620.3631 1020,621.4413 Q1020.6875,622.5038 1022.0313,622.5038 Q1022.6563,622.5038 1023.25,622.2381 Q1023.8438,621.9569 1024.4688,621.3788 L1024.4688,624.0975 Z " fill="#000000"/><text fill="#000000" font-family="sans-serif" font-size="14" lengthAdjust="spacing" textLength="40.7217" x="1035.5" y="623.3036">Portal</text><line style="stroke:#181818;stroke-width:0.5;" x1="1007.5" x2="1078.2217" y1="634.4569" y2="634.4569"/><line style="stroke:#181818;stroke-width:0.5;" x1="1007.5" x2="1078.2217" y1="642.4569" y2="642.4569"/></g><!--class Maze--><g class="entity" data-entity="Maze" data-source-line="78" data-uid="ent0041" id="entity_Maze"><rect fill="#F1F1F1" height="48" rx="2.5" ry="2.5" style="stroke:#181818;stroke-width:0.5;" width="68.6201" x="1041.5" y="183.9569"/><ellipse cx="1056.5" cy="199.9569" fill="#ADD1B2" rx="11" ry="11" style="stroke:#181818;stroke-width:1;"/><path d="M1059.4688,205.5975 Q1058.8906,205.8944 1058.25,206.035 Q1057.6094,206.1912 1056.9063,206.1912 Q1054.4063,206.1912 1053.0781,204.5506 Q1051.7656,202.8944 1051.7656,199.7694 Q1051.7656,196.6444 1053.0781,194.9881 Q1054.4063,193.3319 1056.9063,193.3319 Q1057.6094,193.3319 1058.25,193.4881 Q1058.9063,193.6444 1059.4688,193.9412 L1059.4688,196.66 Q1058.8438,196.0819 1058.25,195.8162 Q1057.6563,195.535 1057.0313,195.535 Q1055.6875,195.535 1055,196.6131 Q1054.3125,197.6756 1054.3125,199.7694 Q1054.3125,201.8631 1055,202.9412 Q1055.6875,204.0037 1057.0313,204.0037 Q1057.6563,204.0037 1058.25,203.7381 Q1058.8438,203.4569 1059.4688,202.8787 L1059.4688,205.5975 Z " fill="#000000"/><text fill="#000000" font-family="sans-serif" font-size="14" lengthAdjust="spacing" textLength="36.6201" x="1070.5" y="204.8036">Maze</text><line style="stroke:#181818;stroke-width:0.5;" x1="1042.5" x2="1109.1201" y1="215.9569" y2="215.9569"/><line style="stroke:#181818;stroke-width:0.5;" x1="1042.5" x2="1109.1201" y1="223.9569" y2="223.9569"/></g><!--class LevelManager--><g class="entity" data-entity="LevelManager" data-source-line="82" data-uid="ent0045" id="entity_LevelManager"><rect fill="#F1F1F1" height="48" rx="2.5" ry="2.5" style="stroke:#181818;stroke-width:0.5;" width="130.5674" x="773.5" y="89.4569"/><ellipse cx="788.5" cy="105.4569" fill="#ADD1B2" rx="11" ry="11" style="stroke:#181818;stroke-width:1;"/><path d="M791.4688,111.0975 Q790.8906,111.3944 790.25,111.535 Q789.6094,111.6912 788.9063,111.6912 Q786.4063,111.6912 785.0781,110.0506 Q783.7656,108.3944 783.7656,105.2694 Q783.7656,102.1444 785.0781,100.4881 Q786.4063,98.8319 788.9063,98.8319 Q789.6094,98.8319 790.25,98.9881 Q790.9063,99.1444 791.4688,99.4412 L791.4688,102.16 Q790.8438,101.5819 790.25,101.3162 Q789.6563,101.035 789.0313,101.035 Q787.6875,101.035 787,102.1131 Q786.3125,103.1756 786.3125,105.2694 Q786.3125,107.3631 787,108.4412 Q787.6875,109.5037 789.0313,109.5037 Q789.6563,109.5037 790.25,109.2381 Q790.8438,108.9569 791.4688,108.3787 L791.4688,111.0975 Z " fill="#000000"/><text fill="#000000" font-family="sans-serif" font-size="14" lengthAdjust="spacing" textLength="98.5674" x="802.5" y="110.3036">LevelManager</text><line style="stroke:#181818;stroke-width:0.5;" x1="774.5" x2="903.0674" y1="121.4569" y2="121.4569"/><line style="stroke:#181818;stroke-width:0.5;" x1="774.5" x2="903.0674" y1="129.4569" y2="129.4569"/></g><!--class LevelFactory--><g class="entity" data-entity="LevelFactory" data-source-line="83" data-uid="ent0047" id="entity_LevelFactory"><rect fill="#F1F1F1" height="48" rx="2.5" ry="2.5" style="stroke:#181818;stroke-width:0.5;" width="121.626" x="616" y="89.4569"/><ellipse cx="631" cy="105.4569" fill="#ADD1B2" rx="11" ry="11" style="stroke:#181818;stroke-width:1;"/><path d="M633.9688,111.0975 Q633.3906,111.3944 632.75,111.535 Q632.1094,111.6912 631.4063,111.6912 Q628.9063,111.6912 627.5781,110.0506 Q626.2656,108.3944 626.2656,105.2694 Q626.2656,102.1444 627.5781,100.4881 Q628.9063,98.8319 631.4063,98.8319 Q632.1094,98.8319 632.75,98.9881 Q633.4063,99.1444 633.9688,99.4412 L633.9688,102.16 Q633.3438,101.5819 632.75,101.3162 Q632.1563,101.035 631.5313,101.035 Q630.1875,101.035 629.5,102.1131 Q628.8125,103.1756 628.8125,105.2694 Q628.8125,107.3631 629.5,108.4412 Q630.1875,109.5037 631.5313,109.5037 Q632.1563,109.5037 632.75,109.2381 Q633.3438,108.9569 633.9688,108.3787 L633.9688,111.0975 Z " fill="#000000"/><text fill="#000000" font-family="sans-serif" font-size="14" lengthAdjust="spacing" textLength="89.626" x="645" y="110.3036">LevelFactory</text><line style="stroke:#181818;stroke-width:0.5;" x1="617" x2="736.626" y1="121.4569" y2="121.4569"/><line style="stroke:#181818;stroke-width:0.5;" x1="617" x2="736.626" y1="129.4569" y2="129.4569"/></g><!--class MobFactory--><g class="entity" data-entity="MobFactory" data-source-line="84" data-uid="ent0050" id="entity_MobFactory"><rect fill="#F1F1F1" height="80.5938" rx="2.5" ry="2.5" style="stroke:#181818;stroke-width:0.5;" width="177.334" x="403.5" y="72.9569"/><ellipse cx="447.0201" cy="88.9569" fill="#A9DCDF" rx="11" ry="11" style="stroke:#181818;stroke-width:1;"/><path d="M447.1294,84.3006 L445.9732,89.3787 L448.3013,89.3787 L447.1294,84.3006 Z M445.6451,82.0662 L448.6294,82.0662 L451.9888,94.4569 L449.5357,94.4569 L448.7701,91.3944 L445.4888,91.3944 L444.7388,94.4569 L442.3013,94.4569 L445.6451,82.0662 Z " fill="#000000"/><text fill="#000000" font-family="sans-serif" font-size="14" font-style="italic" lengthAdjust="spacing" textLength="81.9561" x="467.3579" y="93.8036">MobFactory</text><line style="stroke:#181818;stroke-width:0.5;" x1="404.5" x2="579.834" y1="104.9569" y2="104.9569"/><rect fill="none" height="6" style="stroke:#C82930;stroke-width:1;" width="6" x="411.5" y="115.6053"/><text fill="#000000" font-family="sans-serif" font-size="14" lengthAdjust="spacing" textLength="112.5811" x="423.5" y="121.952">int max_spawns</text><line style="stroke:#181818;stroke-width:0.5;" x1="404.5" x2="579.834" y1="129.2537" y2="129.2537"/><ellipse cx="414.5" cy="142.9022" fill="#84BE84" rx="3" ry="3" style="stroke:#038048;stroke-width:1;"/><text fill="#000000" font-family="sans-serif" font-size="14" lengthAdjust="spacing" textLength="151.334" x="423.5" y="146.2489">void spawn(int index)</text></g><!--class ConstMobFactory--><g class="entity" data-entity="ConstMobFactory" data-source-line="92" data-uid="ent0054" id="entity_ConstMobFactory"><rect fill="#F1F1F1" height="48" rx="2.5" ry="2.5" style="stroke:#181818;stroke-width:0.5;" width="153.9531" x="214" y="89.4569"/><ellipse cx="229" cy="105.4569" fill="#ADD1B2" rx="11" ry="11" style="stroke:#181818;stroke-width:1;"/><path d="M231.9688,111.0975 Q231.3906,111.3944 230.75,111.535 Q230.1094,111.6912 229.4063,111.6912 Q226.9063,111.6912 225.5781,110.0506 Q224.2656,108.3944 224.2656,105.2694 Q224.2656,102.1444 225.5781,100.4881 Q226.9063,98.8319 229.4063,98.8319 Q230.1094,98.8319 230.75,98.9881 Q231.4063,99.1444 231.9688,99.4412 L231.9688,102.16 Q231.3438,101.5819 230.75,101.3162 Q230.1563,101.035 229.5313,101.035 Q228.1875,101.035 227.5,102.1131 Q226.8125,103.1756 226.8125,105.2694 Q226.8125,107.3631 227.5,108.4412 Q228.1875,109.5037 229.5313,109.5037 Q230.1563,109.5037 230.75,109.2381 Q231.3438,108.9569 231.9688,108.3787 L231.9688,111.0975 Z " fill="#000000"/><text fill="#000000" font-family="sans-serif" font-size="14" lengthAdjust="spacing" textLength="121.9531" x="243" y="110.3036">ConstMobFactory</text><line style="stroke:#181818;stroke-width:0.5;" x1="215" x2="366.9531" y1="121.4569" y2="121.4569"/><line style="stroke:#181818;stroke-width:0.5;" x1="215" x2="366.9531" y1="129.4569" y2="129.4569"/></g><!--class RandomMobFactory--><g class="entity" data-entity="RandomMobFactory" data-source-line="93" data-uid="ent0057" id="entity_RandomMobFactory"><rect fill="#F1F1F1" height="48" rx="2.5" ry="2.5" style="stroke:#181818;stroke-width:0.5;" width="172.2256" x="7" y="89.4569"/><ellipse cx="22" cy="105.4569" fill="#ADD1B2" rx="11" ry="11" style="stroke:#181818;stroke-width:1;"/><path d="M24.9688,111.0975 Q24.3906,111.3944 23.75,111.535 Q23.1094,111.6912 22.4063,111.6912 Q19.9063,111.6912 18.5781,110.0506 Q17.2656,108.3944 17.2656,105.2694 Q17.2656,102.1444 18.5781,100.4881 Q19.9063,98.8319 22.4063,98.8319 Q23.1094,98.8319 23.75,98.9881 Q24.4063,99.1444 24.9688,99.4412 L24.9688,102.16 Q24.3438,101.5819 23.75,101.3162 Q23.1563,101.035 22.5313,101.035 Q21.1875,101.035 20.5,102.1131 Q19.8125,103.1756 19.8125,105.2694 Q19.8125,107.3631 20.5,108.4412 Q21.1875,109.5037 22.5313,109.5037 Q23.1563,109.5037 23.75,109.2381 Q24.3438,108.9569 24.9688,108.3787 L24.9688,111.0975 Z " fill="#000000"/><text fill="#000000" font-family="sans-serif" font-size="14" lengthAdjust="spacing" textLength="140.2256" x="36" y="110.3036">RandomMobFactory</text><line style="stroke:#181818;stroke-width:0.5;" x1="8" x2="178.2256" y1="121.4569" y2="121.4569"/><line style="stroke:#181818;stroke-width:0.5;" x1="8" x2="178.2256" y1="129.4569" y2="129.4569"/></g><!--link Node to Character--><g class="link" data-entity-1="Node" data-entity-2="Character" data-source-line="17" data-uid="lnk7" id="link_Node_Character"><path codeLine="17" d="M442.34,302.4569 C453.93,302.4569 453.53,302.4569 465.13,302.4569" fill="none" id="Node-to-Character" style="stroke:#181818;stroke-width:1;"/><polygon fill="#181818" points="477.13,302.4569,471.13,298.4569,465.13,302.4569,471.13,306.4569,477.13,302.4569" style="stroke:#181818;stroke-width:1;"/></g><!--reverse link Environment to Character--><g class="link" data-entity-1="Environment" data-entity-2="Character" data-source-line="23" data-uid="lnk8" id="link_Environment_Character"><path codeLine="23" d="M942.0374,149.9509 C854.2374,184.5909 724.31,235.8469 636.6,270.4469" fill="none" id="Environment-backto-Character" style="stroke:#181818;stroke-width:1;"/><polygon fill="#181818" points="953.2,145.5469,946.1507,144.028,942.0374,149.9509,949.0867,151.4698,953.2,145.5469" style="stroke:#181818;stroke-width:1;"/><text fill="#000000" font-family="sans-serif" font-size="13" lengthAdjust="spacing" textLength="36.5625" x="852" y="212.5238">many</text></g><!--reverse link Character to PositionTracker--><g class="link" data-entity-1="Character" data-entity-2="PositionTracker" data-source-line="24" data-uid="lnk9" id="link_Character_PositionTracker"><path codeLine="24" d="M650.11,328.8608 C710.34,346.6208 782.41,370.6769 852,403.9569 C866.5,410.8869 881.56,419.7169 895.03,428.2669" fill="none" id="Character-backto-PositionTracker" style="stroke:#181818;stroke-width:1;"/><polygon fill="#181818" points="638.6,325.4669,643.2237,331.0005,650.11,328.8608,645.4863,323.3272,638.6,325.4669" style="stroke:#181818;stroke-width:1;"/></g><!--reverse link Character to Mob--><g class="link" data-entity-1="Character" data-entity-2="Mob" data-source-line="34" data-uid="lnk13" id="link_Character_Mob"><path codeLine="34" d="M522.7697,348.8713 C499.4597,378.9313 475.77,409.4669 454.87,436.4269" fill="none" id="Character-backto-Mob" style="stroke:#181818;stroke-width:1;"/><polygon fill="none" points="533.8,334.6469,518.0283,345.1945,527.5112,352.548,533.8,334.6469" style="stroke:#181818;stroke-width:1;"/></g><!--reverse link Mob to MovementStrategy--><g class="link" data-entity-1="Mob" data-entity-2="MovementStrategy" data-source-line="35" data-uid="lnk14" id="link_Mob_MovementStrategy"><path codeLine="35" d="M417.7627,495.018 C401.3127,523.718 379.19,562.3169 360.86,594.2969" fill="none" id="Mob-backto-MovementStrategy" style="stroke:#181818;stroke-width:1;"/><polygon fill="#181818" points="423.73,484.6069,417.276,487.8233,417.7627,495.018,424.2167,491.8015,423.73,484.6069" style="stroke:#181818;stroke-width:1;"/></g><!--reverse link Character to Player--><g class="link" data-entity-1="Character" data-entity-2="Player" data-source-line="36" data-uid="lnk15" id="link_Character_Player"><path codeLine="36" d="M489.1737,343.5223 C442.4637,370.7123 390.44,400.9869 343.63,428.2369" fill="none" id="Character-backto-Player" style="stroke:#181818;stroke-width:1;"/><polygon fill="none" points="504.73,334.4669,486.1552,338.3368,492.1921,348.7077,504.73,334.4669" style="stroke:#181818;stroke-width:1;"/></g><!--reverse link MovementStrategy to TargetStrategy--><g class="link" data-entity-1="MovementStrategy" data-entity-2="TargetStrategy" data-source-line="37" data-uid="lnk17" id="link_MovementStrategy_TargetStrategy"><path codeLine="37" d="M310.8819,673.366 C294.3019,697.066 282.18,714.3969 267.18,735.8369" fill="none" id="MovementStrategy-backto-TargetStrategy" style="stroke:#181818;stroke-width:1;"/><polygon fill="none" points="321.2,658.6169,305.9655,669.9266,315.7982,676.8054,321.2,658.6169" style="stroke:#181818;stroke-width:1;"/></g><!--reverse link MovementStrategy to StandStillStrategy--><g class="link" data-entity-1="MovementStrategy" data-entity-2="StandStillStrategy" data-source-line="38" data-uid="lnk19" id="link_MovementStrategy_StandStillStrategy"><path codeLine="38" d="M375.1181,673.366 C391.6981,697.066 403.82,714.3969 418.82,735.8369" fill="none" id="MovementStrategy-backto-StandStillStrategy" style="stroke:#181818;stroke-width:1;"/><polygon fill="none" points="364.8,658.6169,370.2018,676.8054,380.0345,669.9266,364.8,658.6169" style="stroke:#181818;stroke-width:1;"/></g><!--reverse link CalculationNode to Duration--><g class="link" data-entity-1="CalculationNode" data-entity-2="Duration" data-source-line="53" data-uid="lnk22" id="link_CalculationNode_Duration"><path codeLine="53" d="M638.9521,532.6779 C650.0521,552.4779 653.65,558.8669 664.34,577.9269" fill="none" id="CalculationNode-backto-Duration" style="stroke:#181818;stroke-width:1;"/><polygon fill="none" points="630.15,516.9769,633.7184,535.612,644.1858,529.7439,630.15,516.9769" style="stroke:#181818;stroke-width:1;"/></g><!--reverse link CalculationNode to EffectStun--><g class="link" data-entity-1="CalculationNode" data-entity-2="EffectStun" data-source-line="54" data-uid="lnk24" id="link_CalculationNode_EffectStun"><path codeLine="54" d="M570.7899,533.7467 C559.4099,562.9267 552.6,580.3469 543.99,602.4269" fill="none" id="CalculationNode-backto-EffectStun" style="stroke:#181818;stroke-width:1;"/><polygon fill="none" points="577.33,516.9769,565.1999,531.5667,576.3798,535.9267,577.33,516.9769" style="stroke:#181818;stroke-width:1;"/></g><!--reverse link EffectStun to Duration--><g class="link" data-entity-1="EffectStun" data-entity-2="Duration" data-source-line="55" data-uid="lnk25" id="link_EffectStun_Duration"><path codeLine="55" d="M599.71,626.4569 C611.28,626.4569 610.84,626.4569 622.41,626.4569" fill="none" id="EffectStun-backto-Duration" style="stroke:#181818;stroke-width:1;"/><polygon fill="#181818" points="587.71,626.4569,593.71,630.4569,599.71,626.4569,593.71,622.4569,587.71,626.4569" style="stroke:#181818;stroke-width:1;"/></g><!--reverse link CalculationNode to ArmorItem--><g class="link" data-entity-1="CalculationNode" data-entity-2="ArmorItem" data-source-line="56" data-uid="lnk27" id="link_CalculationNode_ArmorItem"><path codeLine="56" d="M699.2876,526.8341 C728.7276,546.0741 746.82,557.9869 777,577.9569 C789,585.8969 802.1,594.6369 813.74,602.4369" fill="none" id="CalculationNode-backto-ArmorItem" style="stroke:#181818;stroke-width:1;"/><polygon fill="none" points="684.22,516.9869,696.0052,531.8566,702.57,521.8115,684.22,516.9869" style="stroke:#181818;stroke-width:1;"/></g><!--reverse link Character to CalculationNode--><g class="link" data-entity-1="Character" data-entity-2="CalculationNode" data-source-line="58" data-uid="lnk28" id="link_Character_CalculationNode"><path codeLine="58" d="M569.2513,346.2525 C574.4413,365.9925 578.24,380.4769 584.34,403.6969" fill="none" id="Character-backto-CalculationNode" style="stroke:#181818;stroke-width:1;"/><polygon fill="#181818" points="566.2,334.6469,563.8571,341.4668,569.2513,346.2525,571.5942,339.4326,566.2,334.6469" style="stroke:#181818;stroke-width:1;"/></g><!--reverse link CalculationNode to CalculationNode--><g class="link" data-entity-1="CalculationNode" data-entity-2="CalculationNode" data-source-line="59" data-uid="lnk29" id="link_CalculationNode_CalculationNode"><path codeLine="59" d="M706.5637,445.7899 C726.8237,447.3699 729.5,451.6369 729.5,460.4569 C729.5,469.2769 714.86,474.4769 694.6,476.0569" fill="none" id="CalculationNode-backto-CalculationNode" style="stroke:#181818;stroke-width:1;"/><polygon fill="#181818" points="694.6,444.8569,700.2708,449.3113,706.5637,445.7899,700.8928,441.3355,694.6,444.8569" style="stroke:#181818;stroke-width:1;"/><text fill="#000000" font-family="sans-serif" font-size="13" lengthAdjust="spacing" textLength="110.2334" x="735.5" y="465.0238">children, 0-many</text></g><!--reverse link Environment to CellManager--><g class="link" data-entity-1="Environment" data-entity-2="CellManager" data-source-line="61" data-uid="lnk31" id="link_Environment_CellManager"><path codeLine="61" d="M1016.0727,156.9951 C1004.1227,188.9151 989.76,227.2969 976.8,261.9169" fill="none" id="Environment-backto-CellManager" style="stroke:#181818;stroke-width:1;"/><polygon fill="#181818" points="1020.28,145.7569,1014.4303,149.9736,1016.0727,156.9951,1021.9224,152.7784,1020.28,145.7569" style="stroke:#181818;stroke-width:1;"/></g><!--reverse link CellManager to PositionTracker--><g class="link" data-entity-1="CellManager" data-entity-2="PositionTracker" data-source-line="62" data-uid="lnk33" id="link_CellManager_PositionTracker"><path codeLine="62" d="M955.5522,349.1681 C951.8222,375.6181 947.83,403.9169 944.38,428.3669" fill="none" id="CellManager-backto-PositionTracker" style="stroke:#181818;stroke-width:1;"/><polygon fill="#181818" points="956.39,343.2269,951.1724,351.5801,955.6918,348.1779,959.0941,352.6973,956.39,343.2269" style="stroke:#181818;stroke-width:1;"/></g><!--reverse link Cell to Wall--><g class="link" data-entity-1="Cell" data-entity-2="Wall" data-source-line="74" data-uid="lnk36" id="link_Cell_Wall"><path codeLine="74" d="M1146,519.1569 C1146,550.8169 1146,576.0669 1146,602.3169" fill="none" id="Cell-backto-Wall" style="stroke:#181818;stroke-width:1;"/><polygon fill="none" points="1146,501.1569,1140,519.1569,1152,519.1569,1146,501.1569" style="stroke:#181818;stroke-width:1;"/></g><!--reverse link Cell to Empty--><g class="link" data-entity-1="Cell" data-entity-2="Empty" data-source-line="75" data-uid="lnk38" id="link_Cell_Empty"><path codeLine="75" d="M1181.1255,516.3161 C1201.3955,547.9761 1219.38,576.0669 1236.18,602.3169" fill="none" id="Cell-backto-Empty" style="stroke:#181818;stroke-width:1;"/><polygon fill="none" points="1171.42,501.1569,1176.0725,519.5513,1186.1786,513.0809,1171.42,501.1569" style="stroke:#181818;stroke-width:1;"/></g><!--reverse link Cell to Portal--><g class="link" data-entity-1="Cell" data-entity-2="Portal" data-source-line="76" data-uid="lnk40" id="link_Cell_Portal"><path codeLine="76" d="M1111.4946,516.3986 C1091.6046,548.0586 1074.02,576.0669 1057.54,602.3169" fill="none" id="Cell-backto-Portal" style="stroke:#181818;stroke-width:1;"/><polygon fill="none" points="1121.07,501.1569,1106.414,513.2068,1116.5751,519.5904,1121.07,501.1569" style="stroke:#181818;stroke-width:1;"/></g><!--reverse link Environment to Maze--><g class="link" data-entity-1="Environment" data-entity-2="Maze" data-source-line="78" data-uid="lnk42" id="link_Environment_Maze"><path codeLine="78" d="M1051.9309,156.3504 C1057.8809,168.8404 1059.45,172.1569 1064.95,183.7369" fill="none" id="Environment-backto-Maze" style="stroke:#181818;stroke-width:1;"/><polygon fill="#181818" points="1046.77,145.5169,1045.7393,152.6539,1051.9309,156.3504,1052.9616,149.2133,1046.77,145.5169" style="stroke:#181818;stroke-width:1;"/></g><!--reverse link Maze to Cell--><g class="link" data-entity-1="Maze" data-entity-2="Cell" data-source-line="79" data-uid="lnk43" id="link_Maze_Cell"><path codeLine="79" d="M1087.3996,243.5091 C1090.4096,252.7691 1090.11,252.1269 1093,261.9569 C1109.04,316.4469 1125.73,379.9769 1136,419.9569" fill="none" id="Maze-backto-Cell" style="stroke:#181818;stroke-width:1;"/><polygon fill="#181818" points="1083.69,232.0969,1081.7407,239.0395,1087.3996,243.5091,1089.3489,236.5665,1083.69,232.0969" style="stroke:#181818;stroke-width:1;"/><text fill="#000000" font-family="sans-serif" font-size="13" lengthAdjust="spacing" textLength="79.625" x="1116" y="307.0238">many*many</text></g><!--link CellManager to Cell--><g class="link" data-entity-1="CellManager" data-entity-2="Cell" data-source-line="80" data-uid="lnk44" id="link_CellManager_Cell"><path codeLine="80" d="M1008.91,343.2269 C1036.59,366.6969 1066.9327,392.4277 1094.6027,415.8777" fill="none" id="CellManager-to-Cell" style="stroke:#181818;stroke-width:1;"/><polygon fill="#181818" points="1099.18,419.7569,1094.9002,410.8865,1095.3656,416.5242,1089.7279,416.9896,1099.18,419.7569" style="stroke:#181818;stroke-width:1;"/></g><!--reverse link LevelManager to Environment--><g class="link" data-entity-1="LevelManager" data-entity-2="Environment" data-source-line="82" data-uid="lnk46" id="link_LevelManager_Environment"><path codeLine="82" d="M916.59,113.4569 C928.2,113.4569 927.82,113.4569 939.43,113.4569" fill="none" id="LevelManager-backto-Environment" style="stroke:#181818;stroke-width:1;"/><polygon fill="#181818" points="904.59,113.4569,910.59,117.4569,916.59,113.4569,910.59,109.4569,904.59,113.4569" style="stroke:#181818;stroke-width:1;"/></g><!--link LevelFactory to LevelManager--><g class="link" data-entity-1="LevelFactory" data-entity-2="LevelManager" data-source-line="83" data-uid="lnk49" id="link_LevelFactory_LevelManager"><path codeLine="83" d="M738.07,113.4569 C749.76,113.4569 749.46,113.4569 761.16,113.4569" fill="none" id="LevelFactory-to-LevelManager" style="stroke:#181818;stroke-width:1;"/><polygon fill="#181818" points="773.16,113.4569,767.16,109.4569,761.16,113.4569,767.16,117.4569,773.16,113.4569" style="stroke:#181818;stroke-width:1;"/></g><!--link MobFactory to LevelFactory--><g class="link" data-entity-1="MobFactory" data-entity-2="LevelFactory" data-source-line="84" data-uid="lnk52" id="link_MobFactory_LevelFactory"><path codeLine="84" d="M580.53,113.4569 C592.33,113.4569 592.14,113.4569 603.95,113.4569" fill="none" id="MobFactory-to-LevelFactory" style="stroke:#181818;stroke-width:1;"/><polygon fill="#181818" points="615.95,113.4569,609.95,109.4569,603.95,113.4569,609.95,117.4569,615.95,113.4569" style="stroke:#181818;stroke-width:1;"/></g><!--link MobFactory to Character--><g class="link" data-entity-1="MobFactory" data-entity-2="Character" data-source-line="91" data-uid="lnk53" id="link_MobFactory_Character"><path codeLine="91" d="M506,154.1169 C518.22,188.7469 533.7239,232.6586 544.9739,264.5486" fill="none" id="MobFactory-to-Character" style="stroke:#181818;stroke-width:1;"/><polygon fill="#181818" points="546.97,270.2069,547.748,260.3888,545.3066,265.4917,540.2037,263.0502,546.97,270.2069" style="stroke:#181818;stroke-width:1;"/></g><!--reverse link ConstMobFactory to MobFactory--><g class="link" data-entity-1="ConstMobFactory" data-entity-2="MobFactory" data-source-line="92" data-uid="lnk56" id="link_ConstMobFactory_MobFactory"><path codeLine="92" d="M386.34,113.4569 C397.93,113.4569 391.52,113.4569 403.12,113.4569" fill="none" id="ConstMobFactory-backto-MobFactory" style="stroke:#181818;stroke-width:1;"/><polygon fill="none" points="368.34,113.4569,386.34,119.4569,386.34,107.4569,368.34,113.4569" style="stroke:#181818;stroke-width:1;"/></g><!--reverse link RandomMobFactory to MobFactory--><g class="link" data-entity-1="RandomMobFactory" data-entity-2="MobFactory" data-source-line="93" data-uid="lnk59" id="link_RandomMobFactory_MobFactory"><path codeLine="93" d="M149.4471,80.984 C172.1171,68.944 185.49,64.0969 213.5,57.9569 C280.36,43.2969 300.55,43.7069 367.5,57.9569 C383.12,61.2769 399.16,66.7069 414.32,72.9069" fill="none" id="RandomMobFactory-backto-MobFactory" style="stroke:#181818;stroke-width:1;"/><polygon fill="none" points="133.55,89.4269,152.2614,86.283,146.6328,75.6849,133.55,89.4269" style="stroke:#181818;stroke-width:1;"/></g><!--SRC=[VLJDQXin4BxhAGPwSL8B2hs5KYYk2wLD2Orf3yOOUNTiYsYbHTBQtYQvzW7wY7sIZ2JlZzTk3ruyFz_yV3CQBxr2cA1ICB5Yhz02XybMM95vj8wnJ0ddEWqyCe3NeyEulWAD1x_C24eYr5VikV7-PdACZh8e5Qngy5i4r1kfCQ1_OFOMDkYNfN6Z7cogTz8QNQ3sAStEo1ogCXSUbvxoFr154P3yxuoJNXezIoR6kYglkSArvx4ITjazfk3K26ILjPGp5D8luPhdPgzxRDn08NHzaiNApPRId5KYLYuKx26blZKx337lIUbnK_-RnJ7b-8KzKkwKg9jY7Vhv5wnNKkSBeEXoXy6nA-ZT4-UKRCNeHzNniyH3tnITdTKNZJDXQKejzBBJlHSwl_TIgTQnsHcXiag9m4kx4A-6ob94wecD6MIcA2kFe-cELFFPOWopgu29Qo3ol3N0tzz_aYsjI8x4jgdxk_IniZ59p7gqkoxRVeiQRAKTc2h8VAsCy90VKP7LGQMnsoRiPUjqlSQC-Aaqw_vsM_9_y0TR6FlPOt6wntp8undwWiyDP5kfScfs36zutDhBgqrhTokqsD0E39y7hqh-_iIZcMkdIckPoypF7yFsFiV9AEdylErXiGXpMXcZw0IGF6ejOsZlnk2zn7lqsEBsGZs8bS8Esir-43D6Y_18wa-XL4-S5gMlU_ATiLwe8JV7STtIGsJXanWcK3e0r-aAz5ZWHw8O-uexRDLjf5xueKSwKr7vYHemjcPzeVMW1ztOpuzBOqhZaDH48GvBLugzTYrHKHm58vqFF4IYUj3OGyFYYI4Ky4H6evtlbN71vJkT0bDqXXS0]--></g></svg>