<svg xmlns="http://www.w3.org/2000/svg" xmlns:xlink="http://www.w3.org/1999/xlink" contentStyleType="text/css" data-diagram-type="CLASS" height="953px" preserveAspectRatio="none" style="width:1285px;height:953px;background:#FFFFFF;" version="1.1" viewBox="0 0 1285 953" width="1285px" zoomAndPan="magnify"><title>Cell Crawler - Gameplay</title><defs/><g><text fill="#000000" font-family="sans-serif" font-size="14" font-weight="bold" lengthAdjust="spacing" textLength="188.9727" x="541.3442" y="22.9951">Cell Crawler - Gameplay</text><!--class Character--><g class="entity" data-entity="Character" data-source-line="3" data-uid="ent0002" id="entity_Character"><rect fill="#F1F1F1" height="96.8906" rx="2.5" ry="2.5" style="stroke:#181818;stroke-width:0.5;" width="284.7334" x="422.5" y="202.2969"/><ellipse cx="526.0576" cy="218.2969" fill="#ADD1B2" rx="11" ry="11" style="stroke:#181818;stroke-width:1;"/><path d="M529.0264,223.9375 Q528.4482,224.2344 527.8076,224.375 Q527.167,224.5313 526.4639,224.5313 Q523.9639,224.5313 522.6357,222.8906 Q521.3232,221.2344 521.3232,218.1094 Q521.3232,214.9844 522.6357,213.3281 Q523.9639,211.6719 526.4639,211.6719 Q527.167,211.6719 527.8076,211.8281 Q528.4639,211.9844 529.0264,212.2813 L529.0264,215 Q528.4014,214.4219 527.8076,214.1563 Q527.2139,213.875 526.5889,213.875 Q525.2451,213.875 524.5576,214.9531 Q523.8701,216.0156 523.8701,218.1094 Q523.8701,220.2031 524.5576,221.2813 Q525.2451,222.3438 526.5889,222.3438 Q527.2139,222.3438 527.8076,222.0781 Q528.4014,221.7969 529.0264,221.2188 L529.0264,223.9375 Z " fill="#000000"/><text fill="#000000" font-family="sans-serif" font-size="14" lengthAdjust="spacing" textLength="69.1182" x="546.5576" y="223.1436">Character</text><line style="stroke:#181818;stroke-width:0.5;" x1="423.5" x2="706.2334" y1="234.2969" y2="234.2969"/><rect fill="none" height="6" style="stroke:#C82930;stroke-width:1;" width="6" x="430.5" y="244.9453"/><text fill="#000000" font-family="sans-serif" font-size="14" lengthAdjust="spacing" textLength="217.9023" x="442.5" y="251.292">dict[str, Command] commands</text><line style="stroke:#181818;stroke-width:0.5;" x1="423.5" x2="706.2334" y1="258.5938" y2="258.5938"/><ellipse cx="433.5" cy="272.2422" fill="#84BE84" rx="3" ry="3" style="stroke:#038048;stroke-width:1;"/><text fill="#000000" font-family="sans-serif" font-size="14" lengthAdjust="spacing" textLength="135.1396" x="442.5" y="275.5889">(x,y) next_cell(x, y)</text><polygon fill="#FFFF44" points="433.5,283.5391,437.5,287.5391,433.5,291.5391,429.5,287.5391" style="stroke:#B38D22;stroke-width:1;"/><text fill="#000000" font-family="sans-serif" font-size="14" lengthAdjust="spacing" textLength="258.7334" x="442.5" y="291.8857">set_command(str, Command | None)</text></g><!--class Command--><g class="entity" data-entity="Command" data-source-line="9" data-uid="ent0003" id="entity_Command"><rect fill="#F1F1F1" height="64.2969" rx="2.5" ry="2.5" style="stroke:#181818;stroke-width:0.5;" width="172.3438" x="113" y="764.7969"/><ellipse cx="158.9443" cy="780.7969" fill="#ADD1B2" rx="11" ry="11" style="stroke:#181818;stroke-width:1;"/><path d="M161.9131,786.4375 Q161.335,786.7344 160.6943,786.875 Q160.0537,787.0313 159.3506,787.0313 Q156.8506,787.0313 155.5225,785.3906 Q154.21,783.7344 154.21,780.6094 Q154.21,777.4844 155.5225,775.8281 Q156.8506,774.1719 159.3506,774.1719 Q160.0537,774.1719 160.6943,774.3281 Q161.3506,774.4844 161.9131,774.7813 L161.9131,777.5 Q161.2881,776.9219 160.6943,776.6563 Q160.1006,776.375 159.4756,776.375 Q158.1318,776.375 157.4443,777.4531 Q156.7568,778.5156 156.7568,780.6094 Q156.7568,782.7031 157.4443,783.7813 Q158.1318,784.8438 159.4756,784.8438 Q160.1006,784.8438 160.6943,784.5781 Q161.2881,784.2969 161.9131,783.7188 L161.9131,786.4375 Z " fill="#000000"/><text fill="#000000" font-family="sans-serif" font-size="14" lengthAdjust="spacing" textLength="71.9551" x="179.4443" y="785.6436">Command</text><line style="stroke:#181818;stroke-width:0.5;" x1="114" x2="284.3438" y1="796.7969" y2="796.7969"/><line style="stroke:#181818;stroke-width:0.5;" x1="114" x2="284.3438" y1="804.7969" y2="804.7969"/><ellipse cx="124" cy="818.4453" fill="#84BE84" rx="3" ry="3" style="stroke:#038048;stroke-width:1;"/><text fill="#000000" font-family="sans-serif" font-size="14" lengthAdjust="spacing" textLength="146.3438" x="133" y="821.792">run(Node, CalcNode)</text></g><!--class CommandBuilder--><g class="entity" data-entity="CommandBuilder" data-source-line="13" data-uid="ent0004" id="entity_CommandBuilder"><rect fill="#F1F1F1" height="129.4844" rx="2.5" ry="2.5" style="stroke:#181818;stroke-width:0.5;" width="153.4678" x="221.5" y="550.2969"/><ellipse cx="236.5" cy="566.2969" fill="#ADD1B2" rx="11" ry="11" style="stroke:#181818;stroke-width:1;"/><path d="M239.4688,571.9375 Q238.8906,572.2344 238.25,572.375 Q237.6094,572.5313 236.9063,572.5313 Q234.4063,572.5313 233.0781,570.8906 Q231.7656,569.2344 231.7656,566.1094 Q231.7656,562.9844 233.0781,561.3281 Q234.4063,559.6719 236.9063,559.6719 Q237.6094,559.6719 238.25,559.8281 Q238.9063,559.9844 239.4688,560.2813 L239.4688,563 Q238.8438,562.4219 238.25,562.1563 Q237.6563,561.875 237.0313,561.875 Q235.6875,561.875 235,562.9531 Q234.3125,564.0156 234.3125,566.1094 Q234.3125,568.2031 235,569.2813 Q235.6875,570.3438 237.0313,570.3438 Q237.6563,570.3438 238.25,570.0781 Q238.8438,569.7969 239.4688,569.2188 L239.4688,571.9375 Z " fill="#000000"/><text fill="#000000" font-family="sans-serif" font-size="14" lengthAdjust="spacing" textLength="121.4678" x="250.5" y="571.1436">CommandBuilder</text><line style="stroke:#181818;stroke-width:0.5;" x1="222.5" x2="373.9678" y1="582.2969" y2="582.2969"/><text fill="#000000" font-family="sans-serif" font-size="14" lengthAdjust="spacing" textLength="90.0225" x="241.5" y="599.292">Abstract in X</text><rect fill="none" height="6" style="stroke:#C82930;stroke-width:1;" width="6" x="229.5" y="609.2422"/><text fill="#000000" font-family="sans-serif" font-size="14" lengthAdjust="spacing" textLength="102.1768" x="241.5" y="615.5889">X → Command</text><line style="stroke:#181818;stroke-width:0.5;" x1="222.5" x2="373.9678" y1="622.8906" y2="622.8906"/><ellipse cx="232.5" cy="636.5391" fill="#84BE84" rx="3" ry="3" style="stroke:#038048;stroke-width:1;"/><text fill="#000000" font-family="sans-serif" font-size="14" lengthAdjust="spacing" textLength="46.8672" x="241.5" y="639.8857">add(X)</text><ellipse cx="232.5" cy="652.8359" fill="#84BE84" rx="3" ry="3" style="stroke:#038048;stroke-width:1;"/><text fill="#000000" font-family="sans-serif" font-size="14" lengthAdjust="spacing" textLength="73.9854" x="241.5" y="656.1826">remove(X)</text><ellipse cx="232.5" cy="669.1328" fill="#84BE84" rx="3" ry="3" style="stroke:#038048;stroke-width:1;"/><text fill="#000000" font-family="sans-serif" font-size="14" lengthAdjust="spacing" textLength="121.7549" x="241.5" y="672.4795">Command build()</text></g><!--class Player--><g class="entity" data-entity="Player" data-source-line="25" data-uid="ent0007" id="entity_Player"><rect fill="#F1F1F1" height="64.2969" rx="2.5" ry="2.5" style="stroke:#181818;stroke-width:0.5;" width="161.9395" x="391" y="384.7969"/><ellipse cx="445.937" cy="400.7969" fill="#ADD1B2" rx="11" ry="11" style="stroke:#181818;stroke-width:1;"/><path d="M448.9058,406.4375 Q448.3276,406.7344 447.687,406.875 Q447.0464,407.0313 446.3433,407.0313 Q443.8433,407.0313 442.5151,405.3906 Q441.2026,403.7344 441.2026,400.6094 Q441.2026,397.4844 442.5151,395.8281 Q443.8433,394.1719 446.3433,394.1719 Q447.0464,394.1719 447.687,394.3281 Q448.3433,394.4844 448.9058,394.7813 L448.9058,397.5 Q448.2808,396.9219 447.687,396.6563 Q447.0933,396.375 446.4683,396.375 Q445.1245,396.375 444.437,397.4531 Q443.7495,398.5156 443.7495,400.6094 Q443.7495,402.7031 444.437,403.7813 Q445.1245,404.8438 446.4683,404.8438 Q447.0933,404.8438 447.687,404.5781 Q448.2808,404.2969 448.9058,403.7188 L448.9058,406.4375 Z " fill="#000000"/><text fill="#000000" font-family="sans-serif" font-size="14" lengthAdjust="spacing" textLength="43.5654" x="466.437" y="405.6436">Player</text><line style="stroke:#181818;stroke-width:0.5;" x1="392" x2="551.9395" y1="416.7969" y2="416.7969"/><rect fill="none" height="6" style="stroke:#C82930;stroke-width:1;" width="6" x="399" y="427.4453"/><text fill="#000000" font-family="sans-serif" font-size="14" lengthAdjust="spacing" textLength="135.9395" x="411" y="433.792">set[Keybind] active</text><line style="stroke:#181818;stroke-width:0.5;" x1="392" x2="551.9395" y1="441.0938" y2="441.0938"/></g><!--class Node--><g class="entity" data-entity="Node" data-source-line="27" data-uid="ent0009" id="entity_Node"><rect fill="#F1F1F1" height="80.5938" rx="2.5" ry="2.5" style="stroke:#181818;stroke-width:0.5;" width="143.5508" x="243" y="210.2969"/><ellipse cx="292.2563" cy="226.2969" fill="#ADD1B2" rx="11" ry="11" style="stroke:#181818;stroke-width:1;"/><path d="M295.2251,231.9375 Q294.647,232.2344 294.0063,232.375 Q293.3657,232.5313 292.6626,232.5313 Q290.1626,232.5313 288.8345,230.8906 Q287.522,229.2344 287.522,226.1094 Q287.522,222.9844 288.8345,221.3281 Q290.1626,219.6719 292.6626,219.6719 Q293.3657,219.6719 294.0063,219.8281 Q294.6626,219.9844 295.2251,220.2813 L295.2251,223 Q294.6001,222.4219 294.0063,222.1563 Q293.4126,221.875 292.7876,221.875 Q291.4438,221.875 290.7563,222.9531 Q290.0688,224.0156 290.0688,226.1094 Q290.0688,228.2031 290.7563,229.2813 Q291.4438,230.3438 292.7876,230.3438 Q293.4126,230.3438 294.0063,230.0781 Q294.6001,229.7969 295.2251,229.2188 L295.2251,231.9375 Z " fill="#000000"/><text fill="#000000" font-family="sans-serif" font-size="14" lengthAdjust="spacing" textLength="36.5381" x="312.7563" y="231.1436">Node</text><line style="stroke:#181818;stroke-width:0.5;" x1="244" x2="385.5508" y1="242.2969" y2="242.2969"/><text fill="#000000" font-family="sans-serif" font-size="14" lengthAdjust="spacing" textLength="131.5508" x="249" y="259.292">impl by the engine</text><line style="stroke:#181818;stroke-width:0.5;" x1="244" x2="385.5508" y1="266.5938" y2="266.5938"/><ellipse cx="254" cy="280.2422" fill="#84BE84" rx="3" ry="3" style="stroke:#038048;stroke-width:1;"/><text fill="#000000" font-family="sans-serif" font-size="14" lengthAdjust="spacing" textLength="104.9043" x="263" y="283.5889">Vec3 get_pos()</text></g><!--class Environment--><g class="entity" data-entity="Environment" data-source-line="34" data-uid="ent0012" id="entity_Environment"><rect fill="#F1F1F1" height="48" rx="2.5" ry="2.5" style="stroke:#181818;stroke-width:0.5;" width="121.7012" x="811" y="60.7969"/><ellipse cx="826" cy="76.7969" fill="#ADD1B2" rx="11" ry="11" style="stroke:#181818;stroke-width:1;"/><path d="M828.9688,82.4375 Q828.3906,82.7344 827.75,82.875 Q827.1094,83.0313 826.4063,83.0313 Q823.9063,83.0313 822.5781,81.3906 Q821.2656,79.7344 821.2656,76.6094 Q821.2656,73.4844 822.5781,71.8281 Q823.9063,70.1719 826.4063,70.1719 Q827.1094,70.1719 827.75,70.3281 Q828.4063,70.4844 828.9688,70.7813 L828.9688,73.5 Q828.3438,72.9219 827.75,72.6563 Q827.1563,72.375 826.5313,72.375 Q825.1875,72.375 824.5,73.4531 Q823.8125,74.5156 823.8125,76.6094 Q823.8125,78.7031 824.5,79.7813 Q825.1875,80.8438 826.5313,80.8438 Q827.1563,80.8438 827.75,80.5781 Q828.3438,80.2969 828.9688,79.7188 L828.9688,82.4375 Z " fill="#000000"/><text fill="#000000" font-family="sans-serif" font-size="14" lengthAdjust="spacing" textLength="89.7012" x="840" y="81.6436">Environment</text><line style="stroke:#181818;stroke-width:0.5;" x1="812" x2="931.7012" y1="92.7969" y2="92.7969"/><line style="stroke:#181818;stroke-width:0.5;" x1="812" x2="931.7012" y1="100.7969" y2="100.7969"/></g><!--class MovementStrategy--><g class="entity" data-entity="MovementStrategy" data-source-line="36" data-uid="ent0014" id="entity_MovementStrategy"><rect fill="#F1F1F1" height="80.5938" rx="2.5" ry="2.5" style="stroke:#181818;stroke-width:0.5;" width="254.6143" x="569.5" y="574.2969"/><ellipse cx="625.4863" cy="590.2969" fill="#A9DCDF" rx="11" ry="11" style="stroke:#181818;stroke-width:1;"/><path d="M625.5957,585.6406 L624.4395,590.7188 L626.7676,590.7188 L625.5957,585.6406 Z M624.1113,583.4063 L627.0957,583.4063 L630.4551,595.7969 L628.002,595.7969 L627.2363,592.7344 L623.9551,592.7344 L623.2051,595.7969 L620.7676,595.7969 L624.1113,583.4063 Z " fill="#000000"/><text fill="#000000" font-family="sans-serif" font-size="14" font-style="italic" lengthAdjust="spacing" textLength="134.1416" x="645.9863" y="595.1436">MovementStrategy</text><line style="stroke:#181818;stroke-width:0.5;" x1="570.5" x2="823.1143" y1="606.2969" y2="606.2969"/><line style="stroke:#181818;stroke-width:0.5;" x1="570.5" x2="823.1143" y1="614.2969" y2="614.2969"/><ellipse cx="580.5" cy="627.9453" fill="#84BE84" rx="3" ry="3" style="stroke:#038048;stroke-width:1;"/><text fill="#000000" font-family="sans-serif" font-size="14" lengthAdjust="spacing" textLength="182.2188" x="589.5" y="631.292">(x,y) next_cell(x, y, maze)</text><rect fill="#F24D5C" height="6" style="stroke:#C82930;stroke-width:1;" width="6" x="577.5" y="641.2422"/><text fill="#000000" font-family="sans-serif" font-size="14" lengthAdjust="spacing" textLength="228.6143" x="589.5" y="647.5889">Command make_command(x, y)</text></g><!--class MovementCommand--><g class="entity" data-entity="MovementCommand" data-source-line="41" data-uid="ent0015" id="entity_MovementCommand"><rect fill="#F1F1F1" height="48" rx="2.5" ry="2.5" style="stroke:#181818;stroke-width:0.5;" width="178.1113" x="7" y="898.2969"/><ellipse cx="22" cy="914.2969" fill="#ADD1B2" rx="11" ry="11" style="stroke:#181818;stroke-width:1;"/><path d="M24.9688,919.9375 Q24.3906,920.2344 23.75,920.375 Q23.1094,920.5313 22.4063,920.5313 Q19.9063,920.5313 18.5781,918.8906 Q17.2656,917.2344 17.2656,914.1094 Q17.2656,910.9844 18.5781,909.3281 Q19.9063,907.6719 22.4063,907.6719 Q23.1094,907.6719 23.75,907.8281 Q24.4063,907.9844 24.9688,908.2813 L24.9688,911 Q24.3438,910.4219 23.75,910.1563 Q23.1563,909.875 22.5313,909.875 Q21.1875,909.875 20.5,910.9531 Q19.8125,912.0156 19.8125,914.1094 Q19.8125,916.2031 20.5,917.2813 Q21.1875,918.3438 22.5313,918.3438 Q23.1563,918.3438 23.75,918.0781 Q24.3438,917.7969 24.9688,917.2188 L24.9688,919.9375 Z " fill="#000000"/><text fill="#000000" font-family="sans-serif" font-size="14" lengthAdjust="spacing" textLength="146.1113" x="36" y="919.1436">MovementCommand</text><line style="stroke:#181818;stroke-width:0.5;" x1="8" x2="184.1113" y1="930.2969" y2="930.2969"/><line style="stroke:#181818;stroke-width:0.5;" x1="8" x2="184.1113" y1="938.2969" y2="938.2969"/></g><!--class RotationCommand--><g class="entity" data-entity="RotationCommand" data-source-line="42" data-uid="ent0017" id="entity_RotationCommand"><rect fill="#F1F1F1" height="48" rx="2.5" ry="2.5" style="stroke:#181818;stroke-width:0.5;" width="163.1338" x="220.5" y="898.2969"/><ellipse cx="235.5" cy="914.2969" fill="#ADD1B2" rx="11" ry="11" style="stroke:#181818;stroke-width:1;"/><path d="M238.4688,919.9375 Q237.8906,920.2344 237.25,920.375 Q236.6094,920.5313 235.9063,920.5313 Q233.4063,920.5313 232.0781,918.8906 Q230.7656,917.2344 230.7656,914.1094 Q230.7656,910.9844 232.0781,909.3281 Q233.4063,907.6719 235.9063,907.6719 Q236.6094,907.6719 237.25,907.8281 Q237.9063,907.9844 238.4688,908.2813 L238.4688,911 Q237.8438,910.4219 237.25,910.1563 Q236.6563,909.875 236.0313,909.875 Q234.6875,909.875 234,910.9531 Q233.3125,912.0156 233.3125,914.1094 Q233.3125,916.2031 234,917.2813 Q234.6875,918.3438 236.0313,918.3438 Q236.6563,918.3438 237.25,918.0781 Q237.8438,917.7969 238.4688,917.2188 L238.4688,919.9375 Z " fill="#000000"/><text fill="#000000" font-family="sans-serif" font-size="14" lengthAdjust="spacing" textLength="131.1338" x="249.5" y="919.1436">RotationCommand</text><line style="stroke:#181818;stroke-width:0.5;" x1="221.5" x2="382.6338" y1="930.2969" y2="930.2969"/><line style="stroke:#181818;stroke-width:0.5;" x1="221.5" x2="382.6338" y1="938.2969" y2="938.2969"/></g><!--class Mob--><g class="entity" data-entity="Mob" data-source-line="48" data-uid="ent0019" id="entity_Mob"><rect fill="#F1F1F1" height="48" rx="2.5" ry="2.5" style="stroke:#181818;stroke-width:0.5;" width="61.5313" x="627" y="392.7969"/><ellipse cx="642" cy="408.7969" fill="#ADD1B2" rx="11" ry="11" style="stroke:#181818;stroke-width:1;"/><path d="M644.9688,414.4375 Q644.3906,414.7344 643.75,414.875 Q643.1094,415.0313 642.4063,415.0313 Q639.9063,415.0313 638.5781,413.3906 Q637.2656,411.7344 637.2656,408.6094 Q637.2656,405.4844 638.5781,403.8281 Q639.9063,402.1719 642.4063,402.1719 Q643.1094,402.1719 643.75,402.3281 Q644.4063,402.4844 644.9688,402.7813 L644.9688,405.5 Q644.3438,404.9219 643.75,404.6563 Q643.1563,404.375 642.5313,404.375 Q641.1875,404.375 640.5,405.4531 Q639.8125,406.5156 639.8125,408.6094 Q639.8125,410.7031 640.5,411.7813 Q641.1875,412.8438 642.5313,412.8438 Q643.1563,412.8438 643.75,412.5781 Q644.3438,412.2969 644.9688,411.7188 L644.9688,414.4375 Z " fill="#000000"/><text fill="#000000" font-family="sans-serif" font-size="14" lengthAdjust="spacing" textLength="29.5313" x="656" y="413.6436">Mob</text><line style="stroke:#181818;stroke-width:0.5;" x1="628" x2="687.5313" y1="424.7969" y2="424.7969"/><line style="stroke:#181818;stroke-width:0.5;" x1="628" x2="687.5313" y1="432.7969" y2="432.7969"/></g><!--class Inventory--><g class="entity" data-entity="Inventory" data-source-line="51" data-uid="ent0023" id="entity_Inventory"><rect fill="#F1F1F1" height="113.1875" rx="2.5" ry="2.5" style="stroke:#181818;stroke-width:0.5;" width="124.3418" x="410" y="558.2969"/><ellipse cx="436.4627" cy="574.2969" fill="#ADD1B2" rx="11" ry="11" style="stroke:#181818;stroke-width:1;"/><path d="M439.4314,579.9375 Q438.8533,580.2344 438.2127,580.375 Q437.5721,580.5313 436.8689,580.5313 Q434.3689,580.5313 433.0408,578.8906 Q431.7283,577.2344 431.7283,574.1094 Q431.7283,570.9844 433.0408,569.3281 Q434.3689,567.6719 436.8689,567.6719 Q437.5721,567.6719 438.2127,567.8281 Q438.8689,567.9844 439.4314,568.2813 L439.4314,571 Q438.8064,570.4219 438.2127,570.1563 Q437.6189,569.875 436.9939,569.875 Q435.6502,569.875 434.9627,570.9531 Q434.2752,572.0156 434.2752,574.1094 Q434.2752,576.2031 434.9627,577.2813 Q435.6502,578.3438 436.9939,578.3438 Q437.6189,578.3438 438.2127,578.0781 Q438.8064,577.7969 439.4314,577.2188 L439.4314,579.9375 Z " fill="#000000"/><text fill="#000000" font-family="sans-serif" font-size="14" lengthAdjust="spacing" textLength="66.8691" x="453.01" y="579.1436">Inventory</text><line style="stroke:#181818;stroke-width:0.5;" x1="411" x2="533.3418" y1="590.2969" y2="590.2969"/><line style="stroke:#181818;stroke-width:0.5;" x1="411" x2="533.3418" y1="598.2969" y2="598.2969"/><ellipse cx="421" cy="611.9453" fill="#84BE84" rx="3" ry="3" style="stroke:#038048;stroke-width:1;"/><text fill="#000000" font-family="sans-serif" font-size="14" lengthAdjust="spacing" textLength="68.9063" x="430" y="615.292">add(item)</text><ellipse cx="421" cy="628.2422" fill="#84BE84" rx="3" ry="3" style="stroke:#038048;stroke-width:1;"/><text fill="#000000" font-family="sans-serif" font-size="14" lengthAdjust="spacing" textLength="96.0244" x="430" y="631.5889">remove(item)</text><ellipse cx="421" cy="644.5391" fill="#84BE84" rx="3" ry="3" style="stroke:#038048;stroke-width:1;"/><text fill="#000000" font-family="sans-serif" font-size="14" lengthAdjust="spacing" textLength="80.5957" x="430" y="647.8857">equip(uuid)</text><ellipse cx="421" cy="660.8359" fill="#84BE84" rx="3" ry="3" style="stroke:#038048;stroke-width:1;"/><text fill="#000000" font-family="sans-serif" font-size="14" lengthAdjust="spacing" textLength="98.3418" x="430" y="664.1826">unequip(uuid)</text></g><!--class InventoryItem--><g class="entity" data-entity="InventoryItem" data-source-line="52" data-uid="ent0025" id="entity_InventoryItem"><rect fill="#F1F1F1" height="80.5938" rx="2.5" ry="2.5" style="stroke:#181818;stroke-width:0.5;" width="231.7754" x="350" y="756.2969"/><ellipse cx="412.2686" cy="772.2969" fill="#ADD1B2" rx="11" ry="11" style="stroke:#181818;stroke-width:1;"/><path d="M415.2373,777.9375 Q414.6592,778.2344 414.0186,778.375 Q413.3779,778.5313 412.6748,778.5313 Q410.1748,778.5313 408.8467,776.8906 Q407.5342,775.2344 407.5342,772.1094 Q407.5342,768.9844 408.8467,767.3281 Q410.1748,765.6719 412.6748,765.6719 Q413.3779,765.6719 414.0186,765.8281 Q414.6748,765.9844 415.2373,766.2813 L415.2373,769 Q414.6123,768.4219 414.0186,768.1563 Q413.4248,767.875 412.7998,767.875 Q411.4561,767.875 410.7686,768.9531 Q410.0811,770.0156 410.0811,772.1094 Q410.0811,774.2031 410.7686,775.2813 Q411.4561,776.3438 412.7998,776.3438 Q413.4248,776.3438 414.0186,776.0781 Q414.6123,775.7969 415.2373,775.2188 L415.2373,777.9375 Z " fill="#000000"/><text fill="#000000" font-family="sans-serif" font-size="14" lengthAdjust="spacing" textLength="98.7383" x="432.7686" y="777.1436">InventoryItem</text><line style="stroke:#181818;stroke-width:0.5;" x1="351" x2="580.7754" y1="788.2969" y2="788.2969"/><line style="stroke:#181818;stroke-width:0.5;" x1="351" x2="580.7754" y1="796.2969" y2="796.2969"/><ellipse cx="361" cy="809.9453" fill="#84BE84" rx="3" ry="3" style="stroke:#038048;stroke-width:1;"/><text fill="#000000" font-family="sans-serif" font-size="14" lengthAdjust="spacing" textLength="205.7754" x="370" y="813.292">CalculationNode equipment()</text><ellipse cx="361" cy="826.2422" fill="#84BE84" rx="3" ry="3" style="stroke:#038048;stroke-width:1;"/><text fill="#000000" font-family="sans-serif" font-size="14" lengthAdjust="spacing" textLength="64.6748" x="370" y="829.5889">Node ui()</text></g><!--class TargetStrategy--><g class="entity" data-entity="TargetStrategy" data-source-line="53" data-uid="ent0027" id="entity_TargetStrategy"><rect fill="#F1F1F1" height="48" rx="2.5" ry="2.5" style="stroke:#181818;stroke-width:0.5;" width="137.8613" x="812" y="772.7969"/><ellipse cx="827" cy="788.7969" fill="#ADD1B2" rx="11" ry="11" style="stroke:#181818;stroke-width:1;"/><path d="M829.9688,794.4375 Q829.3906,794.7344 828.75,794.875 Q828.1094,795.0313 827.4063,795.0313 Q824.9063,795.0313 823.5781,793.3906 Q822.2656,791.7344 822.2656,788.6094 Q822.2656,785.4844 823.5781,783.8281 Q824.9063,782.1719 827.4063,782.1719 Q828.1094,782.1719 828.75,782.3281 Q829.4063,782.4844 829.9688,782.7813 L829.9688,785.5 Q829.3438,784.9219 828.75,784.6563 Q828.1563,784.375 827.5313,784.375 Q826.1875,784.375 825.5,785.4531 Q824.8125,786.5156 824.8125,788.6094 Q824.8125,790.7031 825.5,791.7813 Q826.1875,792.8438 827.5313,792.8438 Q828.1563,792.8438 828.75,792.5781 Q829.3438,792.2969 829.9688,791.7188 L829.9688,794.4375 Z " fill="#000000"/><text fill="#000000" font-family="sans-serif" font-size="14" lengthAdjust="spacing" textLength="105.8613" x="841" y="793.6436">TargetStrategy</text><line style="stroke:#181818;stroke-width:0.5;" x1="813" x2="948.8613" y1="804.7969" y2="804.7969"/><line style="stroke:#181818;stroke-width:0.5;" x1="813" x2="948.8613" y1="812.7969" y2="812.7969"/></g><!--class StandStillStrategy--><g class="entity" data-entity="StandStillStrategy" data-source-line="54" data-uid="ent0029" id="entity_StandStillStrategy"><rect fill="#F1F1F1" height="48" rx="2.5" ry="2.5" style="stroke:#181818;stroke-width:0.5;" width="158.7451" x="617.5" y="772.7969"/><ellipse cx="632.5" cy="788.7969" fill="#ADD1B2" rx="11" ry="11" style="stroke:#181818;stroke-width:1;"/><path d="M635.4688,794.4375 Q634.8906,794.7344 634.25,794.875 Q633.6094,795.0313 632.9063,795.0313 Q630.4063,795.0313 629.0781,793.3906 Q627.7656,791.7344 627.7656,788.6094 Q627.7656,785.4844 629.0781,783.8281 Q630.4063,782.1719 632.9063,782.1719 Q633.6094,782.1719 634.25,782.3281 Q634.9063,782.4844 635.4688,782.7813 L635.4688,785.5 Q634.8438,784.9219 634.25,784.6563 Q633.6563,784.375 633.0313,784.375 Q631.6875,784.375 631,785.4531 Q630.3125,786.5156 630.3125,788.6094 Q630.3125,790.7031 631,791.7813 Q631.6875,792.8438 633.0313,792.8438 Q633.6563,792.8438 634.25,792.5781 Q634.8438,792.2969 635.4688,791.7188 L635.4688,794.4375 Z " fill="#000000"/><text fill="#000000" font-family="sans-serif" font-size="14" lengthAdjust="spacing" textLength="126.7451" x="646.5" y="793.6436">StandStillStrategy</text><line style="stroke:#181818;stroke-width:0.5;" x1="618.5" x2="775.2451" y1="804.7969" y2="804.7969"/><line style="stroke:#181818;stroke-width:0.5;" x1="618.5" x2="775.2451" y1="812.7969" y2="812.7969"/></g><!--class CalculationNode--><g class="entity" data-entity="CalculationNode" data-source-line="68" data-uid="ent0031" id="entity_CalculationNode"><rect fill="#F1F1F1" height="113.1875" rx="2.5" ry="2.5" style="stroke:#181818;stroke-width:0.5;" width="191.2861" x="866.5" y="360.2969"/><ellipse cx="901.5914" cy="376.2969" fill="#ADD1B2" rx="11" ry="11" style="stroke:#181818;stroke-width:1;"/><path d="M904.5601,381.9375 Q903.982,382.2344 903.3414,382.375 Q902.7007,382.5313 901.9976,382.5313 Q899.4976,382.5313 898.1695,380.8906 Q896.857,379.2344 896.857,376.1094 Q896.857,372.9844 898.1695,371.3281 Q899.4976,369.6719 901.9976,369.6719 Q902.7007,369.6719 903.3414,369.8281 Q903.9976,369.9844 904.5601,370.2813 L904.5601,373 Q903.9351,372.4219 903.3414,372.1563 Q902.7476,371.875 902.1226,371.875 Q900.7789,371.875 900.0914,372.9531 Q899.4039,374.0156 899.4039,376.1094 Q899.4039,378.2031 900.0914,379.2813 Q900.7789,380.3438 902.1226,380.3438 Q902.7476,380.3438 903.3414,380.0781 Q903.9351,379.7969 904.5601,379.2188 L904.5601,381.9375 Z " fill="#000000"/><text fill="#000000" font-family="sans-serif" font-size="14" lengthAdjust="spacing" textLength="114.6387" x="920.0561" y="381.1436">CalculationNode</text><line style="stroke:#181818;stroke-width:0.5;" x1="867.5" x2="1056.7861" y1="392.2969" y2="392.2969"/><polygon fill="none" points="877.5,400.9453,881.5,404.9453,877.5,408.9453,873.5,404.9453" style="stroke:#B38D22;stroke-width:1;"/><text fill="#000000" font-family="sans-serif" font-size="14" lengthAdjust="spacing" textLength="165.2861" x="886.5" y="409.292">CalculationNode parent</text><line style="stroke:#181818;stroke-width:0.5;" x1="867.5" x2="1056.7861" y1="416.5938" y2="416.5938"/><ellipse cx="877.5" cy="430.2422" fill="#84BE84" rx="3" ry="3" style="stroke:#038048;stroke-width:1;"/><text fill="#000000" font-family="sans-serif" font-size="14" lengthAdjust="spacing" textLength="162.7227" x="886.5" y="433.5889">T compute(Event[T], T)</text><polygon fill="#FFFF44" points="877.5,441.5391,881.5,445.5391,877.5,449.5391,873.5,445.5391" style="stroke:#B38D22;stroke-width:1;"/><text fill="#000000" font-family="sans-serif" font-size="14" lengthAdjust="spacing" textLength="160.1182" x="886.5" y="449.8857">void add(Event[T] → T)</text><ellipse cx="877.5" cy="462.8359" fill="#84BE84" rx="3" ry="3" style="stroke:#038048;stroke-width:1;"/><text fill="#000000" font-family="sans-serif" font-size="14" lengthAdjust="spacing" textLength="97.8906" x="886.5" y="466.1826">void destroy()</text></g><!--class Duration--><g class="entity" data-entity="Duration" data-source-line="75" data-uid="ent0032" id="entity_Duration"><rect fill="#F1F1F1" height="96.8906" rx="2.5" ry="2.5" style="stroke:#181818;stroke-width:0.5;" width="136.8311" x="999.5" y="566.2969"/><ellipse cx="1034.3114" cy="582.2969" fill="#ADD1B2" rx="11" ry="11" style="stroke:#181818;stroke-width:1;"/><path d="M1037.2802,587.9375 Q1036.7021,588.2344 1036.0614,588.375 Q1035.4208,588.5313 1034.7177,588.5313 Q1032.2177,588.5313 1030.8896,586.8906 Q1029.5771,585.2344 1029.5771,582.1094 Q1029.5771,578.9844 1030.8896,577.3281 Q1032.2177,575.6719 1034.7177,575.6719 Q1035.4208,575.6719 1036.0614,575.8281 Q1036.7177,575.9844 1037.2802,576.2813 L1037.2802,579 Q1036.6552,578.4219 1036.0614,578.1563 Q1035.4677,577.875 1034.8427,577.875 Q1033.4989,577.875 1032.8114,578.9531 Q1032.1239,580.0156 1032.1239,582.1094 Q1032.1239,584.2031 1032.8114,585.2813 Q1033.4989,586.3438 1034.8427,586.3438 Q1035.4677,586.3438 1036.0614,586.0781 Q1036.6552,585.7969 1037.2802,585.2188 L1037.2802,587.9375 Z " fill="#000000"/><text fill="#000000" font-family="sans-serif" font-size="14" lengthAdjust="spacing" textLength="60.8057" x="1052.714" y="587.1436">Duration</text><line style="stroke:#181818;stroke-width:0.5;" x1="1000.5" x2="1135.3311" y1="598.2969" y2="598.2969"/><text fill="#000000" font-family="sans-serif" font-size="14" lengthAdjust="spacing" textLength="110.8311" x="1019.5" y="615.292">destroys parent</text><text fill="#000000" font-family="sans-serif" font-size="14" lengthAdjust="spacing" textLength="100.4336" x="1019.5" y="631.5889">when runs out</text><rect fill="none" height="6" style="stroke:#C82930;stroke-width:1;" width="6" x="1007.5" y="641.5391"/><text fill="#000000" font-family="sans-serif" font-size="14" lengthAdjust="spacing" textLength="94.8145" x="1019.5" y="647.8857">float duration</text><line style="stroke:#181818;stroke-width:0.5;" x1="1000.5" x2="1135.3311" y1="655.1875" y2="655.1875"/></g><!--class EffectStun--><g class="entity" data-entity="EffectStun" data-source-line="82" data-uid="ent0034" id="entity_EffectStun"><rect fill="#F1F1F1" height="48" rx="2.5" ry="2.5" style="stroke:#181818;stroke-width:0.5;" width="104.625" x="859.5" y="590.7969"/><ellipse cx="874.5" cy="606.7969" fill="#ADD1B2" rx="11" ry="11" style="stroke:#181818;stroke-width:1;"/><path d="M877.4688,612.4375 Q876.8906,612.7344 876.25,612.875 Q875.6094,613.0313 874.9063,613.0313 Q872.4063,613.0313 871.0781,611.3906 Q869.7656,609.7344 869.7656,606.6094 Q869.7656,603.4844 871.0781,601.8281 Q872.4063,600.1719 874.9063,600.1719 Q875.6094,600.1719 876.25,600.3281 Q876.9063,600.4844 877.4688,600.7813 L877.4688,603.5 Q876.8438,602.9219 876.25,602.6563 Q875.6563,602.375 875.0313,602.375 Q873.6875,602.375 873,603.4531 Q872.3125,604.5156 872.3125,606.6094 Q872.3125,608.7031 873,609.7813 Q873.6875,610.8438 875.0313,610.8438 Q875.6563,610.8438 876.25,610.5781 Q876.8438,610.2969 877.4688,609.7188 L877.4688,612.4375 Z " fill="#000000"/><text fill="#000000" font-family="sans-serif" font-size="14" lengthAdjust="spacing" textLength="72.625" x="888.5" y="611.6436">EffectStun</text><line style="stroke:#181818;stroke-width:0.5;" x1="860.5" x2="963.125" y1="622.7969" y2="622.7969"/><line style="stroke:#181818;stroke-width:0.5;" x1="860.5" x2="963.125" y1="630.7969" y2="630.7969"/></g><!--class ArmorItem--><g class="entity" data-entity="ArmorItem" data-source-line="84" data-uid="ent0037" id="entity_ArmorItem"><rect fill="#F1F1F1" height="48" rx="2.5" ry="2.5" style="stroke:#181818;stroke-width:0.5;" width="107.1611" x="1171.5" y="590.7969"/><ellipse cx="1186.5" cy="606.7969" fill="#ADD1B2" rx="11" ry="11" style="stroke:#181818;stroke-width:1;"/><path d="M1189.4688,612.4375 Q1188.8906,612.7344 1188.25,612.875 Q1187.6094,613.0313 1186.9063,613.0313 Q1184.4063,613.0313 1183.0781,611.3906 Q1181.7656,609.7344 1181.7656,606.6094 Q1181.7656,603.4844 1183.0781,601.8281 Q1184.4063,600.1719 1186.9063,600.1719 Q1187.6094,600.1719 1188.25,600.3281 Q1188.9063,600.4844 1189.4688,600.7813 L1189.4688,603.5 Q1188.8438,602.9219 1188.25,602.6563 Q1187.6563,602.375 1187.0313,602.375 Q1185.6875,602.375 1185,603.4531 Q1184.3125,604.5156 1184.3125,606.6094 Q1184.3125,608.7031 1185,609.7813 Q1185.6875,610.8438 1187.0313,610.8438 Q1187.6563,610.8438 1188.25,610.5781 Q1188.8438,610.2969 1189.4688,609.7188 L1189.4688,612.4375 Z " fill="#000000"/><text fill="#000000" font-family="sans-serif" font-size="14" lengthAdjust="spacing" textLength="75.1611" x="1200.5" y="611.6436">ArmorItem</text><line style="stroke:#181818;stroke-width:0.5;" x1="1172.5" x2="1277.6611" y1="622.7969" y2="622.7969"/><line style="stroke:#181818;stroke-width:0.5;" x1="1172.5" x2="1277.6611" y1="630.7969" y2="630.7969"/></g><!--class Maze--><g class="entity" data-entity="Maze" data-source-line="89" data-uid="ent0041" id="entity_Maze"><rect fill="#F1F1F1" height="48" rx="2.5" ry="2.5" style="stroke:#181818;stroke-width:0.5;" width="68.6201" x="968.5" y="60.7969"/><ellipse cx="983.5" cy="76.7969" fill="#ADD1B2" rx="11" ry="11" style="stroke:#181818;stroke-width:1;"/><path d="M986.4688,82.4375 Q985.8906,82.7344 985.25,82.875 Q984.6094,83.0313 983.9063,83.0313 Q981.4063,83.0313 980.0781,81.3906 Q978.7656,79.7344 978.7656,76.6094 Q978.7656,73.4844 980.0781,71.8281 Q981.4063,70.1719 983.9063,70.1719 Q984.6094,70.1719 985.25,70.3281 Q985.9063,70.4844 986.4688,70.7813 L986.4688,73.5 Q985.8438,72.9219 985.25,72.6563 Q984.6563,72.375 984.0313,72.375 Q982.6875,72.375 982,73.4531 Q981.3125,74.5156 981.3125,76.6094 Q981.3125,78.7031 982,79.7813 Q982.6875,80.8438 984.0313,80.8438 Q984.6563,80.8438 985.25,80.5781 Q985.8438,80.2969 986.4688,79.7188 L986.4688,82.4375 Z " fill="#000000"/><text fill="#000000" font-family="sans-serif" font-size="14" lengthAdjust="spacing" textLength="36.6201" x="997.5" y="81.6436">Maze</text><line style="stroke:#181818;stroke-width:0.5;" x1="969.5" x2="1036.1201" y1="92.7969" y2="92.7969"/><line style="stroke:#181818;stroke-width:0.5;" x1="969.5" x2="1036.1201" y1="100.7969" y2="100.7969"/></g><!--class Cell--><g class="entity" data-entity="Cell" data-source-line="90" data-uid="ent0043" id="entity_Cell"><rect fill="#F1F1F1" height="48" rx="2.5" ry="2.5" style="stroke:#181818;stroke-width:0.5;" width="58.168" x="974" y="226.7969"/><ellipse cx="989" cy="242.7969" fill="#ADD1B2" rx="11" ry="11" style="stroke:#181818;stroke-width:1;"/><path d="M991.9688,248.4375 Q991.3906,248.7344 990.75,248.875 Q990.1094,249.0313 989.4063,249.0313 Q986.9063,249.0313 985.5781,247.3906 Q984.2656,245.7344 984.2656,242.6094 Q984.2656,239.4844 985.5781,237.8281 Q986.9063,236.1719 989.4063,236.1719 Q990.1094,236.1719 990.75,236.3281 Q991.4063,236.4844 991.9688,236.7813 L991.9688,239.5 Q991.3438,238.9219 990.75,238.6563 Q990.1563,238.375 989.5313,238.375 Q988.1875,238.375 987.5,239.4531 Q986.8125,240.5156 986.8125,242.6094 Q986.8125,244.7031 987.5,245.7813 Q988.1875,246.8438 989.5313,246.8438 Q990.1563,246.8438 990.75,246.5781 Q991.3438,246.2969 991.9688,245.7188 L991.9688,248.4375 Z " fill="#000000"/><text fill="#000000" font-family="sans-serif" font-size="14" lengthAdjust="spacing" textLength="26.168" x="1003" y="247.6436">Cell</text><line style="stroke:#181818;stroke-width:0.5;" x1="975" x2="1031.168" y1="258.7969" y2="258.7969"/><line style="stroke:#181818;stroke-width:0.5;" x1="975" x2="1031.168" y1="266.7969" y2="266.7969"/></g><!--class LevelManager--><g class="entity" data-entity="LevelManager" data-source-line="92" data-uid="ent0045" id="entity_LevelManager"><rect fill="#F1F1F1" height="48" rx="2.5" ry="2.5" style="stroke:#181818;stroke-width:0.5;" width="130.5674" x="644.5" y="60.7969"/><ellipse cx="659.5" cy="76.7969" fill="#ADD1B2" rx="11" ry="11" style="stroke:#181818;stroke-width:1;"/><path d="M662.4688,82.4375 Q661.8906,82.7344 661.25,82.875 Q660.6094,83.0313 659.9063,83.0313 Q657.4063,83.0313 656.0781,81.3906 Q654.7656,79.7344 654.7656,76.6094 Q654.7656,73.4844 656.0781,71.8281 Q657.4063,70.1719 659.9063,70.1719 Q660.6094,70.1719 661.25,70.3281 Q661.9063,70.4844 662.4688,70.7813 L662.4688,73.5 Q661.8438,72.9219 661.25,72.6563 Q660.6563,72.375 660.0313,72.375 Q658.6875,72.375 658,73.4531 Q657.3125,74.5156 657.3125,76.6094 Q657.3125,78.7031 658,79.7813 Q658.6875,80.8438 660.0313,80.8438 Q660.6563,80.8438 661.25,80.5781 Q661.8438,80.2969 662.4688,79.7188 L662.4688,82.4375 Z " fill="#000000"/><text fill="#000000" font-family="sans-serif" font-size="14" lengthAdjust="spacing" textLength="98.5674" x="673.5" y="81.6436">LevelManager</text><line style="stroke:#181818;stroke-width:0.5;" x1="645.5" x2="774.0674" y1="92.7969" y2="92.7969"/><line style="stroke:#181818;stroke-width:0.5;" x1="645.5" x2="774.0674" y1="100.7969" y2="100.7969"/></g><!--class LevelFactory--><g class="entity" data-entity="LevelFactory" data-source-line="93" data-uid="ent0047" id="entity_LevelFactory"><rect fill="#F1F1F1" height="48" rx="2.5" ry="2.5" style="stroke:#181818;stroke-width:0.5;" width="121.626" x="487" y="60.7969"/><ellipse cx="502" cy="76.7969" fill="#ADD1B2" rx="11" ry="11" style="stroke:#181818;stroke-width:1;"/><path d="M504.9688,82.4375 Q504.3906,82.7344 503.75,82.875 Q503.1094,83.0313 502.4063,83.0313 Q499.9063,83.0313 498.5781,81.3906 Q497.2656,79.7344 497.2656,76.6094 Q497.2656,73.4844 498.5781,71.8281 Q499.9063,70.1719 502.4063,70.1719 Q503.1094,70.1719 503.75,70.3281 Q504.4063,70.4844 504.9688,70.7813 L504.9688,73.5 Q504.3438,72.9219 503.75,72.6563 Q503.1563,72.375 502.5313,72.375 Q501.1875,72.375 500.5,73.4531 Q499.8125,74.5156 499.8125,76.6094 Q499.8125,78.7031 500.5,79.7813 Q501.1875,80.8438 502.5313,80.8438 Q503.1563,80.8438 503.75,80.5781 Q504.3438,80.2969 504.9688,79.7188 L504.9688,82.4375 Z " fill="#000000"/><text fill="#000000" font-family="sans-serif" font-size="14" lengthAdjust="spacing" textLength="89.626" x="516" y="81.6436">LevelFactory</text><line style="stroke:#181818;stroke-width:0.5;" x1="488" x2="607.626" y1="92.7969" y2="92.7969"/><line style="stroke:#181818;stroke-width:0.5;" x1="488" x2="607.626" y1="100.7969" y2="100.7969"/></g><!--class MobFactory--><g class="entity" data-entity="MobFactory" data-source-line="94" data-uid="ent0050" id="entity_MobFactory"><rect fill="#F1F1F1" height="80.5938" rx="2.5" ry="2.5" style="stroke:#181818;stroke-width:0.5;" width="177.334" x="274.5" y="44.2969"/><ellipse cx="318.0201" cy="60.2969" fill="#A9DCDF" rx="11" ry="11" style="stroke:#181818;stroke-width:1;"/><path d="M318.1294,55.6406 L316.9732,60.7188 L319.3013,60.7188 L318.1294,55.6406 Z M316.6451,53.4063 L319.6294,53.4063 L322.9888,65.7969 L320.5357,65.7969 L319.7701,62.7344 L316.4888,62.7344 L315.7388,65.7969 L313.3013,65.7969 L316.6451,53.4063 Z " fill="#000000"/><text fill="#000000" font-family="sans-serif" font-size="14" font-style="italic" lengthAdjust="spacing" textLength="81.9561" x="338.3579" y="65.1436">MobFactory</text><line style="stroke:#181818;stroke-width:0.5;" x1="275.5" x2="450.834" y1="76.2969" y2="76.2969"/><rect fill="none" height="6" style="stroke:#C82930;stroke-width:1;" width="6" x="282.5" y="86.9453"/><text fill="#000000" font-family="sans-serif" font-size="14" lengthAdjust="spacing" textLength="112.5811" x="294.5" y="93.292">int max_spawns</text><line style="stroke:#181818;stroke-width:0.5;" x1="275.5" x2="450.834" y1="100.5938" y2="100.5938"/><ellipse cx="285.5" cy="114.2422" fill="#84BE84" rx="3" ry="3" style="stroke:#038048;stroke-width:1;"/><text fill="#000000" font-family="sans-serif" font-size="14" lengthAdjust="spacing" textLength="151.334" x="294.5" y="117.5889">void spawn(int index)</text></g><!--link Character to Command--><g class="link" data-entity-1="Character" data-entity-2="Command" data-source-line="21" data-uid="lnk5" id="link_Character_Command"><path codeLine="21" d="M462.68,299.4869 C373.04,347.9969 250.09,432.7569 204,550.2969 C175.6,622.7269 184.1832,710.7353 192.0132,758.6953" fill="none" id="Character-to-Command" style="stroke:#181818;stroke-width:1;"/><polygon fill="#181818" points="192.98,764.6169,195.4776,755.09,192.1744,759.6822,187.5821,756.379,192.98,764.6169" style="stroke:#181818;stroke-width:1;"/><text fill="#000000" font-family="sans-serif" font-size="13" lengthAdjust="spacing" textLength="29.7832" x="228" y="516.3638">uses</text></g><!--link CommandBuilder to Command--><g class="link" data-entity-1="CommandBuilder" data-entity-2="Command" data-source-line="23" data-uid="lnk6" id="link_CommandBuilder_Command"><path codeLine="23" d="M262.96,679.5069 C247.05,708.4369 231.8523,736.07 218.9723,759.48" fill="none" id="CommandBuilder-to-Command" style="stroke:#181818;stroke-width:1;"/><polygon fill="#181818" points="216.08,764.7369,223.923,758.7798,218.4902,760.3562,216.9139,754.9234,216.08,764.7369" style="stroke:#181818;stroke-width:1;"/><text fill="#000000" font-family="sans-serif" font-size="13" lengthAdjust="spacing" textLength="48.3247" x="247" y="722.3638">creates</text></g><!--reverse link Player to CommandBuilder--><g class="link" data-entity-1="Player" data-entity-2="CommandBuilder" data-source-line="25" data-uid="lnk8" id="link_Player_CommandBuilder"><path codeLine="25" d="M436.4632,457.8307 C412.4132,484.9207 384.72,516.1169 354.61,550.0269" fill="none" id="Player-backto-CommandBuilder" style="stroke:#181818;stroke-width:1;"/><polygon fill="#181818" points="444.43,448.8569,437.4553,450.6882,436.4632,457.8307,443.4379,455.9994,444.43,448.8569" style="stroke:#181818;stroke-width:1;"/><text fill="#000000" font-family="sans-serif" font-size="13" lengthAdjust="spacing" textLength="36.5625" x="397" y="516.3638">many</text></g><!--link Node to Character--><g class="link" data-entity-1="Node" data-entity-2="Character" data-source-line="32" data-uid="lnk11" id="link_Node_Character"><path codeLine="32" d="M387.27,250.7969 C398.95,250.7969 398.64,250.7969 410.33,250.7969" fill="none" id="Node-to-Character" style="stroke:#181818;stroke-width:1;"/><polygon fill="#181818" points="422.33,250.7969,416.33,246.7969,410.33,250.7969,416.33,254.7969,422.33,250.7969" style="stroke:#181818;stroke-width:1;"/></g><!--reverse link Environment to Character--><g class="link" data-entity-1="Environment" data-entity-2="Character" data-source-line="34" data-uid="lnk13" id="link_Environment_Character"><path codeLine="34" d="M818.0848,114.5995 C772.9548,138.6995 711.58,171.4969 654.22,202.1369" fill="none" id="Environment-backto-Character" style="stroke:#181818;stroke-width:1;"/><polygon fill="#181818" points="828.67,108.9469,821.4932,108.2448,818.0848,114.5995,825.2616,115.3016,828.67,108.9469" style="stroke:#181818;stroke-width:1;"/><text fill="#000000" font-family="sans-serif" font-size="13" lengthAdjust="spacing" textLength="36.5625" x="738" y="168.3638">many</text></g><!--reverse link Command to MovementCommand--><g class="link" data-entity-1="Command" data-entity-2="MovementCommand" data-source-line="41" data-uid="lnk16" id="link_Command_MovementCommand"><path codeLine="41" d="M161.4816,842.7806 C143.6016,864.2206 131.76,878.4169 115.48,897.9369" fill="none" id="Command-backto-MovementCommand" style="stroke:#181818;stroke-width:1;"/><polygon fill="none" points="173.01,828.9569,156.8737,838.9378,166.0895,846.6234,173.01,828.9569" style="stroke:#181818;stroke-width:1;"/></g><!--reverse link Command to RotationCommand--><g class="link" data-entity-1="Command" data-entity-2="RotationCommand" data-source-line="42" data-uid="lnk18" id="link_Command_RotationCommand"><path codeLine="42" d="M236.5184,842.7806 C254.3984,864.2206 266.24,878.4169 282.52,897.9369" fill="none" id="Command-backto-RotationCommand" style="stroke:#181818;stroke-width:1;"/><polygon fill="none" points="224.99,828.9569,231.9105,846.6234,241.1263,838.9378,224.99,828.9569" style="stroke:#181818;stroke-width:1;"/></g><!--reverse link Character to Mob--><g class="link" data-entity-1="Character" data-entity-2="Mob" data-source-line="48" data-uid="lnk20" id="link_Character_Mob"><path codeLine="48" d="M601.0293,315.3344 C618.3993,345.9644 631.28,368.6669 644.91,392.7169" fill="none" id="Character-backto-Mob" style="stroke:#181818;stroke-width:1;"/><polygon fill="none" points="592.15,299.6769,595.8101,318.2942,606.2484,312.3747,592.15,299.6769" style="stroke:#181818;stroke-width:1;"/></g><!--reverse link Mob to MovementStrategy--><g class="link" data-entity-1="Mob" data-entity-2="MovementStrategy" data-source-line="49" data-uid="lnk21" id="link_Mob_MovementStrategy"><path codeLine="49" d="M664.9689,452.8167 C671.4789,485.5767 681.12,533.9769 689.07,573.9469" fill="none" id="Mob-backto-MovementStrategy" style="stroke:#181818;stroke-width:1;"/><polygon fill="#181818" points="662.63,441.0469,659.8762,447.7114,664.9689,452.8167,667.7227,446.1522,662.63,441.0469" style="stroke:#181818;stroke-width:1;"/></g><!--reverse link Character to Player--><g class="link" data-entity-1="Character" data-entity-2="Player" data-source-line="50" data-uid="lnk22" id="link_Character_Player"><path codeLine="50" d="M528.9681,315.3329 C513.4181,342.7429 503.24,360.7069 489.64,384.6969" fill="none" id="Character-backto-Player" style="stroke:#181818;stroke-width:1;"/><polygon fill="none" points="537.85,299.6769,523.7494,312.3723,534.1868,318.2936,537.85,299.6769" style="stroke:#181818;stroke-width:1;"/></g><!--reverse link Player to Inventory--><g class="link" data-entity-1="Player" data-entity-2="Inventory" data-source-line="51" data-uid="lnk24" id="link_Player_Inventory"><path codeLine="51" d="M472,460.8569 C472,490.1069 472,522.5969 472,558.0069" fill="none" id="Player-backto-Inventory" style="stroke:#181818;stroke-width:1;"/><polygon fill="#181818" points="472,448.8569,468,454.8569,472,460.8569,476,454.8569,472,448.8569" style="stroke:#181818;stroke-width:1;"/></g><!--reverse link Inventory to InventoryItem--><g class="link" data-entity-1="Inventory" data-entity-2="InventoryItem" data-source-line="52" data-uid="lnk26" id="link_Inventory_InventoryItem"><path codeLine="52" d="M469.7308,683.7602 C468.8208,711.1002 468.15,731.3769 467.32,756.1469" fill="none" id="Inventory-backto-InventoryItem" style="stroke:#181818;stroke-width:1;"/><polygon fill="#181818" points="470.13,671.7669,465.9326,677.6305,469.7308,683.7602,473.9282,677.8966,470.13,671.7669" style="stroke:#181818;stroke-width:1;"/><text fill="#000000" font-family="sans-serif" font-size="13" lengthAdjust="spacing" textLength="36.5625" x="470" y="722.3638">many</text></g><!--reverse link MovementStrategy to TargetStrategy--><g class="link" data-entity-1="MovementStrategy" data-entity-2="TargetStrategy" data-source-line="53" data-uid="lnk28" id="link_MovementStrategy_TargetStrategy"><path codeLine="53" d="M750.2474,667.8838 C786.9574,703.7938 827.01,742.9769 857.3,772.6169" fill="none" id="MovementStrategy-backto-TargetStrategy" style="stroke:#181818;stroke-width:1;"/><polygon fill="none" points="737.38,655.2969,746.0517,672.1729,754.443,663.5947,737.38,655.2969" style="stroke:#181818;stroke-width:1;"/></g><!--reverse link MovementStrategy to StandStillStrategy--><g class="link" data-entity-1="MovementStrategy" data-entity-2="StandStillStrategy" data-source-line="54" data-uid="lnk30" id="link_MovementStrategy_StandStillStrategy"><path codeLine="54" d="M697,673.2969 C697,709.2069 697,742.9769 697,772.6169" fill="none" id="MovementStrategy-backto-StandStillStrategy" style="stroke:#181818;stroke-width:1;"/><polygon fill="none" points="697,655.2969,691,673.2969,703,673.2969,697,655.2969" style="stroke:#181818;stroke-width:1;"/></g><!--reverse link CalculationNode to Duration--><g class="link" data-entity-1="CalculationNode" data-entity-2="Duration" data-source-line="81" data-uid="lnk33" id="link_CalculationNode_Duration"><path codeLine="81" d="M1000.6519,489.2702 C1016.4419,518.4702 1027.03,538.0469 1042.15,565.9969" fill="none" id="CalculationNode-backto-Duration" style="stroke:#181818;stroke-width:1;"/><polygon fill="none" points="992.09,473.4369,995.3741,492.1242,1005.9297,486.4162,992.09,473.4369" style="stroke:#181818;stroke-width:1;"/></g><!--reverse link CalculationNode to EffectStun--><g class="link" data-entity-1="CalculationNode" data-entity-2="EffectStun" data-source-line="82" data-uid="lnk35" id="link_CalculationNode_EffectStun"><path codeLine="82" d="M943.3577,490.8776 C933.4477,529.6976 925.2,562.0569 917.89,590.7069" fill="none" id="CalculationNode-backto-EffectStun" style="stroke:#181818;stroke-width:1;"/><polygon fill="none" points="947.81,473.4369,937.5442,489.3935,949.1713,492.3616,947.81,473.4369" style="stroke:#181818;stroke-width:1;"/></g><!--reverse link EffectStun to Duration--><g class="link" data-entity-1="EffectStun" data-entity-2="Duration" data-source-line="83" data-uid="lnk36" id="link_EffectStun_Duration"><path codeLine="83" d="M976.71,614.7969 C988.28,614.7969 987.84,614.7969 999.41,614.7969" fill="none" id="EffectStun-backto-Duration" style="stroke:#181818;stroke-width:1;"/><polygon fill="#181818" points="964.71,614.7969,970.71,618.7969,976.71,614.7969,970.71,610.7969,964.71,614.7969" style="stroke:#181818;stroke-width:1;"/></g><!--reverse link CalculationNode to ArmorItem--><g class="link" data-entity-1="CalculationNode" data-entity-2="ArmorItem" data-source-line="84" data-uid="lnk38" id="link_CalculationNode_ArmorItem"><path codeLine="84" d="M1062.6687,483.6931 C1096.4587,506.5531 1120.27,523.7469 1154,550.2969 C1170.11,562.9769 1187.27,578.2769 1200.69,590.6769" fill="none" id="CalculationNode-backto-ArmorItem" style="stroke:#181818;stroke-width:1;"/><polygon fill="none" points="1047.76,473.6069,1059.3066,488.6626,1066.0307,478.7235,1047.76,473.6069" style="stroke:#181818;stroke-width:1;"/></g><!--reverse link Character to CalculationNode--><g class="link" data-entity-1="Character" data-entity-2="CalculationNode" data-source-line="86" data-uid="lnk39" id="link_Character_CalculationNode"><path codeLine="86" d="M691.191,303.9282 C750.261,328.3282 810.29,353.1269 866.32,376.2669" fill="none" id="Character-backto-CalculationNode" style="stroke:#181818;stroke-width:1;"/><polygon fill="#181818" points="680.1,299.3469,684.1184,305.3346,691.191,303.9282,687.1726,297.9405,680.1,299.3469" style="stroke:#181818;stroke-width:1;"/></g><!--reverse link CalculationNode to CalculationNode--><g class="link" data-entity-1="CalculationNode" data-entity-2="CalculationNode" data-source-line="87" data-uid="lnk40" id="link_CalculationNode_CalculationNode"><path codeLine="87" d="M1069.5637,402.1299 C1089.8237,403.7099 1092.5,407.9769 1092.5,416.7969 C1092.5,425.6169 1077.86,430.8169 1057.6,432.3969" fill="none" id="CalculationNode-backto-CalculationNode" style="stroke:#181818;stroke-width:1;"/><polygon fill="#181818" points="1057.6,401.1969,1063.2708,405.6513,1069.5637,402.1299,1063.8928,397.6755,1057.6,401.1969" style="stroke:#181818;stroke-width:1;"/><text fill="#000000" font-family="sans-serif" font-size="13" lengthAdjust="spacing" textLength="110.2334" x="1098.5" y="421.3638">children, 0-many</text></g><!--reverse link Environment to Maze--><g class="link" data-entity-1="Environment" data-entity-2="Maze" data-source-line="89" data-uid="lnk42" id="link_Environment_Maze"><path codeLine="89" d="M945.15,84.7969 C956.88,84.7969 956.62,84.7969 968.35,84.7969" fill="none" id="Environment-backto-Maze" style="stroke:#181818;stroke-width:1;"/><polygon fill="#181818" points="933.15,84.7969,939.15,88.7969,945.15,84.7969,939.15,80.7969,933.15,84.7969" style="stroke:#181818;stroke-width:1;"/></g><!--reverse link Maze to Cell--><g class="link" data-entity-1="Maze" data-entity-2="Cell" data-source-line="90" data-uid="lnk44" id="link_Maze_Cell"><path codeLine="90" d="M1003,120.9469 C1003,152.2069 1003,195.5669 1003,226.7669" fill="none" id="Maze-backto-Cell" style="stroke:#181818;stroke-width:1;"/><polygon fill="#181818" points="1003,108.9469,999,114.9469,1003,120.9469,1007,114.9469,1003,108.9469" style="stroke:#181818;stroke-width:1;"/><text fill="#000000" font-family="sans-serif" font-size="13" lengthAdjust="spacing" textLength="36.5625" x="1004" y="168.3638">many</text></g><!--reverse link LevelManager to Environment--><g class="link" data-entity-1="LevelManager" data-entity-2="Environment" data-source-line="92" data-uid="lnk46" id="link_LevelManager_Environment"><path codeLine="92" d="M787.81,84.7969 C799.46,84.7969 799.11,84.7969 810.76,84.7969" fill="none" id="LevelManager-backto-Environment" style="stroke:#181818;stroke-width:1;"/><polygon fill="#181818" points="775.81,84.7969,781.81,88.7969,787.81,84.7969,781.81,80.7969,775.81,84.7969" style="stroke:#181818;stroke-width:1;"/></g><!--link LevelFactory to LevelManager--><g class="link" data-entity-1="LevelFactory" data-entity-2="LevelManager" data-source-line="93" data-uid="lnk49" id="link_LevelFactory_LevelManager"><path codeLine="93" d="M609.07,84.7969 C620.76,84.7969 620.46,84.7969 632.16,84.7969" fill="none" id="LevelFactory-to-LevelManager" style="stroke:#181818;stroke-width:1;"/><polygon fill="#181818" points="644.16,84.7969,638.16,80.7969,632.16,84.7969,638.16,88.7969,644.16,84.7969" style="stroke:#181818;stroke-width:1;"/></g><!--link MobFactory to LevelFactory--><g class="link" data-entity-1="MobFactory" data-entity-2="LevelFactory" data-source-line="94" data-uid="lnk52" id="link_MobFactory_LevelFactory"><path codeLine="94" d="M451.53,84.7969 C463.33,84.7969 463.14,84.7969 474.95,84.7969" fill="none" id="MobFactory-to-LevelFactory" style="stroke:#181818;stroke-width:1;"/><polygon fill="#181818" points="486.95,84.7969,480.95,80.7969,474.95,84.7969,480.95,88.7969,486.95,84.7969" style="stroke:#181818;stroke-width:1;"/></g><!--link MobFactory to Character--><g class="link" data-entity-1="MobFactory" data-entity-2="Character" data-source-line="101" data-uid="lnk53" id="link_MobFactory_Character"><path codeLine="101" d="M411.9,125.4969 C440.39,148.6269 471.8428,174.154 501.8328,198.514" fill="none" id="MobFactory-to-Character" style="stroke:#181818;stroke-width:1;"/><polygon fill="#181818" points="506.49,202.2969,502.0261,193.5177,502.609,199.1444,496.9822,199.7273,506.49,202.2969" style="stroke:#181818;stroke-width:1;"/><text fill="#000000" font-family="sans-serif" font-size="13" lengthAdjust="spacing" textLength="48.3247" x="465" y="168.3638">creates</text></g><!--SRC=[XLHVQzim47_tfpZeYzD6CDXR6OCkwqRPMiOQHg2KejYNH4oMF5bEuhLztGVOHzmdsKcM7Dlfs4E2Jx-xt_q_Awn4cA6KC3Dy9z40Wu-ym5Bo9aaooQiAPXjkU6O9Uqm0pjBzj9c0mhrzoCYGH6Wc1B1SPFQkicOACrqKNENtaBKV5S4d5P91AwTzBNY26wrmaZnt3WFWtPbQfJSwHzBdCdDVnvhlQY7p4D_5aiWfN10A5Ywi1VpvzJjgEaQUv-bYuhcnq5iCGlIwT6IfTtB8dB6taU8SwWeh0eU-1ngPGMwTqXUg8u6dZ8rYFGSIkXAxj7pqeYWbB1km6mHKQw7GXVODizUmflgLkXf7TieahYpp54bogRR2Q5MWieJaUgVOeN_H9uybQfrVKmsSmIqzMbmt_sxpb0X-eczsh5R1lsFNrdOKdhlQm9idIZponnOCmA_QSYkqYc0eIAYRYuJHuDnzmcOft4HHs6ABmn84Byk4VhxKuup6kYrxlpbNQalwsZH9zpLylx9OXFeTrSjpphcX3dKUNrQwjPJZhHLITeeXuOFRnpYZWbpsnxIJyKSjohIkHUx5MlKVdeyONUWjgzkWMlfw-udpTYxAr1Fvjrga_GKRMJYQa_5ZoGrnE8Qvs_YojfXUEkTty_ifp1ttoLQB75nM4V1RwR4pZ-L8GwcRllFtjV5ElDU0LmTlkmqgeFDGWQwTp5PISmjviF8pCehKDo7IlenUhbQOKTjgbHm-QHQCM6_i_umlJA6Dg_TmGzcuZaVMB-ZG5TdGgQ1af_2AjPixNEyGqZNjPEB-MXPQrhZedt6ByfehllPX1FqUoLYZFIN-yGC5x_QXBtGQj6WHFxuc4MgtLr2e1Ty_L2NVgQfhjnTJ1z9QuzvtlMVgh-dXReLx-XS0]--></g></svg>