<svg xmlns="http://www.w3.org/2000/svg" xmlns:xlink="http://www.w3.org/1999/xlink" contentStyleType="text/css" data-diagram-type="CLASS" height="953px" preserveAspectRatio="none" style="width:1288px;height:953px;background:#FFFFFF;" version="1.1" viewBox="0 0 1288 953" width="1288px" zoomAndPan="magnify"><title>Cell Crawler - Gameplay</title><defs/><g><text fill="#000000" font-family="sans-serif" font-size="14" font-weight="bold" lengthAdjust="spacing" textLength="188.9727" x="542.8442" y="22.9951">Cell Crawler - Gameplay</text><!--class Character--><g class="entity" data-entity="Character" data-source-line="3" data-uid="ent0002" id="entity_Character"><rect fill="#F1F1F1" height="96.8906" rx="2.5" ry="2.5" style="stroke:#181818;stroke-width:0.5;" width="284.7334" x="419.5" y="202.2969"/><ellipse cx="523.0576" cy="218.2969" fill="#ADD1B2" rx="11" ry="11" style="stroke:#181818;stroke-width:1;"/><path d="M526.0264,223.9375 Q525.4482,224.2344 524.8076,224.375 Q524.167,224.5313 523.4639,224.5313 Q520.9639,224.5313 519.6357,222.8906 Q518.3232,221.2344 518.3232,218.1094 Q518.3232,214.9844 519.6357,213.3281 Q520.9639,211.6719 523.4639,211.6719 Q524.167,211.6719 524.8076,211.8281 Q525.4639,211.9844 526.0264,212.2813 L526.0264,215 Q525.4014,214.4219 524.8076,214.1563 Q524.2139,213.875 523.5889,213.875 Q522.2451,213.875 521.5576,214.9531 Q520.8701,216.0156 520.8701,218.1094 Q520.8701,220.2031 521.5576,221.2813 Q522.2451,222.3438 523.5889,222.3438 Q524.2139,222.3438 524.8076,222.0781 Q525.4014,221.7969 526.0264,221.2188 L526.0264,223.9375 Z " fill="#000000"/><text fill="#000000" font-family="sans-serif" font-size="14" lengthAdjust="spacing" textLength="69.1182" x="543.5576" y="223.1436">Character</text><line style="stroke:#181818;stroke-width:0.5;" x1="420.5" x2="703.2334" y1="234.2969" y2="234.2969"/><rect fill="none" height="6" style="stroke:#C82930;stroke-width:1;" width="6" x="427.5" y="244.9453"/><text fill="#000000" font-family="sans-serif" font-size="14" lengthAdjust="spacing" textLength="217.9023" x="439.5" y="251.292">dict[str, Command] commands</text><line style="stroke:#181818;stroke-width:0.5;" x1="420.5" x2="703.2334" y1="258.5938" y2="258.5938"/><ellipse cx="430.5" cy="272.2422" fill="#84BE84" rx="3" ry="3" style="stroke:#038048;stroke-width:1;"/><text fill="#000000" font-family="sans-serif" font-size="14" lengthAdjust="spacing" textLength="135.1396" x="439.5" y="275.5889">(x,y) next_cell(x, y)</text><polygon fill="#FFFF44" points="430.5,283.5391,434.5,287.5391,430.5,291.5391,426.5,287.5391" style="stroke:#B38D22;stroke-width:1;"/><text fill="#000000" font-family="sans-serif" font-size="14" lengthAdjust="spacing" textLength="258.7334" x="439.5" y="291.8857">set_command(str, Command | None)</text></g><!--class Command--><g class="entity" data-entity="Command" data-source-line="9" data-uid="ent0003" id="entity_Command"><rect fill="#F1F1F1" height="64.2969" rx="2.5" ry="2.5" style="stroke:#181818;stroke-width:0.5;" width="172.3438" x="113" y="764.7969"/><ellipse cx="158.9443" cy="780.7969" fill="#ADD1B2" rx="11" ry="11" style="stroke:#181818;stroke-width:1;"/><path d="M161.9131,786.4375 Q161.335,786.7344 160.6943,786.875 Q160.0537,787.0313 159.3506,787.0313 Q156.8506,787.0313 155.5225,785.3906 Q154.21,783.7344 154.21,780.6094 Q154.21,777.4844 155.5225,775.8281 Q156.8506,774.1719 159.3506,774.1719 Q160.0537,774.1719 160.6943,774.3281 Q161.3506,774.4844 161.9131,774.7813 L161.9131,777.5 Q161.2881,776.9219 160.6943,776.6563 Q160.1006,776.375 159.4756,776.375 Q158.1318,776.375 157.4443,777.4531 Q156.7568,778.5156 156.7568,780.6094 Q156.7568,782.7031 157.4443,783.7813 Q158.1318,784.8438 159.4756,784.8438 Q160.1006,784.8438 160.6943,784.5781 Q161.2881,784.2969 161.9131,783.7188 L161.9131,786.4375 Z " fill="#000000"/><text fill="#000000" font-family="sans-serif" font-size="14" lengthAdjust="spacing" textLength="71.9551" x="179.4443" y="785.6436">Command</text><line style="stroke:#181818;stroke-width:0.5;" x1="114" x2="284.3438" y1="796.7969" y2="796.7969"/><line style="stroke:#181818;stroke-width:0.5;" x1="114" x2="284.3438" y1="804.7969" y2="804.7969"/><ellipse cx="124" cy="818.4453" fill="#84BE84" rx="3" ry="3" style="stroke:#038048;stroke-width:1;"/><text fill="#000000" font-family="sans-serif" font-size="14" lengthAdjust="spacing" textLength="146.3438" x="133" y="821.792">run(Node, CalcNode)</text></g><!--class CommandBuilder--><g class="entity" data-entity="CommandBuilder" data-source-line="13" data-uid="ent0004" id="entity_CommandBuilder"><rect fill="#F1F1F1" height="129.4844" rx="2.5" ry="2.5" style="stroke:#181818;stroke-width:0.5;" width="159.6631" x="218" y="550.2969"/><ellipse cx="235.7879" cy="566.2969" fill="#ADD1B2" rx="11" ry="11" style="stroke:#181818;stroke-width:1;"/><path d="M238.7566,571.9375 Q238.1785,572.2344 237.5379,572.375 Q236.8973,572.5313 236.1941,572.5313 Q233.6941,572.5313 232.366,570.8906 Q231.0535,569.2344 231.0535,566.1094 Q231.0535,562.9844 232.366,561.3281 Q233.6941,559.6719 236.1941,559.6719 Q236.8973,559.6719 237.5379,559.8281 Q238.1941,559.9844 238.7566,560.2813 L238.7566,563 Q238.1316,562.4219 237.5379,562.1563 Q236.9441,561.875 236.3191,561.875 Q234.9754,561.875 234.2879,562.9531 Q233.6004,564.0156 233.6004,566.1094 Q233.6004,568.2031 234.2879,569.2813 Q234.9754,570.3438 236.3191,570.3438 Q236.9441,570.3438 237.5379,570.0781 Q238.1316,569.7969 238.7566,569.2188 L238.7566,571.9375 Z " fill="#000000"/><text fill="#000000" font-family="sans-serif" font-size="14" lengthAdjust="spacing" textLength="121.4678" x="250.4074" y="571.1436">CommandBuilder</text><line style="stroke:#181818;stroke-width:0.5;" x1="219" x2="376.6631" y1="582.2969" y2="582.2969"/><text fill="#000000" font-family="sans-serif" font-size="14" lengthAdjust="spacing" textLength="90.0225" x="238" y="599.292">Abstract in X</text><rect fill="none" height="6" style="stroke:#C82930;stroke-width:1;" width="6" x="226" y="609.2422"/><text fill="#000000" font-family="sans-serif" font-size="14" lengthAdjust="spacing" textLength="133.6631" x="238" y="615.5889">list[X] → Command</text><line style="stroke:#181818;stroke-width:0.5;" x1="219" x2="376.6631" y1="622.8906" y2="622.8906"/><ellipse cx="229" cy="636.5391" fill="#84BE84" rx="3" ry="3" style="stroke:#038048;stroke-width:1;"/><text fill="#000000" font-family="sans-serif" font-size="14" lengthAdjust="spacing" textLength="46.8672" x="238" y="639.8857">add(X)</text><ellipse cx="229" cy="652.8359" fill="#84BE84" rx="3" ry="3" style="stroke:#038048;stroke-width:1;"/><text fill="#000000" font-family="sans-serif" font-size="14" lengthAdjust="spacing" textLength="73.9854" x="238" y="656.1826">remove(X)</text><ellipse cx="229" cy="669.1328" fill="#84BE84" rx="3" ry="3" style="stroke:#038048;stroke-width:1;"/><text fill="#000000" font-family="sans-serif" font-size="14" lengthAdjust="spacing" textLength="121.7549" x="238" y="672.4795">Command build()</text></g><!--class Player--><g class="entity" data-entity="Player" data-source-line="25" data-uid="ent0007" id="entity_Player"><rect fill="#F1F1F1" height="64.2969" rx="2.5" ry="2.5" style="stroke:#181818;stroke-width:0.5;" width="161.9395" x="394" y="384.7969"/><ellipse cx="448.937" cy="400.7969" fill="#ADD1B2" rx="11" ry="11" style="stroke:#181818;stroke-width:1;"/><path d="M451.9058,406.4375 Q451.3276,406.7344 450.687,406.875 Q450.0464,407.0313 449.3433,407.0313 Q446.8433,407.0313 445.5151,405.3906 Q444.2026,403.7344 444.2026,400.6094 Q444.2026,397.4844 445.5151,395.8281 Q446.8433,394.1719 449.3433,394.1719 Q450.0464,394.1719 450.687,394.3281 Q451.3433,394.4844 451.9058,394.7813 L451.9058,397.5 Q451.2808,396.9219 450.687,396.6563 Q450.0933,396.375 449.4683,396.375 Q448.1245,396.375 447.437,397.4531 Q446.7495,398.5156 446.7495,400.6094 Q446.7495,402.7031 447.437,403.7813 Q448.1245,404.8438 449.4683,404.8438 Q450.0933,404.8438 450.687,404.5781 Q451.2808,404.2969 451.9058,403.7188 L451.9058,406.4375 Z " fill="#000000"/><text fill="#000000" font-family="sans-serif" font-size="14" lengthAdjust="spacing" textLength="43.5654" x="469.437" y="405.6436">Player</text><line style="stroke:#181818;stroke-width:0.5;" x1="395" x2="554.9395" y1="416.7969" y2="416.7969"/><rect fill="none" height="6" style="stroke:#C82930;stroke-width:1;" width="6" x="402" y="427.4453"/><text fill="#000000" font-family="sans-serif" font-size="14" lengthAdjust="spacing" textLength="135.9395" x="414" y="433.792">set[Keybind] active</text><line style="stroke:#181818;stroke-width:0.5;" x1="395" x2="554.9395" y1="441.0938" y2="441.0938"/></g><!--class Node--><g class="entity" data-entity="Node" data-source-line="27" data-uid="ent0009" id="entity_Node"><rect fill="#F1F1F1" height="80.5938" rx="2.5" ry="2.5" style="stroke:#181818;stroke-width:0.5;" width="143.5508" x="240" y="210.2969"/><ellipse cx="289.2563" cy="226.2969" fill="#ADD1B2" rx="11" ry="11" style="stroke:#181818;stroke-width:1;"/><path d="M292.2251,231.9375 Q291.647,232.2344 291.0063,232.375 Q290.3657,232.5313 289.6626,232.5313 Q287.1626,232.5313 285.8345,230.8906 Q284.522,229.2344 284.522,226.1094 Q284.522,222.9844 285.8345,221.3281 Q287.1626,219.6719 289.6626,219.6719 Q290.3657,219.6719 291.0063,219.8281 Q291.6626,219.9844 292.2251,220.2813 L292.2251,223 Q291.6001,222.4219 291.0063,222.1563 Q290.4126,221.875 289.7876,221.875 Q288.4438,221.875 287.7563,222.9531 Q287.0688,224.0156 287.0688,226.1094 Q287.0688,228.2031 287.7563,229.2813 Q288.4438,230.3438 289.7876,230.3438 Q290.4126,230.3438 291.0063,230.0781 Q291.6001,229.7969 292.2251,229.2188 L292.2251,231.9375 Z " fill="#000000"/><text fill="#000000" font-family="sans-serif" font-size="14" lengthAdjust="spacing" textLength="36.5381" x="309.7563" y="231.1436">Node</text><line style="stroke:#181818;stroke-width:0.5;" x1="241" x2="382.5508" y1="242.2969" y2="242.2969"/><text fill="#000000" font-family="sans-serif" font-size="14" lengthAdjust="spacing" textLength="131.5508" x="246" y="259.292">impl by the engine</text><line style="stroke:#181818;stroke-width:0.5;" x1="241" x2="382.5508" y1="266.5938" y2="266.5938"/><ellipse cx="251" cy="280.2422" fill="#84BE84" rx="3" ry="3" style="stroke:#038048;stroke-width:1;"/><text fill="#000000" font-family="sans-serif" font-size="14" lengthAdjust="spacing" textLength="104.9043" x="260" y="283.5889">Vec3 get_pos()</text></g><!--class Environment--><g class="entity" data-entity="Environment" data-source-line="34" data-uid="ent0012" id="entity_Environment"><rect fill="#F1F1F1" height="48" rx="2.5" ry="2.5" style="stroke:#181818;stroke-width:0.5;" width="121.7012" x="808" y="60.7969"/><ellipse cx="823" cy="76.7969" fill="#ADD1B2" rx="11" ry="11" style="stroke:#181818;stroke-width:1;"/><path d="M825.9688,82.4375 Q825.3906,82.7344 824.75,82.875 Q824.1094,83.0313 823.4063,83.0313 Q820.9063,83.0313 819.5781,81.3906 Q818.2656,79.7344 818.2656,76.6094 Q818.2656,73.4844 819.5781,71.8281 Q820.9063,70.1719 823.4063,70.1719 Q824.1094,70.1719 824.75,70.3281 Q825.4063,70.4844 825.9688,70.7813 L825.9688,73.5 Q825.3438,72.9219 824.75,72.6563 Q824.1563,72.375 823.5313,72.375 Q822.1875,72.375 821.5,73.4531 Q820.8125,74.5156 820.8125,76.6094 Q820.8125,78.7031 821.5,79.7813 Q822.1875,80.8438 823.5313,80.8438 Q824.1563,80.8438 824.75,80.5781 Q825.3438,80.2969 825.9688,79.7188 L825.9688,82.4375 Z " fill="#000000"/><text fill="#000000" font-family="sans-serif" font-size="14" lengthAdjust="spacing" textLength="89.7012" x="837" y="81.6436">Environment</text><line style="stroke:#181818;stroke-width:0.5;" x1="809" x2="928.7012" y1="92.7969" y2="92.7969"/><line style="stroke:#181818;stroke-width:0.5;" x1="809" x2="928.7012" y1="100.7969" y2="100.7969"/></g><!--class MovementStrategy--><g class="entity" data-entity="MovementStrategy" data-source-line="36" data-uid="ent0014" id="entity_MovementStrategy"><rect fill="#F1F1F1" height="80.5938" rx="2.5" ry="2.5" style="stroke:#181818;stroke-width:0.5;" width="254.6143" x="572.5" y="574.2969"/><ellipse cx="628.4863" cy="590.2969" fill="#A9DCDF" rx="11" ry="11" style="stroke:#181818;stroke-width:1;"/><path d="M628.5957,585.6406 L627.4395,590.7188 L629.7676,590.7188 L628.5957,585.6406 Z M627.1113,583.4063 L630.0957,583.4063 L633.4551,595.7969 L631.002,595.7969 L630.2363,592.7344 L626.9551,592.7344 L626.2051,595.7969 L623.7676,595.7969 L627.1113,583.4063 Z " fill="#000000"/><text fill="#000000" font-family="sans-serif" font-size="14" font-style="italic" lengthAdjust="spacing" textLength="134.1416" x="648.9863" y="595.1436">MovementStrategy</text><line style="stroke:#181818;stroke-width:0.5;" x1="573.5" x2="826.1143" y1="606.2969" y2="606.2969"/><line style="stroke:#181818;stroke-width:0.5;" x1="573.5" x2="826.1143" y1="614.2969" y2="614.2969"/><ellipse cx="583.5" cy="627.9453" fill="#84BE84" rx="3" ry="3" style="stroke:#038048;stroke-width:1;"/><text fill="#000000" font-family="sans-serif" font-size="14" lengthAdjust="spacing" textLength="182.2188" x="592.5" y="631.292">(x,y) next_cell(x, y, maze)</text><rect fill="#F24D5C" height="6" style="stroke:#C82930;stroke-width:1;" width="6" x="580.5" y="641.2422"/><text fill="#000000" font-family="sans-serif" font-size="14" lengthAdjust="spacing" textLength="228.6143" x="592.5" y="647.5889">Command make_command(x, y)</text></g><!--class MovementCommand--><g class="entity" data-entity="MovementCommand" data-source-line="41" data-uid="ent0015" id="entity_MovementCommand"><rect fill="#F1F1F1" height="48" rx="2.5" ry="2.5" style="stroke:#181818;stroke-width:0.5;" width="178.1113" x="7" y="898.2969"/><ellipse cx="22" cy="914.2969" fill="#ADD1B2" rx="11" ry="11" style="stroke:#181818;stroke-width:1;"/><path d="M24.9688,919.9375 Q24.3906,920.2344 23.75,920.375 Q23.1094,920.5313 22.4063,920.5313 Q19.9063,920.5313 18.5781,918.8906 Q17.2656,917.2344 17.2656,914.1094 Q17.2656,910.9844 18.5781,909.3281 Q19.9063,907.6719 22.4063,907.6719 Q23.1094,907.6719 23.75,907.8281 Q24.4063,907.9844 24.9688,908.2813 L24.9688,911 Q24.3438,910.4219 23.75,910.1563 Q23.1563,909.875 22.5313,909.875 Q21.1875,909.875 20.5,910.9531 Q19.8125,912.0156 19.8125,914.1094 Q19.8125,916.2031 20.5,917.2813 Q21.1875,918.3438 22.5313,918.3438 Q23.1563,918.3438 23.75,918.0781 Q24.3438,917.7969 24.9688,917.2188 L24.9688,919.9375 Z " fill="#000000"/><text fill="#000000" font-family="sans-serif" font-size="14" lengthAdjust="spacing" textLength="146.1113" x="36" y="919.1436">MovementCommand</text><line style="stroke:#181818;stroke-width:0.5;" x1="8" x2="184.1113" y1="930.2969" y2="930.2969"/><line style="stroke:#181818;stroke-width:0.5;" x1="8" x2="184.1113" y1="938.2969" y2="938.2969"/></g><!--class RotationCommand--><g class="entity" data-entity="RotationCommand" data-source-line="42" data-uid="ent0017" id="entity_RotationCommand"><rect fill="#F1F1F1" height="48" rx="2.5" ry="2.5" style="stroke:#181818;stroke-width:0.5;" width="163.1338" x="220.5" y="898.2969"/><ellipse cx="235.5" cy="914.2969" fill="#ADD1B2" rx="11" ry="11" style="stroke:#181818;stroke-width:1;"/><path d="M238.4688,919.9375 Q237.8906,920.2344 237.25,920.375 Q236.6094,920.5313 235.9063,920.5313 Q233.4063,920.5313 232.0781,918.8906 Q230.7656,917.2344 230.7656,914.1094 Q230.7656,910.9844 232.0781,909.3281 Q233.4063,907.6719 235.9063,907.6719 Q236.6094,907.6719 237.25,907.8281 Q237.9063,907.9844 238.4688,908.2813 L238.4688,911 Q237.8438,910.4219 237.25,910.1563 Q236.6563,909.875 236.0313,909.875 Q234.6875,909.875 234,910.9531 Q233.3125,912.0156 233.3125,914.1094 Q233.3125,916.2031 234,917.2813 Q234.6875,918.3438 236.0313,918.3438 Q236.6563,918.3438 237.25,918.0781 Q237.8438,917.7969 238.4688,917.2188 L238.4688,919.9375 Z " fill="#000000"/><text fill="#000000" font-family="sans-serif" font-size="14" lengthAdjust="spacing" textLength="131.1338" x="249.5" y="919.1436">RotationCommand</text><line style="stroke:#181818;stroke-width:0.5;" x1="221.5" x2="382.6338" y1="930.2969" y2="930.2969"/><line style="stroke:#181818;stroke-width:0.5;" x1="221.5" x2="382.6338" y1="938.2969" y2="938.2969"/></g><!--class Mob--><g class="entity" data-entity="Mob" data-source-line="48" data-uid="ent0019" id="entity_Mob"><rect fill="#F1F1F1" height="48" rx="2.5" ry="2.5" style="stroke:#181818;stroke-width:0.5;" width="61.5313" x="620" y="392.7969"/><ellipse cx="635" cy="408.7969" fill="#ADD1B2" rx="11" ry="11" style="stroke:#181818;stroke-width:1;"/><path d="M637.9688,414.4375 Q637.3906,414.7344 636.75,414.875 Q636.1094,415.0313 635.4063,415.0313 Q632.9063,415.0313 631.5781,413.3906 Q630.2656,411.7344 630.2656,408.6094 Q630.2656,405.4844 631.5781,403.8281 Q632.9063,402.1719 635.4063,402.1719 Q636.1094,402.1719 636.75,402.3281 Q637.4063,402.4844 637.9688,402.7813 L637.9688,405.5 Q637.3438,404.9219 636.75,404.6563 Q636.1563,404.375 635.5313,404.375 Q634.1875,404.375 633.5,405.4531 Q632.8125,406.5156 632.8125,408.6094 Q632.8125,410.7031 633.5,411.7813 Q634.1875,412.8438 635.5313,412.8438 Q636.1563,412.8438 636.75,412.5781 Q637.3438,412.2969 637.9688,411.7188 L637.9688,414.4375 Z " fill="#000000"/><text fill="#000000" font-family="sans-serif" font-size="14" lengthAdjust="spacing" textLength="29.5313" x="649" y="413.6436">Mob</text><line style="stroke:#181818;stroke-width:0.5;" x1="621" x2="680.5313" y1="424.7969" y2="424.7969"/><line style="stroke:#181818;stroke-width:0.5;" x1="621" x2="680.5313" y1="432.7969" y2="432.7969"/></g><!--class Inventory--><g class="entity" data-entity="Inventory" data-source-line="51" data-uid="ent0023" id="entity_Inventory"><rect fill="#F1F1F1" height="113.1875" rx="2.5" ry="2.5" style="stroke:#181818;stroke-width:0.5;" width="124.3418" x="413" y="558.2969"/><ellipse cx="439.4627" cy="574.2969" fill="#ADD1B2" rx="11" ry="11" style="stroke:#181818;stroke-width:1;"/><path d="M442.4314,579.9375 Q441.8533,580.2344 441.2127,580.375 Q440.5721,580.5313 439.8689,580.5313 Q437.3689,580.5313 436.0408,578.8906 Q434.7283,577.2344 434.7283,574.1094 Q434.7283,570.9844 436.0408,569.3281 Q437.3689,567.6719 439.8689,567.6719 Q440.5721,567.6719 441.2127,567.8281 Q441.8689,567.9844 442.4314,568.2813 L442.4314,571 Q441.8064,570.4219 441.2127,570.1563 Q440.6189,569.875 439.9939,569.875 Q438.6502,569.875 437.9627,570.9531 Q437.2752,572.0156 437.2752,574.1094 Q437.2752,576.2031 437.9627,577.2813 Q438.6502,578.3438 439.9939,578.3438 Q440.6189,578.3438 441.2127,578.0781 Q441.8064,577.7969 442.4314,577.2188 L442.4314,579.9375 Z " fill="#000000"/><text fill="#000000" font-family="sans-serif" font-size="14" lengthAdjust="spacing" textLength="66.8691" x="456.01" y="579.1436">Inventory</text><line style="stroke:#181818;stroke-width:0.5;" x1="414" x2="536.3418" y1="590.2969" y2="590.2969"/><line style="stroke:#181818;stroke-width:0.5;" x1="414" x2="536.3418" y1="598.2969" y2="598.2969"/><ellipse cx="424" cy="611.9453" fill="#84BE84" rx="3" ry="3" style="stroke:#038048;stroke-width:1;"/><text fill="#000000" font-family="sans-serif" font-size="14" lengthAdjust="spacing" textLength="68.9063" x="433" y="615.292">add(item)</text><ellipse cx="424" cy="628.2422" fill="#84BE84" rx="3" ry="3" style="stroke:#038048;stroke-width:1;"/><text fill="#000000" font-family="sans-serif" font-size="14" lengthAdjust="spacing" textLength="96.0244" x="433" y="631.5889">remove(item)</text><ellipse cx="424" cy="644.5391" fill="#84BE84" rx="3" ry="3" style="stroke:#038048;stroke-width:1;"/><text fill="#000000" font-family="sans-serif" font-size="14" lengthAdjust="spacing" textLength="80.5957" x="433" y="647.8857">equip(uuid)</text><ellipse cx="424" cy="660.8359" fill="#84BE84" rx="3" ry="3" style="stroke:#038048;stroke-width:1;"/><text fill="#000000" font-family="sans-serif" font-size="14" lengthAdjust="spacing" textLength="98.3418" x="433" y="664.1826">unequip(uuid)</text></g><!--class InventoryItem--><g class="entity" data-entity="InventoryItem" data-source-line="52" data-uid="ent0025" id="entity_InventoryItem"><rect fill="#F1F1F1" height="80.5938" rx="2.5" ry="2.5" style="stroke:#181818;stroke-width:0.5;" width="231.7754" x="353" y="756.2969"/><ellipse cx="415.2686" cy="772.2969" fill="#ADD1B2" rx="11" ry="11" style="stroke:#181818;stroke-width:1;"/><path d="M418.2373,777.9375 Q417.6592,778.2344 417.0186,778.375 Q416.3779,778.5313 415.6748,778.5313 Q413.1748,778.5313 411.8467,776.8906 Q410.5342,775.2344 410.5342,772.1094 Q410.5342,768.9844 411.8467,767.3281 Q413.1748,765.6719 415.6748,765.6719 Q416.3779,765.6719 417.0186,765.8281 Q417.6748,765.9844 418.2373,766.2813 L418.2373,769 Q417.6123,768.4219 417.0186,768.1563 Q416.4248,767.875 415.7998,767.875 Q414.4561,767.875 413.7686,768.9531 Q413.0811,770.0156 413.0811,772.1094 Q413.0811,774.2031 413.7686,775.2813 Q414.4561,776.3438 415.7998,776.3438 Q416.4248,776.3438 417.0186,776.0781 Q417.6123,775.7969 418.2373,775.2188 L418.2373,777.9375 Z " fill="#000000"/><text fill="#000000" font-family="sans-serif" font-size="14" lengthAdjust="spacing" textLength="98.7383" x="435.7686" y="777.1436">InventoryItem</text><line style="stroke:#181818;stroke-width:0.5;" x1="354" x2="583.7754" y1="788.2969" y2="788.2969"/><line style="stroke:#181818;stroke-width:0.5;" x1="354" x2="583.7754" y1="796.2969" y2="796.2969"/><ellipse cx="364" cy="809.9453" fill="#84BE84" rx="3" ry="3" style="stroke:#038048;stroke-width:1;"/><text fill="#000000" font-family="sans-serif" font-size="14" lengthAdjust="spacing" textLength="205.7754" x="373" y="813.292">CalculationNode equipment()</text><ellipse cx="364" cy="826.2422" fill="#84BE84" rx="3" ry="3" style="stroke:#038048;stroke-width:1;"/><text fill="#000000" font-family="sans-serif" font-size="14" lengthAdjust="spacing" textLength="64.6748" x="373" y="829.5889">Node ui()</text></g><!--class TargetStrategy--><g class="entity" data-entity="TargetStrategy" data-source-line="53" data-uid="ent0027" id="entity_TargetStrategy"><rect fill="#F1F1F1" height="48" rx="2.5" ry="2.5" style="stroke:#181818;stroke-width:0.5;" width="137.8613" x="815" y="772.7969"/><ellipse cx="830" cy="788.7969" fill="#ADD1B2" rx="11" ry="11" style="stroke:#181818;stroke-width:1;"/><path d="M832.9688,794.4375 Q832.3906,794.7344 831.75,794.875 Q831.1094,795.0313 830.4063,795.0313 Q827.9063,795.0313 826.5781,793.3906 Q825.2656,791.7344 825.2656,788.6094 Q825.2656,785.4844 826.5781,783.8281 Q827.9063,782.1719 830.4063,782.1719 Q831.1094,782.1719 831.75,782.3281 Q832.4063,782.4844 832.9688,782.7813 L832.9688,785.5 Q832.3438,784.9219 831.75,784.6563 Q831.1563,784.375 830.5313,784.375 Q829.1875,784.375 828.5,785.4531 Q827.8125,786.5156 827.8125,788.6094 Q827.8125,790.7031 828.5,791.7813 Q829.1875,792.8438 830.5313,792.8438 Q831.1563,792.8438 831.75,792.5781 Q832.3438,792.2969 832.9688,791.7188 L832.9688,794.4375 Z " fill="#000000"/><text fill="#000000" font-family="sans-serif" font-size="14" lengthAdjust="spacing" textLength="105.8613" x="844" y="793.6436">TargetStrategy</text><line style="stroke:#181818;stroke-width:0.5;" x1="816" x2="951.8613" y1="804.7969" y2="804.7969"/><line style="stroke:#181818;stroke-width:0.5;" x1="816" x2="951.8613" y1="812.7969" y2="812.7969"/></g><!--class StandStillStrategy--><g class="entity" data-entity="StandStillStrategy" data-source-line="54" data-uid="ent0029" id="entity_StandStillStrategy"><rect fill="#F1F1F1" height="48" rx="2.5" ry="2.5" style="stroke:#181818;stroke-width:0.5;" width="158.7451" x="620.5" y="772.7969"/><ellipse cx="635.5" cy="788.7969" fill="#ADD1B2" rx="11" ry="11" style="stroke:#181818;stroke-width:1;"/><path d="M638.4688,794.4375 Q637.8906,794.7344 637.25,794.875 Q636.6094,795.0313 635.9063,795.0313 Q633.4063,795.0313 632.0781,793.3906 Q630.7656,791.7344 630.7656,788.6094 Q630.7656,785.4844 632.0781,783.8281 Q633.4063,782.1719 635.9063,782.1719 Q636.6094,782.1719 637.25,782.3281 Q637.9063,782.4844 638.4688,782.7813 L638.4688,785.5 Q637.8438,784.9219 637.25,784.6563 Q636.6563,784.375 636.0313,784.375 Q634.6875,784.375 634,785.4531 Q633.3125,786.5156 633.3125,788.6094 Q633.3125,790.7031 634,791.7813 Q634.6875,792.8438 636.0313,792.8438 Q636.6563,792.8438 637.25,792.5781 Q637.8438,792.2969 638.4688,791.7188 L638.4688,794.4375 Z " fill="#000000"/><text fill="#000000" font-family="sans-serif" font-size="14" lengthAdjust="spacing" textLength="126.7451" x="649.5" y="793.6436">StandStillStrategy</text><line style="stroke:#181818;stroke-width:0.5;" x1="621.5" x2="778.2451" y1="804.7969" y2="804.7969"/><line style="stroke:#181818;stroke-width:0.5;" x1="621.5" x2="778.2451" y1="812.7969" y2="812.7969"/></g><!--class CalculationNode--><g class="entity" data-entity="CalculationNode" data-source-line="68" data-uid="ent0031" id="entity_CalculationNode"><rect fill="#F1F1F1" height="113.1875" rx="2.5" ry="2.5" style="stroke:#181818;stroke-width:0.5;" width="191.2861" x="869.5" y="360.2969"/><ellipse cx="904.5914" cy="376.2969" fill="#ADD1B2" rx="11" ry="11" style="stroke:#181818;stroke-width:1;"/><path d="M907.5601,381.9375 Q906.982,382.2344 906.3414,382.375 Q905.7007,382.5313 904.9976,382.5313 Q902.4976,382.5313 901.1695,380.8906 Q899.857,379.2344 899.857,376.1094 Q899.857,372.9844 901.1695,371.3281 Q902.4976,369.6719 904.9976,369.6719 Q905.7007,369.6719 906.3414,369.8281 Q906.9976,369.9844 907.5601,370.2813 L907.5601,373 Q906.9351,372.4219 906.3414,372.1563 Q905.7476,371.875 905.1226,371.875 Q903.7789,371.875 903.0914,372.9531 Q902.4039,374.0156 902.4039,376.1094 Q902.4039,378.2031 903.0914,379.2813 Q903.7789,380.3438 905.1226,380.3438 Q905.7476,380.3438 906.3414,380.0781 Q906.9351,379.7969 907.5601,379.2188 L907.5601,381.9375 Z " fill="#000000"/><text fill="#000000" font-family="sans-serif" font-size="14" lengthAdjust="spacing" textLength="114.6387" x="923.0561" y="381.1436">CalculationNode</text><line style="stroke:#181818;stroke-width:0.5;" x1="870.5" x2="1059.7861" y1="392.2969" y2="392.2969"/><polygon fill="none" points="880.5,400.9453,884.5,404.9453,880.5,408.9453,876.5,404.9453" style="stroke:#B38D22;stroke-width:1;"/><text fill="#000000" font-family="sans-serif" font-size="14" lengthAdjust="spacing" textLength="165.2861" x="889.5" y="409.292">CalculationNode parent</text><line style="stroke:#181818;stroke-width:0.5;" x1="870.5" x2="1059.7861" y1="416.5938" y2="416.5938"/><ellipse cx="880.5" cy="430.2422" fill="#84BE84" rx="3" ry="3" style="stroke:#038048;stroke-width:1;"/><text fill="#000000" font-family="sans-serif" font-size="14" lengthAdjust="spacing" textLength="162.7227" x="889.5" y="433.5889">T compute(Event[T], T)</text><polygon fill="#FFFF44" points="880.5,441.5391,884.5,445.5391,880.5,449.5391,876.5,445.5391" style="stroke:#B38D22;stroke-width:1;"/><text fill="#000000" font-family="sans-serif" font-size="14" lengthAdjust="spacing" textLength="160.1182" x="889.5" y="449.8857">void add(Event[T] → T)</text><ellipse cx="880.5" cy="462.8359" fill="#84BE84" rx="3" ry="3" style="stroke:#038048;stroke-width:1;"/><text fill="#000000" font-family="sans-serif" font-size="14" lengthAdjust="spacing" textLength="97.8906" x="889.5" y="466.1826">void destroy()</text></g><!--class Duration--><g class="entity" data-entity="Duration" data-source-line="75" data-uid="ent0032" id="entity_Duration"><rect fill="#F1F1F1" height="96.8906" rx="2.5" ry="2.5" style="stroke:#181818;stroke-width:0.5;" width="136.8311" x="1002.5" y="566.2969"/><ellipse cx="1037.3114" cy="582.2969" fill="#ADD1B2" rx="11" ry="11" style="stroke:#181818;stroke-width:1;"/><path d="M1040.2802,587.9375 Q1039.7021,588.2344 1039.0614,588.375 Q1038.4208,588.5313 1037.7177,588.5313 Q1035.2177,588.5313 1033.8896,586.8906 Q1032.5771,585.2344 1032.5771,582.1094 Q1032.5771,578.9844 1033.8896,577.3281 Q1035.2177,575.6719 1037.7177,575.6719 Q1038.4208,575.6719 1039.0614,575.8281 Q1039.7177,575.9844 1040.2802,576.2813 L1040.2802,579 Q1039.6552,578.4219 1039.0614,578.1563 Q1038.4677,577.875 1037.8427,577.875 Q1036.4989,577.875 1035.8114,578.9531 Q1035.1239,580.0156 1035.1239,582.1094 Q1035.1239,584.2031 1035.8114,585.2813 Q1036.4989,586.3438 1037.8427,586.3438 Q1038.4677,586.3438 1039.0614,586.0781 Q1039.6552,585.7969 1040.2802,585.2188 L1040.2802,587.9375 Z " fill="#000000"/><text fill="#000000" font-family="sans-serif" font-size="14" lengthAdjust="spacing" textLength="60.8057" x="1055.714" y="587.1436">Duration</text><line style="stroke:#181818;stroke-width:0.5;" x1="1003.5" x2="1138.3311" y1="598.2969" y2="598.2969"/><text fill="#000000" font-family="sans-serif" font-size="14" lengthAdjust="spacing" textLength="110.8311" x="1022.5" y="615.292">destroys parent</text><text fill="#000000" font-family="sans-serif" font-size="14" lengthAdjust="spacing" textLength="100.4336" x="1022.5" y="631.5889">when runs out</text><rect fill="none" height="6" style="stroke:#C82930;stroke-width:1;" width="6" x="1010.5" y="641.5391"/><text fill="#000000" font-family="sans-serif" font-size="14" lengthAdjust="spacing" textLength="94.8145" x="1022.5" y="647.8857">float duration</text><line style="stroke:#181818;stroke-width:0.5;" x1="1003.5" x2="1138.3311" y1="655.1875" y2="655.1875"/></g><!--class EffectStun--><g class="entity" data-entity="EffectStun" data-source-line="82" data-uid="ent0034" id="entity_EffectStun"><rect fill="#F1F1F1" height="48" rx="2.5" ry="2.5" style="stroke:#181818;stroke-width:0.5;" width="104.625" x="862.5" y="590.7969"/><ellipse cx="877.5" cy="606.7969" fill="#ADD1B2" rx="11" ry="11" style="stroke:#181818;stroke-width:1;"/><path d="M880.4688,612.4375 Q879.8906,612.7344 879.25,612.875 Q878.6094,613.0313 877.9063,613.0313 Q875.4063,613.0313 874.0781,611.3906 Q872.7656,609.7344 872.7656,606.6094 Q872.7656,603.4844 874.0781,601.8281 Q875.4063,600.1719 877.9063,600.1719 Q878.6094,600.1719 879.25,600.3281 Q879.9063,600.4844 880.4688,600.7813 L880.4688,603.5 Q879.8438,602.9219 879.25,602.6563 Q878.6563,602.375 878.0313,602.375 Q876.6875,602.375 876,603.4531 Q875.3125,604.5156 875.3125,606.6094 Q875.3125,608.7031 876,609.7813 Q876.6875,610.8438 878.0313,610.8438 Q878.6563,610.8438 879.25,610.5781 Q879.8438,610.2969 880.4688,609.7188 L880.4688,612.4375 Z " fill="#000000"/><text fill="#000000" font-family="sans-serif" font-size="14" lengthAdjust="spacing" textLength="72.625" x="891.5" y="611.6436">EffectStun</text><line style="stroke:#181818;stroke-width:0.5;" x1="863.5" x2="966.125" y1="622.7969" y2="622.7969"/><line style="stroke:#181818;stroke-width:0.5;" x1="863.5" x2="966.125" y1="630.7969" y2="630.7969"/></g><!--class ArmorItem--><g class="entity" data-entity="ArmorItem" data-source-line="84" data-uid="ent0037" id="entity_ArmorItem"><rect fill="#F1F1F1" height="48" rx="2.5" ry="2.5" style="stroke:#181818;stroke-width:0.5;" width="107.1611" x="1174.5" y="590.7969"/><ellipse cx="1189.5" cy="606.7969" fill="#ADD1B2" rx="11" ry="11" style="stroke:#181818;stroke-width:1;"/><path d="M1192.4688,612.4375 Q1191.8906,612.7344 1191.25,612.875 Q1190.6094,613.0313 1189.9063,613.0313 Q1187.4063,613.0313 1186.0781,611.3906 Q1184.7656,609.7344 1184.7656,606.6094 Q1184.7656,603.4844 1186.0781,601.8281 Q1187.4063,600.1719 1189.9063,600.1719 Q1190.6094,600.1719 1191.25,600.3281 Q1191.9063,600.4844 1192.4688,600.7813 L1192.4688,603.5 Q1191.8438,602.9219 1191.25,602.6563 Q1190.6563,602.375 1190.0313,602.375 Q1188.6875,602.375 1188,603.4531 Q1187.3125,604.5156 1187.3125,606.6094 Q1187.3125,608.7031 1188,609.7813 Q1188.6875,610.8438 1190.0313,610.8438 Q1190.6563,610.8438 1191.25,610.5781 Q1191.8438,610.2969 1192.4688,609.7188 L1192.4688,612.4375 Z " fill="#000000"/><text fill="#000000" font-family="sans-serif" font-size="14" lengthAdjust="spacing" textLength="75.1611" x="1203.5" y="611.6436">ArmorItem</text><line style="stroke:#181818;stroke-width:0.5;" x1="1175.5" x2="1280.6611" y1="622.7969" y2="622.7969"/><line style="stroke:#181818;stroke-width:0.5;" x1="1175.5" x2="1280.6611" y1="630.7969" y2="630.7969"/></g><!--class Maze--><g class="entity" data-entity="Maze" data-source-line="89" data-uid="ent0041" id="entity_Maze"><rect fill="#F1F1F1" height="48" rx="2.5" ry="2.5" style="stroke:#181818;stroke-width:0.5;" width="68.6201" x="965.5" y="60.7969"/><ellipse cx="980.5" cy="76.7969" fill="#ADD1B2" rx="11" ry="11" style="stroke:#181818;stroke-width:1;"/><path d="M983.4688,82.4375 Q982.8906,82.7344 982.25,82.875 Q981.6094,83.0313 980.9063,83.0313 Q978.4063,83.0313 977.0781,81.3906 Q975.7656,79.7344 975.7656,76.6094 Q975.7656,73.4844 977.0781,71.8281 Q978.4063,70.1719 980.9063,70.1719 Q981.6094,70.1719 982.25,70.3281 Q982.9063,70.4844 983.4688,70.7813 L983.4688,73.5 Q982.8438,72.9219 982.25,72.6563 Q981.6563,72.375 981.0313,72.375 Q979.6875,72.375 979,73.4531 Q978.3125,74.5156 978.3125,76.6094 Q978.3125,78.7031 979,79.7813 Q979.6875,80.8438 981.0313,80.8438 Q981.6563,80.8438 982.25,80.5781 Q982.8438,80.2969 983.4688,79.7188 L983.4688,82.4375 Z " fill="#000000"/><text fill="#000000" font-family="sans-serif" font-size="14" lengthAdjust="spacing" textLength="36.6201" x="994.5" y="81.6436">Maze</text><line style="stroke:#181818;stroke-width:0.5;" x1="966.5" x2="1033.1201" y1="92.7969" y2="92.7969"/><line style="stroke:#181818;stroke-width:0.5;" x1="966.5" x2="1033.1201" y1="100.7969" y2="100.7969"/></g><!--class Cell--><g class="entity" data-entity="Cell" data-source-line="90" data-uid="ent0043" id="entity_Cell"><rect fill="#F1F1F1" height="48" rx="2.5" ry="2.5" style="stroke:#181818;stroke-width:0.5;" width="58.168" x="971" y="226.7969"/><ellipse cx="986" cy="242.7969" fill="#ADD1B2" rx="11" ry="11" style="stroke:#181818;stroke-width:1;"/><path d="M988.9688,248.4375 Q988.3906,248.7344 987.75,248.875 Q987.1094,249.0313 986.4063,249.0313 Q983.9063,249.0313 982.5781,247.3906 Q981.2656,245.7344 981.2656,242.6094 Q981.2656,239.4844 982.5781,237.8281 Q983.9063,236.1719 986.4063,236.1719 Q987.1094,236.1719 987.75,236.3281 Q988.4063,236.4844 988.9688,236.7813 L988.9688,239.5 Q988.3438,238.9219 987.75,238.6563 Q987.1563,238.375 986.5313,238.375 Q985.1875,238.375 984.5,239.4531 Q983.8125,240.5156 983.8125,242.6094 Q983.8125,244.7031 984.5,245.7813 Q985.1875,246.8438 986.5313,246.8438 Q987.1563,246.8438 987.75,246.5781 Q988.3438,246.2969 988.9688,245.7188 L988.9688,248.4375 Z " fill="#000000"/><text fill="#000000" font-family="sans-serif" font-size="14" lengthAdjust="spacing" textLength="26.168" x="1000" y="247.6436">Cell</text><line style="stroke:#181818;stroke-width:0.5;" x1="972" x2="1028.168" y1="258.7969" y2="258.7969"/><line style="stroke:#181818;stroke-width:0.5;" x1="972" x2="1028.168" y1="266.7969" y2="266.7969"/></g><!--class LevelManager--><g class="entity" data-entity="LevelManager" data-source-line="92" data-uid="ent0045" id="entity_LevelManager"><rect fill="#F1F1F1" height="48" rx="2.5" ry="2.5" style="stroke:#181818;stroke-width:0.5;" width="130.5674" x="641.5" y="60.7969"/><ellipse cx="656.5" cy="76.7969" fill="#ADD1B2" rx="11" ry="11" style="stroke:#181818;stroke-width:1;"/><path d="M659.4688,82.4375 Q658.8906,82.7344 658.25,82.875 Q657.6094,83.0313 656.9063,83.0313 Q654.4063,83.0313 653.0781,81.3906 Q651.7656,79.7344 651.7656,76.6094 Q651.7656,73.4844 653.0781,71.8281 Q654.4063,70.1719 656.9063,70.1719 Q657.6094,70.1719 658.25,70.3281 Q658.9063,70.4844 659.4688,70.7813 L659.4688,73.5 Q658.8438,72.9219 658.25,72.6563 Q657.6563,72.375 657.0313,72.375 Q655.6875,72.375 655,73.4531 Q654.3125,74.5156 654.3125,76.6094 Q654.3125,78.7031 655,79.7813 Q655.6875,80.8438 657.0313,80.8438 Q657.6563,80.8438 658.25,80.5781 Q658.8438,80.2969 659.4688,79.7188 L659.4688,82.4375 Z " fill="#000000"/><text fill="#000000" font-family="sans-serif" font-size="14" lengthAdjust="spacing" textLength="98.5674" x="670.5" y="81.6436">LevelManager</text><line style="stroke:#181818;stroke-width:0.5;" x1="642.5" x2="771.0674" y1="92.7969" y2="92.7969"/><line style="stroke:#181818;stroke-width:0.5;" x1="642.5" x2="771.0674" y1="100.7969" y2="100.7969"/></g><!--class LevelFactory--><g class="entity" data-entity="LevelFactory" data-source-line="93" data-uid="ent0047" id="entity_LevelFactory"><rect fill="#F1F1F1" height="48" rx="2.5" ry="2.5" style="stroke:#181818;stroke-width:0.5;" width="121.626" x="484" y="60.7969"/><ellipse cx="499" cy="76.7969" fill="#ADD1B2" rx="11" ry="11" style="stroke:#181818;stroke-width:1;"/><path d="M501.9688,82.4375 Q501.3906,82.7344 500.75,82.875 Q500.1094,83.0313 499.4063,83.0313 Q496.9063,83.0313 495.5781,81.3906 Q494.2656,79.7344 494.2656,76.6094 Q494.2656,73.4844 495.5781,71.8281 Q496.9063,70.1719 499.4063,70.1719 Q500.1094,70.1719 500.75,70.3281 Q501.4063,70.4844 501.9688,70.7813 L501.9688,73.5 Q501.3438,72.9219 500.75,72.6563 Q500.1563,72.375 499.5313,72.375 Q498.1875,72.375 497.5,73.4531 Q496.8125,74.5156 496.8125,76.6094 Q496.8125,78.7031 497.5,79.7813 Q498.1875,80.8438 499.5313,80.8438 Q500.1563,80.8438 500.75,80.5781 Q501.3438,80.2969 501.9688,79.7188 L501.9688,82.4375 Z " fill="#000000"/><text fill="#000000" font-family="sans-serif" font-size="14" lengthAdjust="spacing" textLength="89.626" x="513" y="81.6436">LevelFactory</text><line style="stroke:#181818;stroke-width:0.5;" x1="485" x2="604.626" y1="92.7969" y2="92.7969"/><line style="stroke:#181818;stroke-width:0.5;" x1="485" x2="604.626" y1="100.7969" y2="100.7969"/></g><!--class MobFactory--><g class="entity" data-entity="MobFactory" data-source-line="94" data-uid="ent0050" id="entity_MobFactory"><rect fill="#F1F1F1" height="80.5938" rx="2.5" ry="2.5" style="stroke:#181818;stroke-width:0.5;" width="177.334" x="271.5" y="44.2969"/><ellipse cx="315.0201" cy="60.2969" fill="#A9DCDF" rx="11" ry="11" style="stroke:#181818;stroke-width:1;"/><path d="M315.1294,55.6406 L313.9732,60.7188 L316.3013,60.7188 L315.1294,55.6406 Z M313.6451,53.4063 L316.6294,53.4063 L319.9888,65.7969 L317.5357,65.7969 L316.7701,62.7344 L313.4888,62.7344 L312.7388,65.7969 L310.3013,65.7969 L313.6451,53.4063 Z " fill="#000000"/><text fill="#000000" font-family="sans-serif" font-size="14" font-style="italic" lengthAdjust="spacing" textLength="81.9561" x="335.3579" y="65.1436">MobFactory</text><line style="stroke:#181818;stroke-width:0.5;" x1="272.5" x2="447.834" y1="76.2969" y2="76.2969"/><rect fill="none" height="6" style="stroke:#C82930;stroke-width:1;" width="6" x="279.5" y="86.9453"/><text fill="#000000" font-family="sans-serif" font-size="14" lengthAdjust="spacing" textLength="112.5811" x="291.5" y="93.292">int max_spawns</text><line style="stroke:#181818;stroke-width:0.5;" x1="272.5" x2="447.834" y1="100.5938" y2="100.5938"/><ellipse cx="282.5" cy="114.2422" fill="#84BE84" rx="3" ry="3" style="stroke:#038048;stroke-width:1;"/><text fill="#000000" font-family="sans-serif" font-size="14" lengthAdjust="spacing" textLength="151.334" x="291.5" y="117.5889">void spawn(int index)</text></g><!--link Character to Command--><g class="link" data-entity-1="Character" data-entity-2="Command" data-source-line="21" data-uid="lnk5" id="link_Character_Command"><path codeLine="21" d="M459.48,299.4369 C369.65,347.9169 246.39,432.6469 200,550.2969 C171.46,622.6569 182.0003,710.7204 191.0303,758.7004" fill="none" id="Character-to-Command" style="stroke:#181818;stroke-width:1;"/><polygon fill="#181818" points="192.14,764.5969,194.4064,755.0123,191.2152,759.6831,186.5444,756.492,192.14,764.5969" style="stroke:#181818;stroke-width:1;"/><text fill="#000000" font-family="sans-serif" font-size="13" lengthAdjust="spacing" textLength="29.7832" x="224" y="516.3638">uses</text></g><!--link CommandBuilder to Command--><g class="link" data-entity-1="CommandBuilder" data-entity-2="Command" data-source-line="23" data-uid="lnk6" id="link_CommandBuilder_Command"><path codeLine="23" d="M262.96,679.5069 C247.05,708.4369 231.8523,736.07 218.9723,759.48" fill="none" id="CommandBuilder-to-Command" style="stroke:#181818;stroke-width:1;"/><polygon fill="#181818" points="216.08,764.7369,223.923,758.7798,218.4902,760.3562,216.9139,754.9234,216.08,764.7369" style="stroke:#181818;stroke-width:1;"/><text fill="#000000" font-family="sans-serif" font-size="13" lengthAdjust="spacing" textLength="48.3247" x="247" y="722.3638">creates</text></g><!--reverse link Player to CommandBuilder--><g class="link" data-entity-1="Player" data-entity-2="CommandBuilder" data-source-line="25" data-uid="lnk8" id="link_Player_CommandBuilder"><path codeLine="25" d="M438.9081,457.7635 C414.4481,484.8535 386.21,516.1169 355.58,550.0269" fill="none" id="Player-backto-CommandBuilder" style="stroke:#181818;stroke-width:1;"/><polygon fill="#181818" points="446.95,448.8569,439.9602,450.6295,438.9081,457.7635,445.8979,455.9908,446.95,448.8569" style="stroke:#181818;stroke-width:1;"/><text fill="#000000" font-family="sans-serif" font-size="13" lengthAdjust="spacing" textLength="36.5625" x="399" y="516.3638">many</text></g><!--link Node to Character--><g class="link" data-entity-1="Node" data-entity-2="Character" data-source-line="32" data-uid="lnk11" id="link_Node_Character"><path codeLine="32" d="M384.27,250.7969 C395.95,250.7969 395.64,250.7969 407.33,250.7969" fill="none" id="Node-to-Character" style="stroke:#181818;stroke-width:1;"/><polygon fill="#181818" points="419.33,250.7969,413.33,246.7969,407.33,250.7969,413.33,254.7969,419.33,250.7969" style="stroke:#181818;stroke-width:1;"/></g><!--reverse link Environment to Character--><g class="link" data-entity-1="Environment" data-entity-2="Character" data-source-line="34" data-uid="lnk13" id="link_Environment_Character"><path codeLine="34" d="M815.0848,114.5995 C769.9548,138.6995 708.58,171.4969 651.22,202.1369" fill="none" id="Environment-backto-Character" style="stroke:#181818;stroke-width:1;"/><polygon fill="#181818" points="825.67,108.9469,818.4932,108.2448,815.0848,114.5995,822.2616,115.3016,825.67,108.9469" style="stroke:#181818;stroke-width:1;"/><text fill="#000000" font-family="sans-serif" font-size="13" lengthAdjust="spacing" textLength="36.5625" x="735" y="168.3638">many</text></g><!--reverse link Command to MovementCommand--><g class="link" data-entity-1="Command" data-entity-2="MovementCommand" data-source-line="41" data-uid="lnk16" id="link_Command_MovementCommand"><path codeLine="41" d="M161.4816,842.7806 C143.6016,864.2206 131.76,878.4169 115.48,897.9369" fill="none" id="Command-backto-MovementCommand" style="stroke:#181818;stroke-width:1;"/><polygon fill="none" points="173.01,828.9569,156.8737,838.9378,166.0895,846.6234,173.01,828.9569" style="stroke:#181818;stroke-width:1;"/></g><!--reverse link Command to RotationCommand--><g class="link" data-entity-1="Command" data-entity-2="RotationCommand" data-source-line="42" data-uid="lnk18" id="link_Command_RotationCommand"><path codeLine="42" d="M236.5184,842.7806 C254.3984,864.2206 266.24,878.4169 282.52,897.9369" fill="none" id="Command-backto-RotationCommand" style="stroke:#181818;stroke-width:1;"/><polygon fill="none" points="224.99,828.9569,231.9105,846.6234,241.1263,838.9378,224.99,828.9569" style="stroke:#181818;stroke-width:1;"/></g><!--reverse link Character to Mob--><g class="link" data-entity-1="Character" data-entity-2="Mob" data-source-line="48" data-uid="lnk20" id="link_Character_Mob"><path codeLine="48" d="M596.5686,315.4957 C613.1986,346.1257 625.43,368.6669 638.47,392.7169" fill="none" id="Character-backto-Mob" style="stroke:#181818;stroke-width:1;"/><polygon fill="none" points="587.98,299.6769,591.2956,318.3586,601.8415,312.6329,587.98,299.6769" style="stroke:#181818;stroke-width:1;"/></g><!--reverse link Mob to MovementStrategy--><g class="link" data-entity-1="Mob" data-entity-2="MovementStrategy" data-source-line="49" data-uid="lnk21" id="link_Mob_MovementStrategy"><path codeLine="49" d="M659.7204,452.6886 C667.9104,485.4486 680.05,533.9769 690.04,573.9469" fill="none" id="Mob-backto-MovementStrategy" style="stroke:#181818;stroke-width:1;"/><polygon fill="#181818" points="656.81,441.0469,654.3846,447.8379,659.7204,452.6886,662.1458,445.8976,656.81,441.0469" style="stroke:#181818;stroke-width:1;"/></g><!--reverse link Character to Player--><g class="link" data-entity-1="Character" data-entity-2="Player" data-source-line="50" data-uid="lnk22" id="link_Character_Player"><path codeLine="50" d="M528.165,315.5781 C513.625,342.9881 504.23,360.7069 491.5,384.6969" fill="none" id="Character-backto-Player" style="stroke:#181818;stroke-width:1;"/><polygon fill="none" points="536.6,299.6769,522.8645,312.7665,533.4654,318.3898,536.6,299.6769" style="stroke:#181818;stroke-width:1;"/></g><!--reverse link Player to Inventory--><g class="link" data-entity-1="Player" data-entity-2="Inventory" data-source-line="51" data-uid="lnk24" id="link_Player_Inventory"><path codeLine="51" d="M475,460.8569 C475,490.1069 475,522.5969 475,558.0069" fill="none" id="Player-backto-Inventory" style="stroke:#181818;stroke-width:1;"/><polygon fill="none" points="475,448.8569,471,454.8569,475,460.8569,479,454.8569,475,448.8569" style="stroke:#181818;stroke-width:1;"/><text fill="#000000" font-family="sans-serif" font-size="13" lengthAdjust="spacing" textLength="158.812" x="476" y="516.3638">owned by LevelManager</text></g><!--reverse link Inventory to InventoryItem--><g class="link" data-entity-1="Inventory" data-entity-2="InventoryItem" data-source-line="52" data-uid="lnk26" id="link_Inventory_InventoryItem"><path codeLine="52" d="M472.7308,683.7602 C471.8208,711.1002 471.15,731.3769 470.32,756.1469" fill="none" id="Inventory-backto-InventoryItem" style="stroke:#181818;stroke-width:1;"/><polygon fill="#181818" points="473.13,671.7669,468.9326,677.6305,472.7308,683.7602,476.9282,677.8966,473.13,671.7669" style="stroke:#181818;stroke-width:1;"/><text fill="#000000" font-family="sans-serif" font-size="13" lengthAdjust="spacing" textLength="36.5625" x="473" y="722.3638">many</text></g><!--reverse link MovementStrategy to TargetStrategy--><g class="link" data-entity-1="MovementStrategy" data-entity-2="TargetStrategy" data-source-line="53" data-uid="lnk28" id="link_MovementStrategy_TargetStrategy"><path codeLine="53" d="M753.2474,667.8838 C789.9574,703.7938 830.01,742.9769 860.3,772.6169" fill="none" id="MovementStrategy-backto-TargetStrategy" style="stroke:#181818;stroke-width:1;"/><polygon fill="none" points="740.38,655.2969,749.0517,672.1729,757.443,663.5947,740.38,655.2969" style="stroke:#181818;stroke-width:1;"/></g><!--reverse link MovementStrategy to StandStillStrategy--><g class="link" data-entity-1="MovementStrategy" data-entity-2="StandStillStrategy" data-source-line="54" data-uid="lnk30" id="link_MovementStrategy_StandStillStrategy"><path codeLine="54" d="M700,673.2969 C700,709.2069 700,742.9769 700,772.6169" fill="none" id="MovementStrategy-backto-StandStillStrategy" style="stroke:#181818;stroke-width:1;"/><polygon fill="none" points="700,655.2969,694,673.2969,706,673.2969,700,655.2969" style="stroke:#181818;stroke-width:1;"/></g><!--reverse link CalculationNode to Duration--><g class="link" data-entity-1="CalculationNode" data-entity-2="Duration" data-source-line="81" data-uid="lnk33" id="link_CalculationNode_Duration"><path codeLine="81" d="M1003.6519,489.2702 C1019.4419,518.4702 1030.03,538.0469 1045.15,565.9969" fill="none" id="CalculationNode-backto-Duration" style="stroke:#181818;stroke-width:1;"/><polygon fill="none" points="995.09,473.4369,998.3741,492.1242,1008.9297,486.4162,995.09,473.4369" style="stroke:#181818;stroke-width:1;"/></g><!--reverse link CalculationNode to EffectStun--><g class="link" data-entity-1="CalculationNode" data-entity-2="EffectStun" data-source-line="82" data-uid="lnk35" id="link_CalculationNode_EffectStun"><path codeLine="82" d="M946.3577,490.8776 C936.4477,529.6976 928.2,562.0569 920.89,590.7069" fill="none" id="CalculationNode-backto-EffectStun" style="stroke:#181818;stroke-width:1;"/><polygon fill="none" points="950.81,473.4369,940.5442,489.3935,952.1713,492.3616,950.81,473.4369" style="stroke:#181818;stroke-width:1;"/></g><!--reverse link EffectStun to Duration--><g class="link" data-entity-1="EffectStun" data-entity-2="Duration" data-source-line="83" data-uid="lnk36" id="link_EffectStun_Duration"><path codeLine="83" d="M979.71,614.7969 C991.28,614.7969 990.84,614.7969 1002.41,614.7969" fill="none" id="EffectStun-backto-Duration" style="stroke:#181818;stroke-width:1;"/><polygon fill="#181818" points="967.71,614.7969,973.71,618.7969,979.71,614.7969,973.71,610.7969,967.71,614.7969" style="stroke:#181818;stroke-width:1;"/></g><!--reverse link CalculationNode to ArmorItem--><g class="link" data-entity-1="CalculationNode" data-entity-2="ArmorItem" data-source-line="84" data-uid="lnk38" id="link_CalculationNode_ArmorItem"><path codeLine="84" d="M1065.6687,483.6931 C1099.4587,506.5531 1123.27,523.7469 1157,550.2969 C1173.11,562.9769 1190.27,578.2769 1203.69,590.6769" fill="none" id="CalculationNode-backto-ArmorItem" style="stroke:#181818;stroke-width:1;"/><polygon fill="none" points="1050.76,473.6069,1062.3066,488.6626,1069.0307,478.7235,1050.76,473.6069" style="stroke:#181818;stroke-width:1;"/></g><!--reverse link Character to CalculationNode--><g class="link" data-entity-1="Character" data-entity-2="CalculationNode" data-source-line="86" data-uid="lnk39" id="link_Character_CalculationNode"><path codeLine="86" d="M689.9453,303.8691 C750.3853,328.4591 812.12,353.5769 869.19,376.8069" fill="none" id="Character-backto-CalculationNode" style="stroke:#181818;stroke-width:1;"/><polygon fill="#181818" points="678.83,299.3469,682.8802,305.3131,689.9453,303.8691,685.8951,297.9029,678.83,299.3469" style="stroke:#181818;stroke-width:1;"/></g><!--reverse link CalculationNode to CalculationNode--><g class="link" data-entity-1="CalculationNode" data-entity-2="CalculationNode" data-source-line="87" data-uid="lnk40" id="link_CalculationNode_CalculationNode"><path codeLine="87" d="M1072.5637,402.1299 C1092.8237,403.7099 1095.5,407.9769 1095.5,416.7969 C1095.5,425.6169 1080.86,430.8169 1060.6,432.3969" fill="none" id="CalculationNode-backto-CalculationNode" style="stroke:#181818;stroke-width:1;"/><polygon fill="#181818" points="1060.6,401.1969,1066.2708,405.6513,1072.5637,402.1299,1066.8928,397.6755,1060.6,401.1969" style="stroke:#181818;stroke-width:1;"/><text fill="#000000" font-family="sans-serif" font-size="13" lengthAdjust="spacing" textLength="110.2334" x="1101.5" y="421.3638">children, 0-many</text></g><!--reverse link Environment to Maze--><g class="link" data-entity-1="Environment" data-entity-2="Maze" data-source-line="89" data-uid="lnk42" id="link_Environment_Maze"><path codeLine="89" d="M942.15,84.7969 C953.88,84.7969 953.62,84.7969 965.35,84.7969" fill="none" id="Environment-backto-Maze" style="stroke:#181818;stroke-width:1;"/><polygon fill="#181818" points="930.15,84.7969,936.15,88.7969,942.15,84.7969,936.15,80.7969,930.15,84.7969" style="stroke:#181818;stroke-width:1;"/></g><!--reverse link Maze to Cell--><g class="link" data-entity-1="Maze" data-entity-2="Cell" data-source-line="90" data-uid="lnk44" id="link_Maze_Cell"><path codeLine="90" d="M1000,120.9469 C1000,152.2069 1000,195.5669 1000,226.7669" fill="none" id="Maze-backto-Cell" style="stroke:#181818;stroke-width:1;"/><polygon fill="#181818" points="1000,108.9469,996,114.9469,1000,120.9469,1004,114.9469,1000,108.9469" style="stroke:#181818;stroke-width:1;"/><text fill="#000000" font-family="sans-serif" font-size="13" lengthAdjust="spacing" textLength="36.5625" x="1001" y="168.3638">many</text></g><!--reverse link LevelManager to Environment--><g class="link" data-entity-1="LevelManager" data-entity-2="Environment" data-source-line="92" data-uid="lnk46" id="link_LevelManager_Environment"><path codeLine="92" d="M784.81,84.7969 C796.46,84.7969 796.11,84.7969 807.76,84.7969" fill="none" id="LevelManager-backto-Environment" style="stroke:#181818;stroke-width:1;"/><polygon fill="#181818" points="772.81,84.7969,778.81,88.7969,784.81,84.7969,778.81,80.7969,772.81,84.7969" style="stroke:#181818;stroke-width:1;"/></g><!--link LevelFactory to LevelManager--><g class="link" data-entity-1="LevelFactory" data-entity-2="LevelManager" data-source-line="93" data-uid="lnk49" id="link_LevelFactory_LevelManager"><path codeLine="93" d="M606.07,84.7969 C617.76,84.7969 617.46,84.7969 629.16,84.7969" fill="none" id="LevelFactory-to-LevelManager" style="stroke:#181818;stroke-width:1;"/><polygon fill="#181818" points="641.16,84.7969,635.16,80.7969,629.16,84.7969,635.16,88.7969,641.16,84.7969" style="stroke:#181818;stroke-width:1;"/></g><!--link MobFactory to LevelFactory--><g class="link" data-entity-1="MobFactory" data-entity-2="LevelFactory" data-source-line="94" data-uid="lnk52" id="link_MobFactory_LevelFactory"><path codeLine="94" d="M448.53,84.7969 C460.33,84.7969 460.14,84.7969 471.95,84.7969" fill="none" id="MobFactory-to-LevelFactory" style="stroke:#181818;stroke-width:1;"/><polygon fill="#181818" points="483.95,84.7969,477.95,80.7969,471.95,84.7969,477.95,88.7969,483.95,84.7969" style="stroke:#181818;stroke-width:1;"/></g><!--link MobFactory to Character--><g class="link" data-entity-1="MobFactory" data-entity-2="Character" data-source-line="101" data-uid="lnk53" id="link_MobFactory_Character"><path codeLine="101" d="M408.9,125.4969 C437.39,148.6269 468.8428,174.154 498.8328,198.514" fill="none" id="MobFactory-to-Character" style="stroke:#181818;stroke-width:1;"/><polygon fill="#181818" points="503.49,202.2969,499.0261,193.5177,499.609,199.1444,493.9822,199.7273,503.49,202.2969" style="stroke:#181818;stroke-width:1;"/><text fill="#000000" font-family="sans-serif" font-size="13" lengthAdjust="spacing" textLength="48.3247" x="462" y="168.3638">creates</text></g><!--SRC=[XLHVQzim47_tfpZeYzD6CDXR6OCkwqRPMiOQHY6KejYNH4oMF4bEuhLztGVOHzmdsKcsRCVfs4E2JtVtkxlV_N72IOGPIWapmtSI3J3uo0ii9Q-J99FSMfXjkE6P8zrZ0d2MxgVr11JktKD6ZYH2FI45oqNc5jQPASnqKN2LtqFMV5XIdrWaXqPEXrRm13TQuIHvxWAsYX3EL2gzqJcIFPUP_pgsV5S9cRVvNIm9dD85eU3EfoM5TOkxU_ZpwtUqzxWypzExIOY0XTvYAyJOIm-PXb1z_OozZH3dK5cqf3pCuC0YCyYTD_f2R9BobB5HnkT0GaUqBoxK88fImh86jq50jHOAVMhVC7iDQsAnr7QSsIcJk78iG2J9fTeAerM1of4crpl5-Yx6c3mIrGI_9WwymoqzEbpN_sxsb01-OcXvPAlWtx5hRZCGpnqtyEQ92e_uiGK7og_QSIUqYigMa9OtdmcZyLbymdef_5nHscABXnIqKPO9_GBLuuh6jWrwR8wcbokr9NjjwdCWpZ3tFVYCMvJNNF4rsNO68K0dNJaiMbgFQ0oXvjnGuxf4NZQwTLJwhHDITeOj3ttOnpYwWa8EfxUJyKSbohIgH1x4IWqVdeyGVUeDgb-lIeOsX44CVZxBD025jqgam-qRUNYOa_5ZoGrXU8IvFmTbvJ2zzC4Ny_ifp3tsoLQB77nLKH6MDUZEWYv7cbLT3uE_hqm84gAsUjj7ssrG0TqE2xhoCbj9pHtahLSOdL6ceGaHzcNjvMg56RMjKad_IRDWn7hZ_kTyOGfjFD-7Yyl6F1vvls13nsL35uIAdS8hrYpquTQtALtJgYR-hq6X7OxxFnpitdu0ChPeBanu_439q_0aGw6peFsB-kCZ4rNDKWjAjU3x1rlodR9TkuEOUYLjE-v3rmUkuSZsvwmzity1]--></g></svg>