<svg xmlns="http://www.w3.org/2000/svg" xmlns:xlink="http://www.w3.org/1999/xlink" contentStyleType="text/css" data-diagram-type="CLASS" height="1018px" preserveAspectRatio="none" style="width:1454px;height:1018px;background:#FFFFFF;" version="1.1" viewBox="0 0 1454 1018" width="1454px" zoomAndPan="magnify"><title>Cell Crawler - Gameplay</title><defs/><g><g class="title" data-source-line="1"><text fill="#000000" font-family="sans-serif" font-size="14" font-weight="bold" lengthAdjust="spacing" textLength="188.9727" x="625.6792" y="22.9951">Cell Crawler - Gameplay</text></g><!--class Character--><g class="entity" data-entity="Character" data-source-line="3" data-uid="ent0002" id="entity_Character"><rect fill="#F1F1F1" height="162.0781" rx="2.5" ry="2.5" style="stroke:#181818;stroke-width:0.5;" width="284.7334" x="490.5" y="202.2969"/><ellipse cx="594.0576" cy="218.2969" fill="#ADD1B2" rx="11" ry="11" style="stroke:#181818;stroke-width:1;"/><path d="M597.0264,223.9375 Q596.4482,224.2344 595.8076,224.375 Q595.167,224.5313 594.4639,224.5313 Q591.9639,224.5313 590.6357,222.8906 Q589.3232,221.2344 589.3232,218.1094 Q589.3232,214.9844 590.6357,213.3281 Q591.9639,211.6719 594.4639,211.6719 Q595.167,211.6719 595.8076,211.8281 Q596.4639,211.9844 597.0264,212.2813 L597.0264,215 Q596.4014,214.4219 595.8076,214.1563 Q595.2139,213.875 594.5889,213.875 Q593.2451,213.875 592.5576,214.9531 Q591.8701,216.0156 591.8701,218.1094 Q591.8701,220.2031 592.5576,221.2813 Q593.2451,222.3438 594.5889,222.3438 Q595.2139,222.3438 595.8076,222.0781 Q596.4014,221.7969 597.0264,221.2188 L597.0264,223.9375 Z " fill="#000000"/><text fill="#000000" font-family="sans-serif" font-size="14" lengthAdjust="spacing" textLength="69.1182" x="614.5576" y="223.1436">Character</text><line style="stroke:#181818;stroke-width:0.5;" x1="491.5" x2="774.2334" y1="234.2969" y2="234.2969"/><ellipse cx="501.5" cy="247.9453" fill="none" rx="3" ry="3" style="stroke:#038048;stroke-width:1;"/><text fill="#000000" font-family="sans-serif" font-size="14" lengthAdjust="spacing" textLength="157.7666" x="510.5" y="251.292">Observable[int] health</text><ellipse cx="501.5" cy="264.2422" fill="none" rx="3" ry="3" style="stroke:#038048;stroke-width:1;"/><text fill="#000000" font-family="sans-serif" font-size="14" lengthAdjust="spacing" textLength="195.2686" x="510.5" y="267.5889">Observable[int] max_health</text><rect fill="none" height="6" style="stroke:#C82930;stroke-width:1;" width="6" x="498.5" y="277.5391"/><text fill="#000000" font-family="sans-serif" font-size="14" lengthAdjust="spacing" textLength="217.9023" x="510.5" y="283.8857">dict[str, Command] commands</text><line style="stroke:#181818;stroke-width:0.5;" x1="491.5" x2="774.2334" y1="291.1875" y2="291.1875"/><polygon fill="#FFFF44" points="501.5,299.8359,505.5,303.8359,501.5,307.8359,497.5,303.8359" style="stroke:#B38D22;stroke-width:1;"/><text fill="#000000" font-family="sans-serif" font-size="14" lengthAdjust="spacing" textLength="258.7334" x="510.5" y="308.1826">set_command(str, Command | None)</text><ellipse cx="501.5" cy="321.1328" fill="#84BE84" rx="3" ry="3" style="stroke:#038048;stroke-width:1;"/><text fill="#000000" font-family="sans-serif" font-size="14" lengthAdjust="spacing" textLength="123.9834" x="510.5" y="324.4795">attack(Character)</text><ellipse cx="501.5" cy="337.4297" fill="#84BE84" rx="3" ry="3" style="stroke:#038048;stroke-width:1;"/><text fill="#000000" font-family="sans-serif" font-size="14" lengthAdjust="spacing" textLength="186.6074" x="510.5" y="340.7764">bool attacked(int damage)</text><polygon fill="#FFFF44" points="501.5,348.7266,505.5,352.7266,501.5,356.7266,497.5,352.7266" style="stroke:#B38D22;stroke-width:1;"/><text fill="#000000" font-family="sans-serif" font-size="14" lengthAdjust="spacing" textLength="92.9209" x="510.5" y="357.0732">abstract kill()</text></g><!--class Command--><g class="entity" data-entity="Command" data-source-line="13" data-uid="ent0003" id="entity_Command"><rect fill="#F1F1F1" height="64.2969" rx="2.5" ry="2.5" style="stroke:#181818;stroke-width:0.5;" width="129.5439" x="134" y="829.7969"/><ellipse cx="160.515" cy="845.7969" fill="#ADD1B2" rx="11" ry="11" style="stroke:#181818;stroke-width:1;"/><path d="M163.4837,851.4375 Q162.9056,851.7344 162.265,851.875 Q161.6244,852.0313 160.9212,852.0313 Q158.4212,852.0313 157.0931,850.3906 Q155.7806,848.7344 155.7806,845.6094 Q155.7806,842.4844 157.0931,840.8281 Q158.4212,839.1719 160.9212,839.1719 Q161.6244,839.1719 162.265,839.3281 Q162.9212,839.4844 163.4837,839.7813 L163.4837,842.5 Q162.8587,841.9219 162.265,841.6563 Q161.6712,841.375 161.0462,841.375 Q159.7025,841.375 159.015,842.4531 Q158.3275,843.5156 158.3275,845.6094 Q158.3275,847.7031 159.015,848.7813 Q159.7025,849.8438 161.0462,849.8438 Q161.6712,849.8438 162.265,849.5781 Q162.8587,849.2969 163.4837,848.7188 L163.4837,851.4375 Z " fill="#000000"/><text fill="#000000" font-family="sans-serif" font-size="14" lengthAdjust="spacing" textLength="71.9551" x="177.0739" y="850.6436">Command</text><line style="stroke:#181818;stroke-width:0.5;" x1="135" x2="262.5439" y1="861.7969" y2="861.7969"/><line style="stroke:#181818;stroke-width:0.5;" x1="135" x2="262.5439" y1="869.7969" y2="869.7969"/><ellipse cx="145" cy="883.4453" fill="#84BE84" rx="3" ry="3" style="stroke:#038048;stroke-width:1;"/><text fill="#000000" font-family="sans-serif" font-size="14" lengthAdjust="spacing" textLength="103.5439" x="154" y="886.792">run(Character)</text></g><!--class CommandBuilder--><g class="entity" data-entity="CommandBuilder" data-source-line="17" data-uid="ent0004" id="entity_CommandBuilder"><rect fill="#F1F1F1" height="129.4844" rx="2.5" ry="2.5" style="stroke:#181818;stroke-width:0.5;" width="159.6631" x="205" y="615.2969"/><ellipse cx="222.7879" cy="631.2969" fill="#ADD1B2" rx="11" ry="11" style="stroke:#181818;stroke-width:1;"/><path d="M225.7566,636.9375 Q225.1785,637.2344 224.5379,637.375 Q223.8973,637.5313 223.1941,637.5313 Q220.6941,637.5313 219.366,635.8906 Q218.0535,634.2344 218.0535,631.1094 Q218.0535,627.9844 219.366,626.3281 Q220.6941,624.6719 223.1941,624.6719 Q223.8973,624.6719 224.5379,624.8281 Q225.1941,624.9844 225.7566,625.2813 L225.7566,628 Q225.1316,627.4219 224.5379,627.1563 Q223.9441,626.875 223.3191,626.875 Q221.9754,626.875 221.2879,627.9531 Q220.6004,629.0156 220.6004,631.1094 Q220.6004,633.2031 221.2879,634.2813 Q221.9754,635.3438 223.3191,635.3438 Q223.9441,635.3438 224.5379,635.0781 Q225.1316,634.7969 225.7566,634.2188 L225.7566,636.9375 Z " fill="#000000"/><text fill="#000000" font-family="sans-serif" font-size="14" lengthAdjust="spacing" textLength="121.4678" x="237.4074" y="636.1436">CommandBuilder</text><line style="stroke:#181818;stroke-width:0.5;" x1="206" x2="363.6631" y1="647.2969" y2="647.2969"/><text fill="#000000" font-family="sans-serif" font-size="14" lengthAdjust="spacing" textLength="90.0225" x="225" y="664.292">Abstract in X</text><rect fill="none" height="6" style="stroke:#C82930;stroke-width:1;" width="6" x="213" y="674.2422"/><text fill="#000000" font-family="sans-serif" font-size="14" lengthAdjust="spacing" textLength="133.6631" x="225" y="680.5889">list[X] → Command</text><line style="stroke:#181818;stroke-width:0.5;" x1="206" x2="363.6631" y1="687.8906" y2="687.8906"/><ellipse cx="216" cy="701.5391" fill="#84BE84" rx="3" ry="3" style="stroke:#038048;stroke-width:1;"/><text fill="#000000" font-family="sans-serif" font-size="14" lengthAdjust="spacing" textLength="46.8672" x="225" y="704.8857">add(X)</text><ellipse cx="216" cy="717.8359" fill="#84BE84" rx="3" ry="3" style="stroke:#038048;stroke-width:1;"/><text fill="#000000" font-family="sans-serif" font-size="14" lengthAdjust="spacing" textLength="73.9854" x="225" y="721.1826">remove(X)</text><ellipse cx="216" cy="734.1328" fill="#84BE84" rx="3" ry="3" style="stroke:#038048;stroke-width:1;"/><text fill="#000000" font-family="sans-serif" font-size="14" lengthAdjust="spacing" textLength="121.7549" x="225" y="737.4795">Command build()</text></g><!--class Player--><g class="entity" data-entity="Player" data-source-line="29" data-uid="ent0007" id="entity_Player"><rect fill="#F1F1F1" height="48" rx="2.5" ry="2.5" style="stroke:#181818;stroke-width:0.5;" width="75.5654" x="475" y="457.7969"/><ellipse cx="490" cy="473.7969" fill="#ADD1B2" rx="11" ry="11" style="stroke:#181818;stroke-width:1;"/><path d="M492.9688,479.4375 Q492.3906,479.7344 491.75,479.875 Q491.1094,480.0313 490.4063,480.0313 Q487.9063,480.0313 486.5781,478.3906 Q485.2656,476.7344 485.2656,473.6094 Q485.2656,470.4844 486.5781,468.8281 Q487.9063,467.1719 490.4063,467.1719 Q491.1094,467.1719 491.75,467.3281 Q492.4063,467.4844 492.9688,467.7813 L492.9688,470.5 Q492.3438,469.9219 491.75,469.6563 Q491.1563,469.375 490.5313,469.375 Q489.1875,469.375 488.5,470.4531 Q487.8125,471.5156 487.8125,473.6094 Q487.8125,475.7031 488.5,476.7813 Q489.1875,477.8438 490.5313,477.8438 Q491.1563,477.8438 491.75,477.5781 Q492.3438,477.2969 492.9688,476.7188 L492.9688,479.4375 Z " fill="#000000"/><text fill="#000000" font-family="sans-serif" font-size="14" lengthAdjust="spacing" textLength="43.5654" x="504" y="478.6436">Player</text><line style="stroke:#181818;stroke-width:0.5;" x1="476" x2="549.5654" y1="489.7969" y2="489.7969"/><line style="stroke:#181818;stroke-width:0.5;" x1="476" x2="549.5654" y1="497.7969" y2="497.7969"/></g><!--class Node--><g class="entity" data-entity="Node" data-source-line="31" data-uid="ent0009" id="entity_Node"><rect fill="#F1F1F1" height="80.5938" rx="2.5" ry="2.5" style="stroke:#181818;stroke-width:0.5;" width="143.5508" x="311" y="242.7969"/><ellipse cx="360.2563" cy="258.7969" fill="#ADD1B2" rx="11" ry="11" style="stroke:#181818;stroke-width:1;"/><path d="M363.2251,264.4375 Q362.647,264.7344 362.0063,264.875 Q361.3657,265.0313 360.6626,265.0313 Q358.1626,265.0313 356.8345,263.3906 Q355.522,261.7344 355.522,258.6094 Q355.522,255.4844 356.8345,253.8281 Q358.1626,252.1719 360.6626,252.1719 Q361.3657,252.1719 362.0063,252.3281 Q362.6626,252.4844 363.2251,252.7813 L363.2251,255.5 Q362.6001,254.9219 362.0063,254.6563 Q361.4126,254.375 360.7876,254.375 Q359.4438,254.375 358.7563,255.4531 Q358.0688,256.5156 358.0688,258.6094 Q358.0688,260.7031 358.7563,261.7813 Q359.4438,262.8438 360.7876,262.8438 Q361.4126,262.8438 362.0063,262.5781 Q362.6001,262.2969 363.2251,261.7188 L363.2251,264.4375 Z " fill="#000000"/><text fill="#000000" font-family="sans-serif" font-size="14" lengthAdjust="spacing" textLength="36.5381" x="380.7563" y="263.6436">Node</text><line style="stroke:#181818;stroke-width:0.5;" x1="312" x2="453.5508" y1="274.7969" y2="274.7969"/><text fill="#000000" font-family="sans-serif" font-size="14" lengthAdjust="spacing" textLength="131.5508" x="317" y="291.792">impl by the engine</text><line style="stroke:#181818;stroke-width:0.5;" x1="312" x2="453.5508" y1="299.0938" y2="299.0938"/><ellipse cx="322" cy="312.7422" fill="#84BE84" rx="3" ry="3" style="stroke:#038048;stroke-width:1;"/><text fill="#000000" font-family="sans-serif" font-size="14" lengthAdjust="spacing" textLength="104.9043" x="331" y="316.0889">Vec3 get_pos()</text></g><!--class Environment--><g class="entity" data-entity="Environment" data-source-line="38" data-uid="ent0012" id="entity_Environment"><rect fill="#F1F1F1" height="48" rx="2.5" ry="2.5" style="stroke:#181818;stroke-width:0.5;" width="121.7012" x="879" y="60.7969"/><ellipse cx="894" cy="76.7969" fill="#ADD1B2" rx="11" ry="11" style="stroke:#181818;stroke-width:1;"/><path d="M896.9688,82.4375 Q896.3906,82.7344 895.75,82.875 Q895.1094,83.0313 894.4063,83.0313 Q891.9063,83.0313 890.5781,81.3906 Q889.2656,79.7344 889.2656,76.6094 Q889.2656,73.4844 890.5781,71.8281 Q891.9063,70.1719 894.4063,70.1719 Q895.1094,70.1719 895.75,70.3281 Q896.4063,70.4844 896.9688,70.7813 L896.9688,73.5 Q896.3438,72.9219 895.75,72.6563 Q895.1563,72.375 894.5313,72.375 Q893.1875,72.375 892.5,73.4531 Q891.8125,74.5156 891.8125,76.6094 Q891.8125,78.7031 892.5,79.7813 Q893.1875,80.8438 894.5313,80.8438 Q895.1563,80.8438 895.75,80.5781 Q896.3438,80.2969 896.9688,79.7188 L896.9688,82.4375 Z " fill="#000000"/><text fill="#000000" font-family="sans-serif" font-size="14" lengthAdjust="spacing" textLength="89.7012" x="908" y="81.6436">Environment</text><line style="stroke:#181818;stroke-width:0.5;" x1="880" x2="999.7012" y1="92.7969" y2="92.7969"/><line style="stroke:#181818;stroke-width:0.5;" x1="880" x2="999.7012" y1="100.7969" y2="100.7969"/></g><!--class MovementStrategy--><g class="entity" data-entity="MovementStrategy" data-source-line="40" data-uid="ent0014" id="entity_MovementStrategy"><rect fill="#F1F1F1" height="80.5938" rx="2.5" ry="2.5" style="stroke:#181818;stroke-width:0.5;" width="254.6143" x="738.5" y="639.2969"/><ellipse cx="794.4863" cy="655.2969" fill="#A9DCDF" rx="11" ry="11" style="stroke:#181818;stroke-width:1;"/><path d="M794.5957,650.6406 L793.4395,655.7188 L795.7676,655.7188 L794.5957,650.6406 Z M793.1113,648.4063 L796.0957,648.4063 L799.4551,660.7969 L797.002,660.7969 L796.2363,657.7344 L792.9551,657.7344 L792.2051,660.7969 L789.7676,660.7969 L793.1113,648.4063 Z " fill="#000000"/><text fill="#000000" font-family="sans-serif" font-size="14" font-style="italic" lengthAdjust="spacing" textLength="134.1416" x="814.9863" y="660.1436">MovementStrategy</text><line style="stroke:#181818;stroke-width:0.5;" x1="739.5" x2="992.1143" y1="671.2969" y2="671.2969"/><line style="stroke:#181818;stroke-width:0.5;" x1="739.5" x2="992.1143" y1="679.2969" y2="679.2969"/><ellipse cx="749.5" cy="692.9453" fill="#84BE84" rx="3" ry="3" style="stroke:#038048;stroke-width:1;"/><text fill="#000000" font-family="sans-serif" font-size="14" lengthAdjust="spacing" textLength="182.2188" x="758.5" y="696.292">(x,y) next_cell(x, y, maze)</text><rect fill="#F24D5C" height="6" style="stroke:#C82930;stroke-width:1;" width="6" x="746.5" y="706.2422"/><text fill="#000000" font-family="sans-serif" font-size="14" lengthAdjust="spacing" textLength="228.6143" x="758.5" y="712.5889">Command make_command(x, y)</text></g><!--class MovementCommand--><g class="entity" data-entity="MovementCommand" data-source-line="45" data-uid="ent0015" id="entity_MovementCommand"><rect fill="#F1F1F1" height="48" rx="2.5" ry="2.5" style="stroke:#181818;stroke-width:0.5;" width="178.1113" x="7" y="963.2969"/><ellipse cx="22" cy="979.2969" fill="#ADD1B2" rx="11" ry="11" style="stroke:#181818;stroke-width:1;"/><path d="M24.9688,984.9375 Q24.3906,985.2344 23.75,985.375 Q23.1094,985.5313 22.4063,985.5313 Q19.9063,985.5313 18.5781,983.8906 Q17.2656,982.2344 17.2656,979.1094 Q17.2656,975.9844 18.5781,974.3281 Q19.9063,972.6719 22.4063,972.6719 Q23.1094,972.6719 23.75,972.8281 Q24.4063,972.9844 24.9688,973.2813 L24.9688,976 Q24.3438,975.4219 23.75,975.1563 Q23.1563,974.875 22.5313,974.875 Q21.1875,974.875 20.5,975.9531 Q19.8125,977.0156 19.8125,979.1094 Q19.8125,981.2031 20.5,982.2813 Q21.1875,983.3438 22.5313,983.3438 Q23.1563,983.3438 23.75,983.0781 Q24.3438,982.7969 24.9688,982.2188 L24.9688,984.9375 Z " fill="#000000"/><text fill="#000000" font-family="sans-serif" font-size="14" lengthAdjust="spacing" textLength="146.1113" x="36" y="984.1436">MovementCommand</text><line style="stroke:#181818;stroke-width:0.5;" x1="8" x2="184.1113" y1="995.2969" y2="995.2969"/><line style="stroke:#181818;stroke-width:0.5;" x1="8" x2="184.1113" y1="1003.2969" y2="1003.2969"/></g><!--class RotationCommand--><g class="entity" data-entity="RotationCommand" data-source-line="46" data-uid="ent0017" id="entity_RotationCommand"><rect fill="#F1F1F1" height="48" rx="2.5" ry="2.5" style="stroke:#181818;stroke-width:0.5;" width="163.1338" x="220.5" y="963.2969"/><ellipse cx="235.5" cy="979.2969" fill="#ADD1B2" rx="11" ry="11" style="stroke:#181818;stroke-width:1;"/><path d="M238.4688,984.9375 Q237.8906,985.2344 237.25,985.375 Q236.6094,985.5313 235.9063,985.5313 Q233.4063,985.5313 232.0781,983.8906 Q230.7656,982.2344 230.7656,979.1094 Q230.7656,975.9844 232.0781,974.3281 Q233.4063,972.6719 235.9063,972.6719 Q236.6094,972.6719 237.25,972.8281 Q237.9063,972.9844 238.4688,973.2813 L238.4688,976 Q237.8438,975.4219 237.25,975.1563 Q236.6563,974.875 236.0313,974.875 Q234.6875,974.875 234,975.9531 Q233.3125,977.0156 233.3125,979.1094 Q233.3125,981.2031 234,982.2813 Q234.6875,983.3438 236.0313,983.3438 Q236.6563,983.3438 237.25,983.0781 Q237.8438,982.7969 238.4688,982.2188 L238.4688,984.9375 Z " fill="#000000"/><text fill="#000000" font-family="sans-serif" font-size="14" lengthAdjust="spacing" textLength="131.1338" x="249.5" y="984.1436">RotationCommand</text><line style="stroke:#181818;stroke-width:0.5;" x1="221.5" x2="382.6338" y1="995.2969" y2="995.2969"/><line style="stroke:#181818;stroke-width:0.5;" x1="221.5" x2="382.6338" y1="1003.2969" y2="1003.2969"/></g><!--class Pathfinder--><g class="entity" data-entity="Pathfinder" data-source-line="50" data-uid="ent0019" id="entity_Pathfinder"><rect fill="#F1F1F1" height="64.2969" rx="2.5" ry="2.5" style="stroke:#181818;stroke-width:0.5;" width="144.4189" x="559" y="647.7969"/><ellipse cx="592.0396" cy="663.7969" fill="#ADD1B2" rx="11" ry="11" style="stroke:#181818;stroke-width:1;"/><path d="M595.0083,669.4375 Q594.4302,669.7344 593.7896,669.875 Q593.1489,670.0313 592.4458,670.0313 Q589.9458,670.0313 588.6177,668.3906 Q587.3052,666.7344 587.3052,663.6094 Q587.3052,660.4844 588.6177,658.8281 Q589.9458,657.1719 592.4458,657.1719 Q593.1489,657.1719 593.7896,657.3281 Q594.4458,657.4844 595.0083,657.7813 L595.0083,660.5 Q594.3833,659.9219 593.7896,659.6563 Q593.1958,659.375 592.5708,659.375 Q591.2271,659.375 590.5396,660.4531 Q589.8521,661.5156 589.8521,663.6094 Q589.8521,665.7031 590.5396,666.7813 Q591.2271,667.8438 592.5708,667.8438 Q593.1958,667.8438 593.7896,667.5781 Q594.3833,667.2969 595.0083,666.7188 L595.0083,669.4375 Z " fill="#000000"/><text fill="#000000" font-family="sans-serif" font-size="14" lengthAdjust="spacing" textLength="72.3311" x="610.0483" y="668.6436">Pathfinder</text><line style="stroke:#181818;stroke-width:0.5;" x1="560" x2="702.4189" y1="679.7969" y2="679.7969"/><line style="stroke:#181818;stroke-width:0.5;" x1="560" x2="702.4189" y1="687.7969" y2="687.7969"/><ellipse cx="570" cy="701.4453" fill="#84BE84" rx="3" ry="3" style="stroke:#038048;stroke-width:1;"/><text fill="#000000" font-family="sans-serif" font-size="14" lengthAdjust="spacing" textLength="118.4189" x="579" y="704.792">int distance(x, y)</text></g><!--class Mob--><g class="entity" data-entity="Mob" data-source-line="54" data-uid="ent0020" id="entity_Mob"><rect fill="#F1F1F1" height="48" rx="2.5" ry="2.5" style="stroke:#181818;stroke-width:0.5;" width="61.5313" x="722" y="457.7969"/><ellipse cx="737" cy="473.7969" fill="#ADD1B2" rx="11" ry="11" style="stroke:#181818;stroke-width:1;"/><path d="M739.9688,479.4375 Q739.3906,479.7344 738.75,479.875 Q738.1094,480.0313 737.4063,480.0313 Q734.9063,480.0313 733.5781,478.3906 Q732.2656,476.7344 732.2656,473.6094 Q732.2656,470.4844 733.5781,468.8281 Q734.9063,467.1719 737.4063,467.1719 Q738.1094,467.1719 738.75,467.3281 Q739.4063,467.4844 739.9688,467.7813 L739.9688,470.5 Q739.3438,469.9219 738.75,469.6563 Q738.1563,469.375 737.5313,469.375 Q736.1875,469.375 735.5,470.4531 Q734.8125,471.5156 734.8125,473.6094 Q734.8125,475.7031 735.5,476.7813 Q736.1875,477.8438 737.5313,477.8438 Q738.1563,477.8438 738.75,477.5781 Q739.3438,477.2969 739.9688,476.7188 L739.9688,479.4375 Z " fill="#000000"/><text fill="#000000" font-family="sans-serif" font-size="14" lengthAdjust="spacing" textLength="29.5313" x="751" y="478.6436">Mob</text><line style="stroke:#181818;stroke-width:0.5;" x1="723" x2="782.5313" y1="489.7969" y2="489.7969"/><line style="stroke:#181818;stroke-width:0.5;" x1="723" x2="782.5313" y1="497.7969" y2="497.7969"/></g><!--class Inventory--><g class="entity" data-entity="Inventory" data-source-line="57" data-uid="ent0024" id="entity_Inventory"><rect fill="#F1F1F1" height="113.1875" rx="2.5" ry="2.5" style="stroke:#181818;stroke-width:0.5;" width="124.3418" x="400" y="623.2969"/><ellipse cx="426.4627" cy="639.2969" fill="#ADD1B2" rx="11" ry="11" style="stroke:#181818;stroke-width:1;"/><path d="M429.4314,644.9375 Q428.8533,645.2344 428.2127,645.375 Q427.5721,645.5313 426.8689,645.5313 Q424.3689,645.5313 423.0408,643.8906 Q421.7283,642.2344 421.7283,639.1094 Q421.7283,635.9844 423.0408,634.3281 Q424.3689,632.6719 426.8689,632.6719 Q427.5721,632.6719 428.2127,632.8281 Q428.8689,632.9844 429.4314,633.2813 L429.4314,636 Q428.8064,635.4219 428.2127,635.1563 Q427.6189,634.875 426.9939,634.875 Q425.6502,634.875 424.9627,635.9531 Q424.2752,637.0156 424.2752,639.1094 Q424.2752,641.2031 424.9627,642.2813 Q425.6502,643.3438 426.9939,643.3438 Q427.6189,643.3438 428.2127,643.0781 Q428.8064,642.7969 429.4314,642.2188 L429.4314,644.9375 Z " fill="#000000"/><text fill="#000000" font-family="sans-serif" font-size="14" lengthAdjust="spacing" textLength="66.8691" x="443.01" y="644.1436">Inventory</text><line style="stroke:#181818;stroke-width:0.5;" x1="401" x2="523.3418" y1="655.2969" y2="655.2969"/><line style="stroke:#181818;stroke-width:0.5;" x1="401" x2="523.3418" y1="663.2969" y2="663.2969"/><ellipse cx="411" cy="676.9453" fill="#84BE84" rx="3" ry="3" style="stroke:#038048;stroke-width:1;"/><text fill="#000000" font-family="sans-serif" font-size="14" lengthAdjust="spacing" textLength="68.9063" x="420" y="680.292">add(item)</text><ellipse cx="411" cy="693.2422" fill="#84BE84" rx="3" ry="3" style="stroke:#038048;stroke-width:1;"/><text fill="#000000" font-family="sans-serif" font-size="14" lengthAdjust="spacing" textLength="96.0244" x="420" y="696.5889">remove(item)</text><ellipse cx="411" cy="709.5391" fill="#84BE84" rx="3" ry="3" style="stroke:#038048;stroke-width:1;"/><text fill="#000000" font-family="sans-serif" font-size="14" lengthAdjust="spacing" textLength="80.5957" x="420" y="712.8857">equip(uuid)</text><ellipse cx="411" cy="725.8359" fill="#84BE84" rx="3" ry="3" style="stroke:#038048;stroke-width:1;"/><text fill="#000000" font-family="sans-serif" font-size="14" lengthAdjust="spacing" textLength="98.3418" x="420" y="729.1826">unequip(uuid)</text></g><!--class InventoryItem--><g class="entity" data-entity="InventoryItem" data-source-line="59" data-uid="ent0027" id="entity_InventoryItem"><rect fill="#F1F1F1" height="80.5938" rx="2.5" ry="2.5" style="stroke:#181818;stroke-width:0.5;" width="231.7754" x="346" y="821.2969"/><ellipse cx="408.2686" cy="837.2969" fill="#ADD1B2" rx="11" ry="11" style="stroke:#181818;stroke-width:1;"/><path d="M411.2373,842.9375 Q410.6592,843.2344 410.0186,843.375 Q409.3779,843.5313 408.6748,843.5313 Q406.1748,843.5313 404.8467,841.8906 Q403.5342,840.2344 403.5342,837.1094 Q403.5342,833.9844 404.8467,832.3281 Q406.1748,830.6719 408.6748,830.6719 Q409.3779,830.6719 410.0186,830.8281 Q410.6748,830.9844 411.2373,831.2813 L411.2373,834 Q410.6123,833.4219 410.0186,833.1563 Q409.4248,832.875 408.7998,832.875 Q407.4561,832.875 406.7686,833.9531 Q406.0811,835.0156 406.0811,837.1094 Q406.0811,839.2031 406.7686,840.2813 Q407.4561,841.3438 408.7998,841.3438 Q409.4248,841.3438 410.0186,841.0781 Q410.6123,840.7969 411.2373,840.2188 L411.2373,842.9375 Z " fill="#000000"/><text fill="#000000" font-family="sans-serif" font-size="14" lengthAdjust="spacing" textLength="98.7383" x="428.7686" y="842.1436">InventoryItem</text><line style="stroke:#181818;stroke-width:0.5;" x1="347" x2="576.7754" y1="853.2969" y2="853.2969"/><line style="stroke:#181818;stroke-width:0.5;" x1="347" x2="576.7754" y1="861.2969" y2="861.2969"/><ellipse cx="357" cy="874.9453" fill="#84BE84" rx="3" ry="3" style="stroke:#038048;stroke-width:1;"/><text fill="#000000" font-family="sans-serif" font-size="14" lengthAdjust="spacing" textLength="205.7754" x="366" y="878.292">CalculationNode equipment()</text><ellipse cx="357" cy="891.2422" fill="#84BE84" rx="3" ry="3" style="stroke:#038048;stroke-width:1;"/><text fill="#000000" font-family="sans-serif" font-size="14" lengthAdjust="spacing" textLength="64.6748" x="366" y="894.5889">Node ui()</text></g><!--class TargetStrategy--><g class="entity" data-entity="TargetStrategy" data-source-line="60" data-uid="ent0029" id="entity_TargetStrategy"><rect fill="#F1F1F1" height="48" rx="2.5" ry="2.5" style="stroke:#181818;stroke-width:0.5;" width="137.8613" x="894" y="837.7969"/><ellipse cx="909" cy="853.7969" fill="#ADD1B2" rx="11" ry="11" style="stroke:#181818;stroke-width:1;"/><path d="M911.9688,859.4375 Q911.3906,859.7344 910.75,859.875 Q910.1094,860.0313 909.4063,860.0313 Q906.9063,860.0313 905.5781,858.3906 Q904.2656,856.7344 904.2656,853.6094 Q904.2656,850.4844 905.5781,848.8281 Q906.9063,847.1719 909.4063,847.1719 Q910.1094,847.1719 910.75,847.3281 Q911.4063,847.4844 911.9688,847.7813 L911.9688,850.5 Q911.3438,849.9219 910.75,849.6563 Q910.1563,849.375 909.5313,849.375 Q908.1875,849.375 907.5,850.4531 Q906.8125,851.5156 906.8125,853.6094 Q906.8125,855.7031 907.5,856.7813 Q908.1875,857.8438 909.5313,857.8438 Q910.1563,857.8438 910.75,857.5781 Q911.3438,857.2969 911.9688,856.7188 L911.9688,859.4375 Z " fill="#000000"/><text fill="#000000" font-family="sans-serif" font-size="14" lengthAdjust="spacing" textLength="105.8613" x="923" y="858.6436">TargetStrategy</text><line style="stroke:#181818;stroke-width:0.5;" x1="895" x2="1030.8613" y1="869.7969" y2="869.7969"/><line style="stroke:#181818;stroke-width:0.5;" x1="895" x2="1030.8613" y1="877.7969" y2="877.7969"/></g><!--class StandStillStrategy--><g class="entity" data-entity="StandStillStrategy" data-source-line="61" data-uid="ent0031" id="entity_StandStillStrategy"><rect fill="#F1F1F1" height="48" rx="2.5" ry="2.5" style="stroke:#181818;stroke-width:0.5;" width="158.7451" x="699.5" y="837.7969"/><ellipse cx="714.5" cy="853.7969" fill="#ADD1B2" rx="11" ry="11" style="stroke:#181818;stroke-width:1;"/><path d="M717.4688,859.4375 Q716.8906,859.7344 716.25,859.875 Q715.6094,860.0313 714.9063,860.0313 Q712.4063,860.0313 711.0781,858.3906 Q709.7656,856.7344 709.7656,853.6094 Q709.7656,850.4844 711.0781,848.8281 Q712.4063,847.1719 714.9063,847.1719 Q715.6094,847.1719 716.25,847.3281 Q716.9063,847.4844 717.4688,847.7813 L717.4688,850.5 Q716.8438,849.9219 716.25,849.6563 Q715.6563,849.375 715.0313,849.375 Q713.6875,849.375 713,850.4531 Q712.3125,851.5156 712.3125,853.6094 Q712.3125,855.7031 713,856.7813 Q713.6875,857.8438 715.0313,857.8438 Q715.6563,857.8438 716.25,857.5781 Q716.8438,857.2969 717.4688,856.7188 L717.4688,859.4375 Z " fill="#000000"/><text fill="#000000" font-family="sans-serif" font-size="14" lengthAdjust="spacing" textLength="126.7451" x="728.5" y="858.6436">StandStillStrategy</text><line style="stroke:#181818;stroke-width:0.5;" x1="700.5" x2="857.2451" y1="869.7969" y2="869.7969"/><line style="stroke:#181818;stroke-width:0.5;" x1="700.5" x2="857.2451" y1="877.7969" y2="877.7969"/></g><!--class CalculationNode--><g class="entity" data-entity="CalculationNode" data-source-line="75" data-uid="ent0033" id="entity_CalculationNode"><rect fill="#F1F1F1" height="113.1875" rx="2.5" ry="2.5" style="stroke:#181818;stroke-width:0.5;" width="191.2861" x="1031.5" y="425.2969"/><ellipse cx="1066.5914" cy="441.2969" fill="#ADD1B2" rx="11" ry="11" style="stroke:#181818;stroke-width:1;"/><path d="M1069.5601,446.9375 Q1068.982,447.2344 1068.3414,447.375 Q1067.7007,447.5313 1066.9976,447.5313 Q1064.4976,447.5313 1063.1695,445.8906 Q1061.857,444.2344 1061.857,441.1094 Q1061.857,437.9844 1063.1695,436.3281 Q1064.4976,434.6719 1066.9976,434.6719 Q1067.7007,434.6719 1068.3414,434.8281 Q1068.9976,434.9844 1069.5601,435.2813 L1069.5601,438 Q1068.9351,437.4219 1068.3414,437.1563 Q1067.7476,436.875 1067.1226,436.875 Q1065.7789,436.875 1065.0914,437.9531 Q1064.4039,439.0156 1064.4039,441.1094 Q1064.4039,443.2031 1065.0914,444.2813 Q1065.7789,445.3438 1067.1226,445.3438 Q1067.7476,445.3438 1068.3414,445.0781 Q1068.9351,444.7969 1069.5601,444.2188 L1069.5601,446.9375 Z " fill="#000000"/><text fill="#000000" font-family="sans-serif" font-size="14" lengthAdjust="spacing" textLength="114.6387" x="1085.0561" y="446.1436">CalculationNode</text><line style="stroke:#181818;stroke-width:0.5;" x1="1032.5" x2="1221.7861" y1="457.2969" y2="457.2969"/><polygon fill="none" points="1042.5,465.9453,1046.5,469.9453,1042.5,473.9453,1038.5,469.9453" style="stroke:#B38D22;stroke-width:1;"/><text fill="#000000" font-family="sans-serif" font-size="14" lengthAdjust="spacing" textLength="165.2861" x="1051.5" y="474.292">CalculationNode parent</text><line style="stroke:#181818;stroke-width:0.5;" x1="1032.5" x2="1221.7861" y1="481.5938" y2="481.5938"/><ellipse cx="1042.5" cy="495.2422" fill="#84BE84" rx="3" ry="3" style="stroke:#038048;stroke-width:1;"/><text fill="#000000" font-family="sans-serif" font-size="14" lengthAdjust="spacing" textLength="162.7227" x="1051.5" y="498.5889">T compute(Event[T], T)</text><polygon fill="#FFFF44" points="1042.5,506.5391,1046.5,510.5391,1042.5,514.5391,1038.5,510.5391" style="stroke:#B38D22;stroke-width:1;"/><text fill="#000000" font-family="sans-serif" font-size="14" lengthAdjust="spacing" textLength="160.1182" x="1051.5" y="514.8857">void add(Event[T] → T)</text><ellipse cx="1042.5" cy="527.8359" fill="#84BE84" rx="3" ry="3" style="stroke:#038048;stroke-width:1;"/><text fill="#000000" font-family="sans-serif" font-size="14" lengthAdjust="spacing" textLength="97.8906" x="1051.5" y="531.1826">void destroy()</text></g><!--class Duration--><g class="entity" data-entity="Duration" data-source-line="82" data-uid="ent0034" id="entity_Duration"><rect fill="#F1F1F1" height="96.8906" rx="2.5" ry="2.5" style="stroke:#181818;stroke-width:0.5;" width="136.8311" x="1310.5" y="631.2969"/><ellipse cx="1345.3114" cy="647.2969" fill="#ADD1B2" rx="11" ry="11" style="stroke:#181818;stroke-width:1;"/><path d="M1348.2802,652.9375 Q1347.7021,653.2344 1347.0614,653.375 Q1346.4208,653.5313 1345.7177,653.5313 Q1343.2177,653.5313 1341.8896,651.8906 Q1340.5771,650.2344 1340.5771,647.1094 Q1340.5771,643.9844 1341.8896,642.3281 Q1343.2177,640.6719 1345.7177,640.6719 Q1346.4208,640.6719 1347.0614,640.8281 Q1347.7177,640.9844 1348.2802,641.2813 L1348.2802,644 Q1347.6552,643.4219 1347.0614,643.1563 Q1346.4677,642.875 1345.8427,642.875 Q1344.4989,642.875 1343.8114,643.9531 Q1343.1239,645.0156 1343.1239,647.1094 Q1343.1239,649.2031 1343.8114,650.2813 Q1344.4989,651.3438 1345.8427,651.3438 Q1346.4677,651.3438 1347.0614,651.0781 Q1347.6552,650.7969 1348.2802,650.2188 L1348.2802,652.9375 Z " fill="#000000"/><text fill="#000000" font-family="sans-serif" font-size="14" lengthAdjust="spacing" textLength="60.8057" x="1363.714" y="652.1436">Duration</text><line style="stroke:#181818;stroke-width:0.5;" x1="1311.5" x2="1446.3311" y1="663.2969" y2="663.2969"/><text fill="#000000" font-family="sans-serif" font-size="14" lengthAdjust="spacing" textLength="110.8311" x="1330.5" y="680.292">destroys parent</text><text fill="#000000" font-family="sans-serif" font-size="14" lengthAdjust="spacing" textLength="100.4336" x="1330.5" y="696.5889">when runs out</text><rect fill="none" height="6" style="stroke:#C82930;stroke-width:1;" width="6" x="1318.5" y="706.5391"/><text fill="#000000" font-family="sans-serif" font-size="14" lengthAdjust="spacing" textLength="94.8145" x="1330.5" y="712.8857">float duration</text><line style="stroke:#181818;stroke-width:0.5;" x1="1311.5" x2="1446.3311" y1="720.1875" y2="720.1875"/></g><!--class EffectStun--><g class="entity" data-entity="EffectStun" data-source-line="89" data-uid="ent0036" id="entity_EffectStun"><rect fill="#F1F1F1" height="48" rx="2.5" ry="2.5" style="stroke:#181818;stroke-width:0.5;" width="104.625" x="1170.5" y="655.7969"/><ellipse cx="1185.5" cy="671.7969" fill="#ADD1B2" rx="11" ry="11" style="stroke:#181818;stroke-width:1;"/><path d="M1188.4688,677.4375 Q1187.8906,677.7344 1187.25,677.875 Q1186.6094,678.0313 1185.9063,678.0313 Q1183.4063,678.0313 1182.0781,676.3906 Q1180.7656,674.7344 1180.7656,671.6094 Q1180.7656,668.4844 1182.0781,666.8281 Q1183.4063,665.1719 1185.9063,665.1719 Q1186.6094,665.1719 1187.25,665.3281 Q1187.9063,665.4844 1188.4688,665.7813 L1188.4688,668.5 Q1187.8438,667.9219 1187.25,667.6563 Q1186.6563,667.375 1186.0313,667.375 Q1184.6875,667.375 1184,668.4531 Q1183.3125,669.5156 1183.3125,671.6094 Q1183.3125,673.7031 1184,674.7813 Q1184.6875,675.8438 1186.0313,675.8438 Q1186.6563,675.8438 1187.25,675.5781 Q1187.8438,675.2969 1188.4688,674.7188 L1188.4688,677.4375 Z " fill="#000000"/><text fill="#000000" font-family="sans-serif" font-size="14" lengthAdjust="spacing" textLength="72.625" x="1199.5" y="676.6436">EffectStun</text><line style="stroke:#181818;stroke-width:0.5;" x1="1171.5" x2="1274.125" y1="687.7969" y2="687.7969"/><line style="stroke:#181818;stroke-width:0.5;" x1="1171.5" x2="1274.125" y1="695.7969" y2="695.7969"/></g><!--class ArmorItem--><g class="entity" data-entity="ArmorItem" data-source-line="91" data-uid="ent0039" id="entity_ArmorItem"><rect fill="#F1F1F1" height="48" rx="2.5" ry="2.5" style="stroke:#181818;stroke-width:0.5;" width="107.1611" x="1028.5" y="655.7969"/><ellipse cx="1043.5" cy="671.7969" fill="#ADD1B2" rx="11" ry="11" style="stroke:#181818;stroke-width:1;"/><path d="M1046.4688,677.4375 Q1045.8906,677.7344 1045.25,677.875 Q1044.6094,678.0313 1043.9063,678.0313 Q1041.4063,678.0313 1040.0781,676.3906 Q1038.7656,674.7344 1038.7656,671.6094 Q1038.7656,668.4844 1040.0781,666.8281 Q1041.4063,665.1719 1043.9063,665.1719 Q1044.6094,665.1719 1045.25,665.3281 Q1045.9063,665.4844 1046.4688,665.7813 L1046.4688,668.5 Q1045.8438,667.9219 1045.25,667.6563 Q1044.6563,667.375 1044.0313,667.375 Q1042.6875,667.375 1042,668.4531 Q1041.3125,669.5156 1041.3125,671.6094 Q1041.3125,673.7031 1042,674.7813 Q1042.6875,675.8438 1044.0313,675.8438 Q1044.6563,675.8438 1045.25,675.5781 Q1045.8438,675.2969 1046.4688,674.7188 L1046.4688,677.4375 Z " fill="#000000"/><text fill="#000000" font-family="sans-serif" font-size="14" lengthAdjust="spacing" textLength="75.1611" x="1057.5" y="676.6436">ArmorItem</text><line style="stroke:#181818;stroke-width:0.5;" x1="1029.5" x2="1134.6611" y1="687.7969" y2="687.7969"/><line style="stroke:#181818;stroke-width:0.5;" x1="1029.5" x2="1134.6611" y1="695.7969" y2="695.7969"/></g><!--class Maze--><g class="entity" data-entity="Maze" data-source-line="96" data-uid="ent0043" id="entity_Maze"><rect fill="#F1F1F1" height="48" rx="2.5" ry="2.5" style="stroke:#181818;stroke-width:0.5;" width="68.6201" x="1036.5" y="60.7969"/><ellipse cx="1051.5" cy="76.7969" fill="#ADD1B2" rx="11" ry="11" style="stroke:#181818;stroke-width:1;"/><path d="M1054.4688,82.4375 Q1053.8906,82.7344 1053.25,82.875 Q1052.6094,83.0313 1051.9063,83.0313 Q1049.4063,83.0313 1048.0781,81.3906 Q1046.7656,79.7344 1046.7656,76.6094 Q1046.7656,73.4844 1048.0781,71.8281 Q1049.4063,70.1719 1051.9063,70.1719 Q1052.6094,70.1719 1053.25,70.3281 Q1053.9063,70.4844 1054.4688,70.7813 L1054.4688,73.5 Q1053.8438,72.9219 1053.25,72.6563 Q1052.6563,72.375 1052.0313,72.375 Q1050.6875,72.375 1050,73.4531 Q1049.3125,74.5156 1049.3125,76.6094 Q1049.3125,78.7031 1050,79.7813 Q1050.6875,80.8438 1052.0313,80.8438 Q1052.6563,80.8438 1053.25,80.5781 Q1053.8438,80.2969 1054.4688,79.7188 L1054.4688,82.4375 Z " fill="#000000"/><text fill="#000000" font-family="sans-serif" font-size="14" lengthAdjust="spacing" textLength="36.6201" x="1065.5" y="81.6436">Maze</text><line style="stroke:#181818;stroke-width:0.5;" x1="1037.5" x2="1104.1201" y1="92.7969" y2="92.7969"/><line style="stroke:#181818;stroke-width:0.5;" x1="1037.5" x2="1104.1201" y1="100.7969" y2="100.7969"/></g><!--class Cell--><g class="entity" data-entity="Cell" data-source-line="97" data-uid="ent0045" id="entity_Cell"><rect fill="#F1F1F1" height="48" rx="2.5" ry="2.5" style="stroke:#181818;stroke-width:0.5;" width="58.168" x="1042" y="259.2969"/><ellipse cx="1057" cy="275.2969" fill="#ADD1B2" rx="11" ry="11" style="stroke:#181818;stroke-width:1;"/><path d="M1059.9688,280.9375 Q1059.3906,281.2344 1058.75,281.375 Q1058.1094,281.5313 1057.4063,281.5313 Q1054.9063,281.5313 1053.5781,279.8906 Q1052.2656,278.2344 1052.2656,275.1094 Q1052.2656,271.9844 1053.5781,270.3281 Q1054.9063,268.6719 1057.4063,268.6719 Q1058.1094,268.6719 1058.75,268.8281 Q1059.4063,268.9844 1059.9688,269.2813 L1059.9688,272 Q1059.3438,271.4219 1058.75,271.1563 Q1058.1563,270.875 1057.5313,270.875 Q1056.1875,270.875 1055.5,271.9531 Q1054.8125,273.0156 1054.8125,275.1094 Q1054.8125,277.2031 1055.5,278.2813 Q1056.1875,279.3438 1057.5313,279.3438 Q1058.1563,279.3438 1058.75,279.0781 Q1059.3438,278.7969 1059.9688,278.2188 L1059.9688,280.9375 Z " fill="#000000"/><text fill="#000000" font-family="sans-serif" font-size="14" lengthAdjust="spacing" textLength="26.168" x="1071" y="280.1436">Cell</text><line style="stroke:#181818;stroke-width:0.5;" x1="1043" x2="1099.168" y1="291.2969" y2="291.2969"/><line style="stroke:#181818;stroke-width:0.5;" x1="1043" x2="1099.168" y1="299.2969" y2="299.2969"/></g><!--class LevelManager--><g class="entity" data-entity="LevelManager" data-source-line="99" data-uid="ent0047" id="entity_LevelManager"><rect fill="#F1F1F1" height="48" rx="2.5" ry="2.5" style="stroke:#181818;stroke-width:0.5;" width="130.5674" x="712.5" y="60.7969"/><ellipse cx="727.5" cy="76.7969" fill="#ADD1B2" rx="11" ry="11" style="stroke:#181818;stroke-width:1;"/><path d="M730.4688,82.4375 Q729.8906,82.7344 729.25,82.875 Q728.6094,83.0313 727.9063,83.0313 Q725.4063,83.0313 724.0781,81.3906 Q722.7656,79.7344 722.7656,76.6094 Q722.7656,73.4844 724.0781,71.8281 Q725.4063,70.1719 727.9063,70.1719 Q728.6094,70.1719 729.25,70.3281 Q729.9063,70.4844 730.4688,70.7813 L730.4688,73.5 Q729.8438,72.9219 729.25,72.6563 Q728.6563,72.375 728.0313,72.375 Q726.6875,72.375 726,73.4531 Q725.3125,74.5156 725.3125,76.6094 Q725.3125,78.7031 726,79.7813 Q726.6875,80.8438 728.0313,80.8438 Q728.6563,80.8438 729.25,80.5781 Q729.8438,80.2969 730.4688,79.7188 L730.4688,82.4375 Z " fill="#000000"/><text fill="#000000" font-family="sans-serif" font-size="14" lengthAdjust="spacing" textLength="98.5674" x="741.5" y="81.6436">LevelManager</text><line style="stroke:#181818;stroke-width:0.5;" x1="713.5" x2="842.0674" y1="92.7969" y2="92.7969"/><line style="stroke:#181818;stroke-width:0.5;" x1="713.5" x2="842.0674" y1="100.7969" y2="100.7969"/></g><!--class LevelFactory--><g class="entity" data-entity="LevelFactory" data-source-line="100" data-uid="ent0049" id="entity_LevelFactory"><rect fill="#F1F1F1" height="48" rx="2.5" ry="2.5" style="stroke:#181818;stroke-width:0.5;" width="121.626" x="555" y="60.7969"/><ellipse cx="570" cy="76.7969" fill="#ADD1B2" rx="11" ry="11" style="stroke:#181818;stroke-width:1;"/><path d="M572.9688,82.4375 Q572.3906,82.7344 571.75,82.875 Q571.1094,83.0313 570.4063,83.0313 Q567.9063,83.0313 566.5781,81.3906 Q565.2656,79.7344 565.2656,76.6094 Q565.2656,73.4844 566.5781,71.8281 Q567.9063,70.1719 570.4063,70.1719 Q571.1094,70.1719 571.75,70.3281 Q572.4063,70.4844 572.9688,70.7813 L572.9688,73.5 Q572.3438,72.9219 571.75,72.6563 Q571.1563,72.375 570.5313,72.375 Q569.1875,72.375 568.5,73.4531 Q567.8125,74.5156 567.8125,76.6094 Q567.8125,78.7031 568.5,79.7813 Q569.1875,80.8438 570.5313,80.8438 Q571.1563,80.8438 571.75,80.5781 Q572.3438,80.2969 572.9688,79.7188 L572.9688,82.4375 Z " fill="#000000"/><text fill="#000000" font-family="sans-serif" font-size="14" lengthAdjust="spacing" textLength="89.626" x="584" y="81.6436">LevelFactory</text><line style="stroke:#181818;stroke-width:0.5;" x1="556" x2="675.626" y1="92.7969" y2="92.7969"/><line style="stroke:#181818;stroke-width:0.5;" x1="556" x2="675.626" y1="100.7969" y2="100.7969"/></g><!--class MobFactory--><g class="entity" data-entity="MobFactory" data-source-line="101" data-uid="ent0052" id="entity_MobFactory"><rect fill="#F1F1F1" height="80.5938" rx="2.5" ry="2.5" style="stroke:#181818;stroke-width:0.5;" width="177.334" x="342.5" y="44.2969"/><ellipse cx="386.0201" cy="60.2969" fill="#A9DCDF" rx="11" ry="11" style="stroke:#181818;stroke-width:1;"/><path d="M386.1294,55.6406 L384.9732,60.7188 L387.3013,60.7188 L386.1294,55.6406 Z M384.6451,53.4063 L387.6294,53.4063 L390.9888,65.7969 L388.5357,65.7969 L387.7701,62.7344 L384.4888,62.7344 L383.7388,65.7969 L381.3013,65.7969 L384.6451,53.4063 Z " fill="#000000"/><text fill="#000000" font-family="sans-serif" font-size="14" font-style="italic" lengthAdjust="spacing" textLength="81.9561" x="406.3579" y="65.1436">MobFactory</text><line style="stroke:#181818;stroke-width:0.5;" x1="343.5" x2="518.834" y1="76.2969" y2="76.2969"/><rect fill="none" height="6" style="stroke:#C82930;stroke-width:1;" width="6" x="350.5" y="86.9453"/><text fill="#000000" font-family="sans-serif" font-size="14" lengthAdjust="spacing" textLength="112.5811" x="362.5" y="93.292">int max_spawns</text><line style="stroke:#181818;stroke-width:0.5;" x1="343.5" x2="518.834" y1="100.5938" y2="100.5938"/><ellipse cx="353.5" cy="114.2422" fill="#84BE84" rx="3" ry="3" style="stroke:#038048;stroke-width:1;"/><text fill="#000000" font-family="sans-serif" font-size="14" lengthAdjust="spacing" textLength="151.334" x="362.5" y="117.5889">void spawn(int index)</text></g><!--link Character to Command--><g class="link" data-entity-1="Character" data-entity-2="Command" data-source-line="25" data-uid="lnk5" id="link_Character_Command"><path codeLine="25" d="M499.47,364.3569 C380.81,438.6769 220.99,547.7369 187,615.2969 C151.81,685.2469 171.4665,775.3219 186.4265,823.9719" fill="none" id="Character-to-Command" style="stroke:#181818;stroke-width:1;"/><polygon fill="#181818" points="188.19,829.7069,189.368,819.9287,186.7204,824.9277,181.7214,822.2801,188.19,829.7069" style="stroke:#181818;stroke-width:1;"/><text fill="#000000" font-family="sans-serif" font-size="13" lengthAdjust="spacing" textLength="29.7832" x="224" y="581.3638">uses</text></g><!--link CommandBuilder to Command--><g class="link" data-entity-1="CommandBuilder" data-entity-2="Command" data-source-line="27" data-uid="lnk6" id="link_CommandBuilder_Command"><path codeLine="27" d="M254.56,744.5069 C240.74,773.4369 227.6057,800.9126 216.4257,824.3226" fill="none" id="CommandBuilder-to-Command" style="stroke:#181818;stroke-width:1;"/><polygon fill="#181818" points="213.84,829.7369,221.3281,823.3393,215.9948,825.225,214.1091,819.8917,213.84,829.7369" style="stroke:#181818;stroke-width:1;"/><text fill="#000000" font-family="sans-serif" font-size="13" lengthAdjust="spacing" textLength="48.3247" x="241" y="787.3638">creates</text></g><!--reverse link Player to CommandBuilder--><g class="link" data-entity-1="Player" data-entity-2="CommandBuilder" data-source-line="29" data-uid="lnk8" id="link_Player_CommandBuilder"><path codeLine="29" d="M476.8507,513.8701 C445.8307,540.5401 402.75,577.5669 359.34,614.8869" fill="none" id="Player-backto-CommandBuilder" style="stroke:#181818;stroke-width:1;"/><polygon fill="#181818" points="485.95,506.0469,478.7926,506.9254,476.8507,513.8701,484.0081,512.9916,485.95,506.0469" style="stroke:#181818;stroke-width:1;"/><text fill="#000000" font-family="sans-serif" font-size="13" lengthAdjust="spacing" textLength="36.5625" x="414" y="581.3638">many</text></g><!--link Node to Character--><g class="link" data-entity-1="Node" data-entity-2="Character" data-source-line="36" data-uid="lnk11" id="link_Node_Character"><path codeLine="36" d="M455.27,283.2969 C466.95,283.2969 466.64,283.2969 478.33,283.2969" fill="none" id="Node-to-Character" style="stroke:#181818;stroke-width:1;"/><polygon fill="#181818" points="490.33,283.2969,484.33,279.2969,478.33,283.2969,484.33,287.2969,490.33,283.2969" style="stroke:#181818;stroke-width:1;"/></g><!--reverse link Environment to Character--><g class="link" data-entity-1="Environment" data-entity-2="Character" data-source-line="38" data-uid="lnk13" id="link_Environment_Character"><path codeLine="38" d="M893.7733,115.3863 C857.8733,138.3663 810.83,168.4769 758.26,202.1269" fill="none" id="Environment-backto-Character" style="stroke:#181818;stroke-width:1;"/><polygon fill="#181818" points="903.88,108.9169,896.6701,108.7827,893.7733,115.3863,900.9831,115.5205,903.88,108.9169" style="stroke:#181818;stroke-width:1;"/><text fill="#000000" font-family="sans-serif" font-size="13" lengthAdjust="spacing" textLength="36.5625" x="825" y="168.3638">many</text></g><!--reverse link Command to MovementCommand--><g class="link" data-entity-1="Command" data-entity-2="MovementCommand" data-source-line="45" data-uid="lnk16" id="link_Command_MovementCommand"><path codeLine="45" d="M161.4816,907.7806 C143.6016,929.2206 131.76,943.4169 115.48,962.9369" fill="none" id="Command-backto-MovementCommand" style="stroke:#181818;stroke-width:1;"/><polygon fill="none" points="173.01,893.9569,156.8737,903.9378,166.0895,911.6234,173.01,893.9569" style="stroke:#181818;stroke-width:1;"/></g><!--reverse link Command to RotationCommand--><g class="link" data-entity-1="Command" data-entity-2="RotationCommand" data-source-line="46" data-uid="lnk18" id="link_Command_RotationCommand"><path codeLine="46" d="M236.5184,907.7806 C254.3984,929.2206 266.24,943.4169 282.52,962.9369" fill="none" id="Command-backto-RotationCommand" style="stroke:#181818;stroke-width:1;"/><polygon fill="none" points="224.99,893.9569,231.9105,911.6234,241.1263,903.9378,224.99,893.9569" style="stroke:#181818;stroke-width:1;"/></g><!--reverse link Character to Mob--><g class="link" data-entity-1="Character" data-entity-2="Mob" data-source-line="54" data-uid="lnk21" id="link_Character_Mob"><path codeLine="54" d="M691.3626,379.8681 C711.8426,413.3981 724.71,434.4769 738.75,457.4569" fill="none" id="Character-backto-Mob" style="stroke:#181818;stroke-width:1;"/><polygon fill="none" points="681.98,364.5069,686.2422,382.9956,696.483,376.7406,681.98,364.5069" style="stroke:#181818;stroke-width:1;"/></g><!--reverse link Mob to MovementStrategy--><g class="link" data-entity-1="Mob" data-entity-2="MovementStrategy" data-source-line="55" data-uid="lnk22" id="link_Mob_MovementStrategy"><path codeLine="55" d="M772.4019,516.4438 C791.2819,549.2038 819.98,598.9769 843.03,638.9469" fill="none" id="Mob-backto-MovementStrategy" style="stroke:#181818;stroke-width:1;"/><polygon fill="#181818" points="766.41,506.0469,765.9403,513.2427,772.4019,516.4438,772.8716,509.2481,766.41,506.0469" style="stroke:#181818;stroke-width:1;"/></g><!--reverse link Character to Player--><g class="link" data-entity-1="Character" data-entity-2="Player" data-source-line="56" data-uid="lnk23" id="link_Character_Player"><path codeLine="56" d="M574.6374,379.8681 C554.1574,413.3981 541.29,434.4769 527.25,457.4569" fill="none" id="Character-backto-Player" style="stroke:#181818;stroke-width:1;"/><polygon fill="none" points="584.02,364.5069,569.517,376.7406,579.7578,382.9956,584.02,364.5069" style="stroke:#181818;stroke-width:1;"/></g><!--reverse link Player to Inventory--><g class="link" data-entity-1="Player" data-entity-2="Inventory" data-source-line="57" data-uid="lnk25" id="link_Player_Inventory"><path codeLine="57" d="M503.9274,517.66 C496.4574,546.36 486.54,584.4969 476.45,623.2569" fill="none" id="Player-backto-Inventory" style="stroke:#181818;stroke-width:1;"/><polygon fill="#181818" points="506.95,506.0469,501.5677,510.8459,503.9274,517.66,509.3097,512.861,506.95,506.0469" style="stroke:#181818;stroke-width:1;"/></g><!--reverse link Player to Pathfinder--><g class="link" data-entity-1="Player" data-entity-2="Pathfinder" data-source-line="58" data-uid="lnk26" id="link_Player_Pathfinder"><path codeLine="58" d="M533.1881,516.3283 C554.3681,551.5183 588.42,608.0769 612.16,647.4969" fill="none" id="Player-backto-Pathfinder" style="stroke:#181818;stroke-width:1;"/><polygon fill="#181818" points="527,506.0469,526.6669,513.2503,533.1881,516.3283,533.5212,509.1249,527,506.0469" style="stroke:#181818;stroke-width:1;"/><text fill="#000000" font-family="sans-serif" font-size="13" lengthAdjust="spacing" textLength="119.9517" x="573" y="581.3638">runs every second</text></g><!--reverse link Inventory to InventoryItem--><g class="link" data-entity-1="Inventory" data-entity-2="InventoryItem" data-source-line="59" data-uid="lnk28" id="link_Inventory_InventoryItem"><path codeLine="59" d="M462,748.7669 C462,776.1069 462,796.3769 462,821.1469" fill="none" id="Inventory-backto-InventoryItem" style="stroke:#181818;stroke-width:1;"/><polygon fill="#181818" points="462,736.7669,458,742.7669,462,748.7669,466,742.7669,462,736.7669" style="stroke:#181818;stroke-width:1;"/><text fill="#000000" font-family="sans-serif" font-size="13" lengthAdjust="spacing" textLength="36.5625" x="463" y="787.3638">many</text></g><!--reverse link MovementStrategy to TargetStrategy--><g class="link" data-entity-1="MovementStrategy" data-entity-2="TargetStrategy" data-source-line="60" data-uid="lnk30" id="link_MovementStrategy_TargetStrategy"><path codeLine="60" d="M895.8285,736.1428 C915.1785,772.0528 934.54,807.9769 950.51,837.6169" fill="none" id="MovementStrategy-backto-TargetStrategy" style="stroke:#181818;stroke-width:1;"/><polygon fill="none" points="887.29,720.2969,890.5466,738.989,901.1105,733.2966,887.29,720.2969" style="stroke:#181818;stroke-width:1;"/></g><!--reverse link MovementStrategy to StandStillStrategy--><g class="link" data-entity-1="MovementStrategy" data-entity-2="StandStillStrategy" data-source-line="61" data-uid="lnk32" id="link_MovementStrategy_StandStillStrategy"><path codeLine="61" d="M839.0757,736.5025 C821.7157,772.4125 804.53,807.9769 790.2,837.6169" fill="none" id="MovementStrategy-backto-StandStillStrategy" style="stroke:#181818;stroke-width:1;"/><polygon fill="none" points="846.91,720.2969,833.6738,733.8911,844.4776,739.114,846.91,720.2969" style="stroke:#181818;stroke-width:1;"/></g><!--reverse link CalculationNode to Duration--><g class="link" data-entity-1="CalculationNode" data-entity-2="Duration" data-source-line="88" data-uid="lnk35" id="link_CalculationNode_Duration"><path codeLine="88" d="M1212.7479,549.4883 C1250.2879,578.6883 1281.61,603.0469 1317.55,630.9969" fill="none" id="CalculationNode-backto-Duration" style="stroke:#181818;stroke-width:1;"/><polygon fill="none" points="1198.54,538.4369,1209.0641,554.2243,1216.4318,544.7524,1198.54,538.4369" style="stroke:#181818;stroke-width:1;"/></g><!--reverse link CalculationNode to EffectStun--><g class="link" data-entity-1="CalculationNode" data-entity-2="EffectStun" data-source-line="89" data-uid="lnk37" id="link_CalculationNode_EffectStun"><path codeLine="89" d="M1162.1697,554.601 C1181.1897,593.421 1197.66,627.0569 1211.69,655.7069" fill="none" id="CalculationNode-backto-EffectStun" style="stroke:#181818;stroke-width:1;"/><polygon fill="none" points="1154.25,538.4369,1156.7816,557.2409,1167.5577,551.9611,1154.25,538.4369" style="stroke:#181818;stroke-width:1;"/></g><!--reverse link EffectStun to Duration--><g class="link" data-entity-1="EffectStun" data-entity-2="Duration" data-source-line="90" data-uid="lnk38" id="link_EffectStun_Duration"><path codeLine="90" d="M1287.71,679.7969 C1299.28,679.7969 1298.84,679.7969 1310.41,679.7969" fill="none" id="EffectStun-backto-Duration" style="stroke:#181818;stroke-width:1;"/><polygon fill="#181818" points="1275.71,679.7969,1281.71,683.7969,1287.71,679.7969,1281.71,675.7969,1275.71,679.7969" style="stroke:#181818;stroke-width:1;"/></g><!--reverse link CalculationNode to ArmorItem--><g class="link" data-entity-1="CalculationNode" data-entity-2="ArmorItem" data-source-line="91" data-uid="lnk40" id="link_CalculationNode_ArmorItem"><path codeLine="91" d="M1110.199,555.9797 C1101.279,594.7997 1093.88,627.0569 1087.3,655.7069" fill="none" id="CalculationNode-backto-ArmorItem" style="stroke:#181818;stroke-width:1;"/><polygon fill="none" points="1114.23,538.4369,1104.3514,554.6361,1116.0466,557.3234,1114.23,538.4369" style="stroke:#181818;stroke-width:1;"/></g><!--reverse link Character to CalculationNode--><g class="link" data-entity-1="Character" data-entity-2="CalculationNode" data-source-line="93" data-uid="lnk41" id="link_Character_CalculationNode"><path codeLine="93" d="M786.7002,345.4322 C868.7802,378.0822 958.57,413.7969 1031.18,442.6869" fill="none" id="Character-backto-CalculationNode" style="stroke:#181818;stroke-width:1;"/><polygon fill="#181818" points="775.55,340.9969,779.6467,346.9313,786.7002,345.4322,782.6036,339.4978,775.55,340.9969" style="stroke:#181818;stroke-width:1;"/></g><!--reverse link CalculationNode to CalculationNode--><g class="link" data-entity-1="CalculationNode" data-entity-2="CalculationNode" data-source-line="94" data-uid="lnk42" id="link_CalculationNode_CalculationNode"><path codeLine="94" d="M1234.5637,467.1299 C1254.8237,468.7099 1257.5,472.9769 1257.5,481.7969 C1257.5,490.6169 1242.86,495.8169 1222.6,497.3969" fill="none" id="CalculationNode-backto-CalculationNode" style="stroke:#181818;stroke-width:1;"/><polygon fill="#181818" points="1222.6,466.1969,1228.2708,470.6513,1234.5637,467.1299,1228.8928,462.6755,1222.6,466.1969" style="stroke:#181818;stroke-width:1;"/><text fill="#000000" font-family="sans-serif" font-size="13" lengthAdjust="spacing" textLength="110.2334" x="1263.5" y="486.3638">children, 0-many</text></g><!--reverse link Environment to Maze--><g class="link" data-entity-1="Environment" data-entity-2="Maze" data-source-line="96" data-uid="lnk44" id="link_Environment_Maze"><path codeLine="96" d="M1013.15,84.7969 C1024.88,84.7969 1024.62,84.7969 1036.35,84.7969" fill="none" id="Environment-backto-Maze" style="stroke:#181818;stroke-width:1;"/><polygon fill="#181818" points="1001.15,84.7969,1007.15,88.7969,1013.15,84.7969,1007.15,80.7969,1001.15,84.7969" style="stroke:#181818;stroke-width:1;"/></g><!--reverse link Maze to Cell--><g class="link" data-entity-1="Maze" data-entity-2="Cell" data-source-line="97" data-uid="lnk46" id="link_Maze_Cell"><path codeLine="97" d="M1071,121.1069 C1071,158.9269 1071,221.2169 1071,259.0169" fill="none" id="Maze-backto-Cell" style="stroke:#181818;stroke-width:1;"/><polygon fill="#181818" points="1071,109.1069,1067,115.1069,1071,121.1069,1075,115.1069,1071,109.1069" style="stroke:#181818;stroke-width:1;"/><text fill="#000000" font-family="sans-serif" font-size="13" lengthAdjust="spacing" textLength="36.5625" x="1072" y="168.3638">many</text></g><!--reverse link LevelManager to Environment--><g class="link" data-entity-1="LevelManager" data-entity-2="Environment" data-source-line="99" data-uid="lnk48" id="link_LevelManager_Environment"><path codeLine="99" d="M855.81,84.7969 C867.46,84.7969 867.11,84.7969 878.76,84.7969" fill="none" id="LevelManager-backto-Environment" style="stroke:#181818;stroke-width:1;"/><polygon fill="#181818" points="843.81,84.7969,849.81,88.7969,855.81,84.7969,849.81,80.7969,843.81,84.7969" style="stroke:#181818;stroke-width:1;"/></g><!--link LevelFactory to LevelManager--><g class="link" data-entity-1="LevelFactory" data-entity-2="LevelManager" data-source-line="100" data-uid="lnk51" id="link_LevelFactory_LevelManager"><path codeLine="100" d="M677.07,84.7969 C688.76,84.7969 688.46,84.7969 700.16,84.7969" fill="none" id="LevelFactory-to-LevelManager" style="stroke:#181818;stroke-width:1;"/><polygon fill="#181818" points="712.16,84.7969,706.16,80.7969,700.16,84.7969,706.16,88.7969,712.16,84.7969" style="stroke:#181818;stroke-width:1;"/></g><!--link MobFactory to LevelFactory--><g class="link" data-entity-1="MobFactory" data-entity-2="LevelFactory" data-source-line="101" data-uid="lnk54" id="link_MobFactory_LevelFactory"><path codeLine="101" d="M519.53,84.7969 C531.33,84.7969 531.14,84.7969 542.95,84.7969" fill="none" id="MobFactory-to-LevelFactory" style="stroke:#181818;stroke-width:1;"/><polygon fill="#181818" points="554.95,84.7969,548.95,80.7969,542.95,84.7969,548.95,88.7969,554.95,84.7969" style="stroke:#181818;stroke-width:1;"/></g><!--link MobFactory to Character--><g class="link" data-entity-1="MobFactory" data-entity-2="Character" data-source-line="108" data-uid="lnk55" id="link_MobFactory_Character"><path codeLine="108" d="M471.88,125.5569 C494.47,147.5369 519.0782,171.4842 546.1582,197.8142" fill="none" id="MobFactory-to-Character" style="stroke:#181818;stroke-width:1;"/><polygon fill="#181818" points="550.46,201.9969,546.7957,192.855,546.8752,198.5113,541.2189,198.5908,550.46,201.9969" style="stroke:#181818;stroke-width:1;"/><text fill="#000000" font-family="sans-serif" font-size="13" lengthAdjust="spacing" textLength="48.3247" x="521" y="168.3638">creates</text></g><!--SRC=[XLLVQzim47_tfn3qnMqZ6EojZ46NTQEmTcCjen12KUnBB2fBcIGdyTg-xWFi8-wJx7IsRCS9x24XfxlxtP_VtSLBhu1DGIasjMAhm3BEFeiIrahKIP8fuHoR5iAApAFkEM7i_El2WTs8XOAPr7xE2X3A5ySqfTWzTbgUoypFdBSJDZLbANG-Prdpmw7wn85_RELqQCLUsAtHS1e22Ez5zfHs2T7ZmXZ56WtaAGPckIZ5YZnEn0Anq9OzIQNIq-IrAwf5fv9ifOUWOwCFbLHvM_vb19IQFOIob7H-zZ1dVt__YVQKQfwd3vIVXT9ie1LYs4M0RFBfsylv-mXnmIe73fNx6UnPP1Q43qRVa2nKdd4-olW2AT0TZxSc1wf1bcl55ZNp1J3GAwaXfFO3ihTiXIoiZHjdTiOLB3qdY2IvqXjfZIu1Utt6SxFLl1-I6BFhV1Fy1diG7ExmqSEgRXgVxYRrATEmG-vn255azGG1VX5xF7Qh54_G3KUmQT9hjUzUiF287odOKtutNdXfT5Is3Mdwrad25qkf8z7dD4b8hj0P389sFMd3BXByKE_79Ovjst03jgxr1ksDhOUFVHuN30VJCTY0hPc3p63gdSi-mBM7iktyGQSf-Bsmo6sNsd6ZEomsl_EuAfrXsvm-x7ESReaXXmFUoV2pakkqgcHEOgM73wy7Y27r1dKgL5OfOefcbVn2bYa1qLibzxPuv15WJiQFQs4H8o3SXukphZoaLo7ux7u-OVTq9pP6vYnK5HMqpwGx9rqEECwc7WR_M5aAGb5RlUkZRGlG3O6c2Z9VAYDmf5el6gPHfaH2X3sklLek8KFQAftqFt4Mh5mL_d_EbxOqDlHxVxVvk8y7taTiyFuKU6Ims0bxmvkTtpyCRKetkCr9-6fGSCtZYVY2awrkXCPZRNlx0SZOeZb2zFW9am-BCnGw2zp8g3-yGr55jF6mvU5_ogt5LhkERXBfpoHiuevO7xZI7UulNdk9_m40]--></g></svg>