<svg xmlns="http://www.w3.org/2000/svg" xmlns:xlink="http://www.w3.org/1999/xlink" contentStyleType="text/css" data-diagram-type="CLASS" height="702px" preserveAspectRatio="none" style="width:1185px;height:702px;background:#FFFFFF;" version="1.1" viewBox="0 0 1185 702" width="1185px" zoomAndPan="magnify"><title>Cell Crawler - World Generation</title><defs/><g><text fill="#000000" font-family="sans-serif" font-size="14" font-weight="bold" lengthAdjust="spacing" textLength="250.0928" x="460.7212" y="22.9951">Cell Crawler - World Generation</text><!--class BlockFactory--><g class="entity" data-entity="BlockFactory" data-source-line="3" data-uid="ent0002" id="entity_BlockFactory"><rect fill="#F1F1F1" height="96.8906" rx="2.5" ry="2.5" style="stroke:#181818;stroke-width:0.5;" width="302.0488" x="483" y="250.2969"/><ellipse cx="584.6299" cy="266.2969" fill="#A9DCDF" rx="11" ry="11" style="stroke:#181818;stroke-width:1;"/><path d="M584.7393,261.6406 L583.583,266.7188 L585.9111,266.7188 L584.7393,261.6406 Z M583.2549,259.4063 L586.2393,259.4063 L589.5986,271.7969 L587.1455,271.7969 L586.3799,268.7344 L583.0986,268.7344 L582.3486,271.7969 L579.9111,271.7969 L583.2549,259.4063 Z " fill="#000000"/><text fill="#000000" font-family="sans-serif" font-size="14" font-style="italic" lengthAdjust="spacing" textLength="90.2891" x="605.1299" y="271.1436">BlockFactory</text><line style="stroke:#181818;stroke-width:0.5;" x1="484" x2="784.0488" y1="282.2969" y2="282.2969"/><line style="stroke:#181818;stroke-width:0.5;" x1="484" x2="784.0488" y1="290.2969" y2="290.2969"/><polygon fill="#FFFF44" points="494,298.9453,498,302.9453,494,306.9453,490,302.9453" style="stroke:#B38D22;stroke-width:1;"/><text fill="#000000" font-family="sans-serif" font-size="14" lengthAdjust="spacing" textLength="148.5723" x="503" y="307.292">Node create_empty()</text><polygon fill="#FFFF44" points="494,315.2422,498,319.2422,494,323.2422,490,319.2422" style="stroke:#B38D22;stroke-width:1;"/><text fill="#000000" font-family="sans-serif" font-size="14" lengthAdjust="spacing" textLength="131.4688" x="503" y="323.5889">Node create_wall()</text><ellipse cx="494" cy="336.5391" fill="#84BE84" rx="3" ry="3" style="stroke:#038048;stroke-width:1;"/><text fill="#000000" font-family="sans-serif" font-size="14" lengthAdjust="spacing" textLength="276.0488" x="503" y="339.8857">Node create(MazeCell type, float scale)</text></g><!--class LevelFactory--><g class="entity" data-entity="LevelFactory" data-source-line="9" data-uid="ent0003" id="entity_LevelFactory"><rect fill="#F1F1F1" height="80.5938" rx="2.5" ry="2.5" style="stroke:#181818;stroke-width:0.5;" width="202.7842" x="283.5" y="424.2969"/><ellipse cx="335.8291" cy="440.2969" fill="#A9DCDF" rx="11" ry="11" style="stroke:#181818;stroke-width:1;"/><path d="M335.9385,435.6406 L334.7822,440.7188 L337.1104,440.7188 L335.9385,435.6406 Z M334.4541,433.4063 L337.4385,433.4063 L340.7979,445.7969 L338.3447,445.7969 L337.5791,442.7344 L334.2979,442.7344 L333.5479,445.7969 L331.1104,445.7969 L334.4541,433.4063 Z " fill="#000000"/><text fill="#000000" font-family="sans-serif" font-size="14" font-style="italic" lengthAdjust="spacing" textLength="89.626" x="356.3291" y="445.1436">LevelFactory</text><line style="stroke:#181818;stroke-width:0.5;" x1="284.5" x2="485.2842" y1="456.2969" y2="456.2969"/><line style="stroke:#181818;stroke-width:0.5;" x1="284.5" x2="485.2842" y1="464.2969" y2="464.2969"/><polygon fill="#FFFF44" points="294.5,472.9453,298.5,476.9453,294.5,480.9453,290.5,476.9453" style="stroke:#B38D22;stroke-width:1;"/><text fill="#000000" font-family="sans-serif" font-size="14" lengthAdjust="spacing" textLength="131.2227" x="303.5" y="481.292">Maze make_level()</text><ellipse cx="294.5" cy="494.2422" fill="#84BE84" rx="3" ry="3" style="stroke:#038048;stroke-width:1;"/><text fill="#000000" font-family="sans-serif" font-size="14" lengthAdjust="spacing" textLength="176.7842" x="303.5" y="497.5889">Environment make_env()</text></g><!--class ConstLevelFactory--><g class="entity" data-entity="ConstLevelFactory" data-source-line="14" data-uid="ent0004" id="entity_ConstLevelFactory"><rect fill="#F1F1F1" height="64.2969" rx="2.5" ry="2.5" style="stroke:#181818;stroke-width:0.5;" width="161.623" x="7" y="598.7969"/><ellipse cx="22" cy="614.7969" fill="#ADD1B2" rx="11" ry="11" style="stroke:#181818;stroke-width:1;"/><path d="M24.9688,620.4375 Q24.3906,620.7344 23.75,620.875 Q23.1094,621.0313 22.4063,621.0313 Q19.9063,621.0313 18.5781,619.3906 Q17.2656,617.7344 17.2656,614.6094 Q17.2656,611.4844 18.5781,609.8281 Q19.9063,608.1719 22.4063,608.1719 Q23.1094,608.1719 23.75,608.3281 Q24.4063,608.4844 24.9688,608.7813 L24.9688,611.5 Q24.3438,610.9219 23.75,610.6563 Q23.1563,610.375 22.5313,610.375 Q21.1875,610.375 20.5,611.4531 Q19.8125,612.5156 19.8125,614.6094 Q19.8125,616.7031 20.5,617.7813 Q21.1875,618.8438 22.5313,618.8438 Q23.1563,618.8438 23.75,618.5781 Q24.3438,618.2969 24.9688,617.7188 L24.9688,620.4375 Z " fill="#000000"/><text fill="#000000" font-family="sans-serif" font-size="14" lengthAdjust="spacing" textLength="129.623" x="36" y="619.6436">ConstLevelFactory</text><line style="stroke:#181818;stroke-width:0.5;" x1="8" x2="167.623" y1="630.7969" y2="630.7969"/><rect fill="none" height="6" style="stroke:#C82930;stroke-width:1;" width="6" x="15" y="641.4453"/><text fill="#000000" font-family="sans-serif" font-size="14" lengthAdjust="spacing" textLength="31.8281" x="27" y="647.792">path</text><line style="stroke:#181818;stroke-width:0.5;" x1="8" x2="167.623" y1="655.0938" y2="655.0938"/></g><!--class RandomLevelFactory--><g class="entity" data-entity="RandomLevelFactory" data-source-line="18" data-uid="ent0005" id="entity_RandomLevelFactory"><rect fill="#F1F1F1" height="64.2969" rx="2.5" ry="2.5" style="stroke:#181818;stroke-width:0.5;" width="179.8955" x="247" y="598.7969"/><ellipse cx="262" cy="614.7969" fill="#ADD1B2" rx="11" ry="11" style="stroke:#181818;stroke-width:1;"/><path d="M264.9688,620.4375 Q264.3906,620.7344 263.75,620.875 Q263.1094,621.0313 262.4063,621.0313 Q259.9063,621.0313 258.5781,619.3906 Q257.2656,617.7344 257.2656,614.6094 Q257.2656,611.4844 258.5781,609.8281 Q259.9063,608.1719 262.4063,608.1719 Q263.1094,608.1719 263.75,608.3281 Q264.4063,608.4844 264.9688,608.7813 L264.9688,611.5 Q264.3438,610.9219 263.75,610.6563 Q263.1563,610.375 262.5313,610.375 Q261.1875,610.375 260.5,611.4531 Q259.8125,612.5156 259.8125,614.6094 Q259.8125,616.7031 260.5,617.7813 Q261.1875,618.8438 262.5313,618.8438 Q263.1563,618.8438 263.75,618.5781 Q264.3438,618.2969 264.9688,617.7188 L264.9688,620.4375 Z " fill="#000000"/><text fill="#000000" font-family="sans-serif" font-size="14" lengthAdjust="spacing" textLength="147.8955" x="276" y="619.6436">RandomLevelFactory</text><line style="stroke:#181818;stroke-width:0.5;" x1="248" x2="425.8955" y1="630.7969" y2="630.7969"/><rect fill="none" height="6" style="stroke:#C82930;stroke-width:1;" width="6" x="255" y="641.4453"/><text fill="#000000" font-family="sans-serif" font-size="14" lengthAdjust="spacing" textLength="49.8477" x="267" y="647.792">int size</text><line style="stroke:#181818;stroke-width:0.5;" x1="248" x2="425.8955" y1="655.0938" y2="655.0938"/></g><!--class Maze--><g class="entity" data-entity="Maze" data-source-line="22" data-uid="ent0006" id="entity_Maze"><rect fill="#F1F1F1" height="64.2969" rx="2.5" ry="2.5" style="stroke:#181818;stroke-width:0.5;" width="151.7607" x="296" y="266.7969"/><ellipse cx="349.3203" cy="282.7969" fill="#ADD1B2" rx="11" ry="11" style="stroke:#181818;stroke-width:1;"/><path d="M352.2891,288.4375 Q351.7109,288.7344 351.0703,288.875 Q350.4297,289.0313 349.7266,289.0313 Q347.2266,289.0313 345.8984,287.3906 Q344.5859,285.7344 344.5859,282.6094 Q344.5859,279.4844 345.8984,277.8281 Q347.2266,276.1719 349.7266,276.1719 Q350.4297,276.1719 351.0703,276.3281 Q351.7266,276.4844 352.2891,276.7813 L352.2891,279.5 Q351.6641,278.9219 351.0703,278.6563 Q350.4766,278.375 349.8516,278.375 Q348.5078,278.375 347.8203,279.4531 Q347.1328,280.5156 347.1328,282.6094 Q347.1328,284.7031 347.8203,285.7813 Q348.5078,286.8438 349.8516,286.8438 Q350.4766,286.8438 351.0703,286.5781 Q351.6641,286.2969 352.2891,285.7188 L352.2891,288.4375 Z " fill="#000000"/><text fill="#000000" font-family="sans-serif" font-size="14" lengthAdjust="spacing" textLength="36.6201" x="369.8203" y="287.6436">Maze</text><line style="stroke:#181818;stroke-width:0.5;" x1="297" x2="446.7607" y1="298.7969" y2="298.7969"/><ellipse cx="307" cy="312.4453" fill="none" rx="3" ry="3" style="stroke:#038048;stroke-width:1;"/><text fill="#000000" font-family="sans-serif" font-size="14" lengthAdjust="spacing" textLength="125.7607" x="316" y="315.792">list[list[MazeCell]]</text><line style="stroke:#181818;stroke-width:0.5;" x1="297" x2="446.7607" y1="323.0938" y2="323.0938"/></g><!--class Managed--><g class="entity" data-entity="Managed" data-source-line="27" data-uid="ent0010" id="entity_Managed"><rect fill="#F1F1F1" height="64.2969" rx="2.5" ry="2.5" style="stroke:#181818;stroke-width:0.5;" width="126.4131" x="1049" y="76.7969"/><ellipse cx="1077.4622" cy="92.7969" fill="#A9DCDF" rx="11" ry="11" style="stroke:#181818;stroke-width:1;"/><path d="M1077.5716,88.1406 L1076.4153,93.2188 L1078.7435,93.2188 L1077.5716,88.1406 Z M1076.0872,85.9063 L1079.0716,85.9063 L1082.431,98.2969 L1079.9778,98.2969 L1079.2122,95.2344 L1075.931,95.2344 L1075.181,98.2969 L1072.7435,98.2969 L1076.0872,85.9063 Z " fill="#000000"/><text fill="#000000" font-family="sans-serif" font-size="14" font-style="italic" lengthAdjust="spacing" textLength="64.4971" x="1094.4538" y="97.6436">Managed</text><line style="stroke:#181818;stroke-width:0.5;" x1="1050" x2="1174.4131" y1="108.7969" y2="108.7969"/><line style="stroke:#181818;stroke-width:0.5;" x1="1050" x2="1174.4131" y1="116.7969" y2="116.7969"/><polygon fill="#FFFF44" points="1060,125.4453,1064,129.4453,1060,133.4453,1056,129.4453" style="stroke:#B38D22;stroke-width:1;"/><text fill="#000000" font-family="sans-serif" font-size="14" lengthAdjust="spacing" textLength="100.4131" x="1069" y="133.792">void cleanup()</text></g><!--class NodePath--><g class="entity" data-entity="NodePath" data-source-line="31" data-uid="ent0011" id="entity_NodePath"><rect fill="#F1F1F1" height="129.4844" rx="2.5" ry="2.5" style="stroke:#181818;stroke-width:0.5;" width="166.9229" x="842.5" y="44.2969"/><ellipse cx="887.7505" cy="60.2969" fill="#ADD1B2" rx="11" ry="11" style="stroke:#181818;stroke-width:1;"/><path d="M890.7192,65.9375 Q890.1411,66.2344 889.5005,66.375 Q888.8599,66.5313 888.1567,66.5313 Q885.6567,66.5313 884.3286,64.8906 Q883.0161,63.2344 883.0161,60.1094 Q883.0161,56.9844 884.3286,55.3281 Q885.6567,53.6719 888.1567,53.6719 Q888.8599,53.6719 889.5005,53.8281 Q890.1567,53.9844 890.7192,54.2813 L890.7192,57 Q890.0942,56.4219 889.5005,56.1563 Q888.9067,55.875 888.2817,55.875 Q886.938,55.875 886.2505,56.9531 Q885.563,58.0156 885.563,60.1094 Q885.563,62.2031 886.2505,63.2813 Q886.938,64.3438 888.2817,64.3438 Q888.9067,64.3438 889.5005,64.0781 Q890.0942,63.7969 890.7192,63.2188 L890.7192,65.9375 Z " fill="#000000"/><text fill="#000000" font-family="sans-serif" font-size="14" lengthAdjust="spacing" textLength="67.9219" x="908.2505" y="65.1436">NodePath</text><line style="stroke:#181818;stroke-width:0.5;" x1="843.5" x2="1008.4229" y1="76.2969" y2="76.2969"/><text fill="#000000" font-family="sans-serif" font-size="14" lengthAdjust="spacing" textLength="127.1416" x="848.5" y="93.292">impl in the engine</text><line style="stroke:#181818;stroke-width:0.5;" x1="843.5" x2="1008.4229" y1="100.5938" y2="100.5938"/><ellipse cx="853.5" cy="114.2422" fill="#84BE84" rx="3" ry="3" style="stroke:#038048;stroke-width:1;"/><text fill="#000000" font-family="sans-serif" font-size="14" lengthAdjust="spacing" textLength="91.499" x="862.5" y="117.5889">void render()</text><ellipse cx="853.5" cy="130.5391" fill="#84BE84" rx="3" ry="3" style="stroke:#038048;stroke-width:1;"/><text fill="#000000" font-family="sans-serif" font-size="14" lengthAdjust="spacing" textLength="140.9229" x="862.5" y="133.8857">void set_scale(float)</text><ellipse cx="853.5" cy="146.8359" fill="#84BE84" rx="3" ry="3" style="stroke:#038048;stroke-width:1;"/><text fill="#000000" font-family="sans-serif" font-size="14" lengthAdjust="spacing" textLength="139.8633" x="862.5" y="150.1826">void set_pos(x, y, z)</text><text fill="#000000" font-family="sans-serif" font-size="14" lengthAdjust="spacing" textLength="46.0742" x="862.5" y="166.4795">etc...()</text></g><!--class ManagedNode--><g class="entity" data-entity="ManagedNode" data-source-line="39" data-uid="ent0012" id="entity_ManagedNode"><rect fill="#F1F1F1" height="64.2969" rx="2.5" ry="2.5" style="stroke:#181818;stroke-width:0.5;" width="133.0352" x="1045.5" y="266.7969"/><ellipse cx="1060.5" cy="282.7969" fill="#A9DCDF" rx="11" ry="11" style="stroke:#181818;stroke-width:1;"/><path d="M1060.6094,278.1406 L1059.4531,283.2188 L1061.7813,283.2188 L1060.6094,278.1406 Z M1059.125,275.9063 L1062.1094,275.9063 L1065.4688,288.2969 L1063.0156,288.2969 L1062.25,285.2344 L1058.9688,285.2344 L1058.2188,288.2969 L1055.7813,288.2969 L1059.125,275.9063 Z " fill="#000000"/><text fill="#000000" font-family="sans-serif" font-size="14" font-style="italic" lengthAdjust="spacing" textLength="101.0352" x="1074.5" y="287.6436">ManagedNode</text><line style="stroke:#181818;stroke-width:0.5;" x1="1046.5" x2="1177.5352" y1="298.7969" y2="298.7969"/><line style="stroke:#181818;stroke-width:0.5;" x1="1046.5" x2="1177.5352" y1="306.7969" y2="306.7969"/><polygon fill="#FFFF44" points="1056.5,315.4453,1060.5,319.4453,1056.5,323.4453,1052.5,319.4453" style="stroke:#B38D22;stroke-width:1;"/><text fill="#000000" font-family="sans-serif" font-size="14" lengthAdjust="spacing" textLength="81.833" x="1065.5" y="323.792">Node load()</text></g><!--class StdBlockFactory--><g class="entity" data-entity="StdBlockFactory" data-source-line="46" data-uid="ent0015" id="entity_StdBlockFactory"><rect fill="#F1F1F1" height="48" rx="2.5" ry="2.5" style="stroke:#181818;stroke-width:0.5;" width="145.5518" x="686" y="440.7969"/><ellipse cx="701" cy="456.7969" fill="#ADD1B2" rx="11" ry="11" style="stroke:#181818;stroke-width:1;"/><path d="M703.9688,462.4375 Q703.3906,462.7344 702.75,462.875 Q702.1094,463.0313 701.4063,463.0313 Q698.9063,463.0313 697.5781,461.3906 Q696.2656,459.7344 696.2656,456.6094 Q696.2656,453.4844 697.5781,451.8281 Q698.9063,450.1719 701.4063,450.1719 Q702.1094,450.1719 702.75,450.3281 Q703.4063,450.4844 703.9688,450.7813 L703.9688,453.5 Q703.3438,452.9219 702.75,452.6563 Q702.1563,452.375 701.5313,452.375 Q700.1875,452.375 699.5,453.4531 Q698.8125,454.5156 698.8125,456.6094 Q698.8125,458.7031 699.5,459.7813 Q700.1875,460.8438 701.5313,460.8438 Q702.1563,460.8438 702.75,460.5781 Q703.3438,460.2969 703.9688,459.7188 L703.9688,462.4375 Z " fill="#000000"/><text fill="#000000" font-family="sans-serif" font-size="14" lengthAdjust="spacing" textLength="113.5518" x="715" y="461.6436">StdBlockFactory</text><line style="stroke:#181818;stroke-width:0.5;" x1="687" x2="830.5518" y1="472.7969" y2="472.7969"/><line style="stroke:#181818;stroke-width:0.5;" x1="687" x2="830.5518" y1="480.7969" y2="480.7969"/></g><!--class Environment--><g class="entity" data-entity="Environment" data-source-line="48" data-uid="ent0017" id="entity_Environment"><rect fill="#F1F1F1" height="48" rx="2.5" ry="2.5" style="stroke:#181818;stroke-width:0.5;" width="121.7012" x="529" y="440.7969"/><ellipse cx="544" cy="456.7969" fill="#ADD1B2" rx="11" ry="11" style="stroke:#181818;stroke-width:1;"/><path d="M546.9688,462.4375 Q546.3906,462.7344 545.75,462.875 Q545.1094,463.0313 544.4063,463.0313 Q541.9063,463.0313 540.5781,461.3906 Q539.2656,459.7344 539.2656,456.6094 Q539.2656,453.4844 540.5781,451.8281 Q541.9063,450.1719 544.4063,450.1719 Q545.1094,450.1719 545.75,450.3281 Q546.4063,450.4844 546.9688,450.7813 L546.9688,453.5 Q546.3438,452.9219 545.75,452.6563 Q545.1563,452.375 544.5313,452.375 Q543.1875,452.375 542.5,453.4531 Q541.8125,454.5156 541.8125,456.6094 Q541.8125,458.7031 542.5,459.7813 Q543.1875,460.8438 544.5313,460.8438 Q545.1563,460.8438 545.75,460.5781 Q546.3438,460.2969 546.9688,459.7188 L546.9688,462.4375 Z " fill="#000000"/><text fill="#000000" font-family="sans-serif" font-size="14" lengthAdjust="spacing" textLength="89.7012" x="558" y="461.6436">Environment</text><line style="stroke:#181818;stroke-width:0.5;" x1="530" x2="649.7012" y1="472.7969" y2="472.7969"/><line style="stroke:#181818;stroke-width:0.5;" x1="530" x2="649.7012" y1="480.7969" y2="480.7969"/></g><!--class DepInjector--><g class="entity" data-entity="DepInjector" data-source-line="53" data-uid="ent0020" id="entity_DepInjector"><rect fill="#F1F1F1" height="48" rx="2.5" ry="2.5" style="stroke:#181818;stroke-width:0.5;" width="113.293" x="391.5" y="84.7969"/><ellipse cx="406.5" cy="100.7969" fill="#ADD1B2" rx="11" ry="11" style="stroke:#181818;stroke-width:1;"/><path d="M409.4688,106.4375 Q408.8906,106.7344 408.25,106.875 Q407.6094,107.0313 406.9063,107.0313 Q404.4063,107.0313 403.0781,105.3906 Q401.7656,103.7344 401.7656,100.6094 Q401.7656,97.4844 403.0781,95.8281 Q404.4063,94.1719 406.9063,94.1719 Q407.6094,94.1719 408.25,94.3281 Q408.9063,94.4844 409.4688,94.7813 L409.4688,97.5 Q408.8438,96.9219 408.25,96.6563 Q407.6563,96.375 407.0313,96.375 Q405.6875,96.375 405,97.4531 Q404.3125,98.5156 404.3125,100.6094 Q404.3125,102.7031 405,103.7813 Q405.6875,104.8438 407.0313,104.8438 Q407.6563,104.8438 408.25,104.5781 Q408.8438,104.2969 409.4688,103.7188 L409.4688,106.4375 Z " fill="#000000"/><text fill="#000000" font-family="sans-serif" font-size="14" lengthAdjust="spacing" textLength="81.293" x="420.5" y="105.6436">DepInjector</text><line style="stroke:#181818;stroke-width:0.5;" x1="392.5" x2="503.793" y1="116.7969" y2="116.7969"/><line style="stroke:#181818;stroke-width:0.5;" x1="392.5" x2="503.793" y1="124.7969" y2="124.7969"/></g><!--class FileLoader--><g class="entity" data-entity="FileLoader" data-source-line="60" data-uid="ent0023" id="entity_FileLoader"><rect fill="#F1F1F1" height="80.5938" rx="2.5" ry="2.5" style="stroke:#181818;stroke-width:0.5;" width="172.3574" x="84" y="258.2969"/><ellipse cx="129.606" cy="274.2969" fill="#ADD1B2" rx="11" ry="11" style="stroke:#181818;stroke-width:1;"/><path d="M132.5747,279.9375 Q131.9966,280.2344 131.356,280.375 Q130.7153,280.5313 130.0122,280.5313 Q127.5122,280.5313 126.1841,278.8906 Q124.8716,277.2344 124.8716,274.1094 Q124.8716,270.9844 126.1841,269.3281 Q127.5122,267.6719 130.0122,267.6719 Q130.7153,267.6719 131.356,267.8281 Q132.0122,267.9844 132.5747,268.2813 L132.5747,271 Q131.9497,270.4219 131.356,270.1563 Q130.7622,269.875 130.1372,269.875 Q128.7935,269.875 128.106,270.9531 Q127.4185,272.0156 127.4185,274.1094 Q127.4185,276.2031 128.106,277.2813 Q128.7935,278.3438 130.1372,278.3438 Q130.7622,278.3438 131.356,278.0781 Q131.9497,277.7969 132.5747,277.2188 L132.5747,279.9375 Z " fill="#000000"/><text fill="#000000" font-family="sans-serif" font-size="14" lengthAdjust="spacing" textLength="72.6455" x="150.106" y="279.1436">FileLoader</text><line style="stroke:#181818;stroke-width:0.5;" x1="85" x2="255.3574" y1="290.2969" y2="290.2969"/><line style="stroke:#181818;stroke-width:0.5;" x1="85" x2="255.3574" y1="298.2969" y2="298.2969"/><ellipse cx="95" cy="311.9453" fill="#84BE84" rx="3" ry="3" style="stroke:#038048;stroke-width:1;"/><text fill="#000000" font-family="sans-serif" font-size="14" lengthAdjust="spacing" textLength="95.6621" x="104" y="315.292">str load(path)</text><ellipse cx="95" cy="328.2422" fill="#84BE84" rx="3" ry="3" style="stroke:#038048;stroke-width:1;"/><text fill="#000000" font-family="sans-serif" font-size="14" lengthAdjust="spacing" textLength="146.3574" x="104" y="331.5889">bytes load(path, "b")</text></g><!--class Loader--><g class="entity" data-entity="Loader" data-source-line="61" data-uid="ent0026" id="entity_Loader"><rect fill="#F1F1F1" height="80.5938" rx="2.5" ry="2.5" style="stroke:#181818;stroke-width:0.5;" width="190.2539" x="820" y="258.2969"/><ellipse cx="886.7769" cy="274.2969" fill="#ADD1B2" rx="11" ry="11" style="stroke:#181818;stroke-width:1;"/><path d="M889.7456,279.9375 Q889.1675,280.2344 888.5269,280.375 Q887.8862,280.5313 887.1831,280.5313 Q884.6831,280.5313 883.355,278.8906 Q882.0425,277.2344 882.0425,274.1094 Q882.0425,270.9844 883.355,269.3281 Q884.6831,267.6719 887.1831,267.6719 Q887.8862,267.6719 888.5269,267.8281 Q889.1831,267.9844 889.7456,268.2813 L889.7456,271 Q889.1206,270.4219 888.5269,270.1563 Q887.9331,269.875 887.3081,269.875 Q885.9644,269.875 885.2769,270.9531 Q884.5894,272.0156 884.5894,274.1094 Q884.5894,276.2031 885.2769,277.2813 Q885.9644,278.3438 887.3081,278.3438 Q887.9331,278.3438 888.5269,278.0781 Q889.1206,277.7969 889.7456,277.2188 L889.7456,279.9375 Z " fill="#000000"/><text fill="#000000" font-family="sans-serif" font-size="14" lengthAdjust="spacing" textLength="48.2002" x="907.2769" y="279.1436">Loader</text><line style="stroke:#181818;stroke-width:0.5;" x1="821" x2="1009.2539" y1="290.2969" y2="290.2969"/><text fill="#000000" font-family="sans-serif" font-size="14" lengthAdjust="spacing" textLength="127.1416" x="826" y="307.292">impl in the engine</text><line style="stroke:#181818;stroke-width:0.5;" x1="821" x2="1009.2539" y1="314.5938" y2="314.5938"/><ellipse cx="831" cy="328.2422" fill="#84BE84" rx="3" ry="3" style="stroke:#038048;stroke-width:1;"/><text fill="#000000" font-family="sans-serif" font-size="14" lengthAdjust="spacing" textLength="164.2539" x="840" y="331.5889">Node load_model(path)</text></g><!--class VirtualFS--><g class="entity" data-entity="VirtualFS" data-source-line="74" data-uid="ent0034" id="entity_VirtualFS"><rect fill="#F1F1F1" height="80.5938" rx="2.5" ry="2.5" style="stroke:#181818;stroke-width:0.5;" width="156.833" x="91.5" y="424.2969"/><ellipse cx="134.3279" cy="440.2969" fill="#ADD1B2" rx="11" ry="11" style="stroke:#181818;stroke-width:1;"/><path d="M137.2967,445.9375 Q136.7186,446.2344 136.0779,446.375 Q135.4373,446.5313 134.7342,446.5313 Q132.2342,446.5313 130.9061,444.8906 Q129.5936,443.2344 129.5936,440.1094 Q129.5936,436.9844 130.9061,435.3281 Q132.2342,433.6719 134.7342,433.6719 Q135.4373,433.6719 136.0779,433.8281 Q136.7342,433.9844 137.2967,434.2813 L137.2967,437 Q136.6717,436.4219 136.0779,436.1563 Q135.4842,435.875 134.8592,435.875 Q133.5154,435.875 132.8279,436.9531 Q132.1404,438.0156 132.1404,440.1094 Q132.1404,442.2031 132.8279,443.2813 Q133.5154,444.3438 134.8592,444.3438 Q135.4842,444.3438 136.0779,444.0781 Q136.6717,443.7969 137.2967,443.2188 L137.2967,445.9375 Z " fill="#000000"/><text fill="#000000" font-family="sans-serif" font-size="14" lengthAdjust="spacing" textLength="62.9932" x="154.5119" y="445.1436">VirtualFS</text><line style="stroke:#181818;stroke-width:0.5;" x1="92.5" x2="247.333" y1="456.2969" y2="456.2969"/><text fill="#000000" font-family="sans-serif" font-size="14" lengthAdjust="spacing" textLength="127.1416" x="97.5" y="473.292">impl in the engine</text><line style="stroke:#181818;stroke-width:0.5;" x1="92.5" x2="247.333" y1="480.5938" y2="480.5938"/><ellipse cx="102.5" cy="494.2422" fill="#84BE84" rx="3" ry="3" style="stroke:#038048;stroke-width:1;"/><text fill="#000000" font-family="sans-serif" font-size="14" lengthAdjust="spacing" textLength="130.833" x="111.5" y="497.5889">Filename get_file()</text></g><!--class LevelManager--><g class="entity" data-entity="LevelManager" data-source-line="86" data-uid="ent0036" id="entity_LevelManager"><rect fill="#F1F1F1" height="129.4844" rx="2.5" ry="2.5" style="stroke:#181818;stroke-width:0.5;" width="256.0771" x="462" y="566.2969"/><ellipse cx="536.5049" cy="582.2969" fill="#ADD1B2" rx="11" ry="11" style="stroke:#181818;stroke-width:1;"/><path d="M539.4736,587.9375 Q538.8955,588.2344 538.2549,588.375 Q537.6143,588.5313 536.9111,588.5313 Q534.4111,588.5313 533.083,586.8906 Q531.7705,585.2344 531.7705,582.1094 Q531.7705,578.9844 533.083,577.3281 Q534.4111,575.6719 536.9111,575.6719 Q537.6143,575.6719 538.2549,575.8281 Q538.9111,575.9844 539.4736,576.2813 L539.4736,579 Q538.8486,578.4219 538.2549,578.1563 Q537.6611,577.875 537.0361,577.875 Q535.6924,577.875 535.0049,578.9531 Q534.3174,580.0156 534.3174,582.1094 Q534.3174,584.2031 535.0049,585.2813 Q535.6924,586.3438 537.0361,586.3438 Q537.6611,586.3438 538.2549,586.0781 Q538.8486,585.7969 539.4736,585.2188 L539.4736,587.9375 Z " fill="#000000"/><text fill="#000000" font-family="sans-serif" font-size="14" lengthAdjust="spacing" textLength="98.5674" x="557.0049" y="587.1436">LevelManager</text><line style="stroke:#181818;stroke-width:0.5;" x1="463" x2="717.0771" y1="598.2969" y2="598.2969"/><ellipse cx="473" cy="611.9453" fill="none" rx="3" ry="3" style="stroke:#038048;stroke-width:1;"/><text fill="#000000" font-family="sans-serif" font-size="14" lengthAdjust="spacing" textLength="89.7012" x="482" y="615.292">Environment</text><ellipse cx="473" cy="628.2422" fill="none" rx="3" ry="3" style="stroke:#038048;stroke-width:1;"/><text fill="#000000" font-family="sans-serif" font-size="14" lengthAdjust="spacing" textLength="89.626" x="482" y="631.5889">LevelFactory</text><ellipse cx="473" cy="644.5391" fill="none" rx="3" ry="3" style="stroke:#038048;stroke-width:1;"/><text fill="#000000" font-family="sans-serif" font-size="14" lengthAdjust="spacing" textLength="94.377" x="482" y="647.8857">int level_num</text><rect fill="none" height="6" style="stroke:#C82930;stroke-width:1;" width="6" x="470" y="657.8359"/><text fill="#000000" font-family="sans-serif" font-size="14" lengthAdjust="spacing" textLength="230.0771" x="482" y="664.1826">list[LevelFactory] predetermined</text><line style="stroke:#181818;stroke-width:0.5;" x1="463" x2="717.0771" y1="671.4844" y2="671.4844"/><ellipse cx="473" cy="685.1328" fill="#84BE84" rx="3" ry="3" style="stroke:#038048;stroke-width:1;"/><text fill="#000000" font-family="sans-serif" font-size="14" lengthAdjust="spacing" textLength="116.5527" x="482" y="688.4795">void next_level()</text></g><!--reverse link Maze to LevelFactory--><g class="link" data-entity-1="Maze" data-entity-2="LevelFactory" data-source-line="22" data-uid="lnk7" id="link_Maze_LevelFactory"><path codeLine="22" d="M374.9542,337.0081 C377.0542,363.4981 379.6,395.6569 381.87,424.2669" fill="none" id="Maze-backto-LevelFactory" style="stroke:#181818;stroke-width:1;"/><polygon fill="#181818" points="374.48,331.0269,371.2038,340.3148,374.8751,336.0112,379.1787,339.6826,374.48,331.0269" style="stroke:#181818;stroke-width:1;"/><text fill="#000000" font-family="sans-serif" font-size="13" lengthAdjust="spacing" textLength="48.3247" x="380" y="390.3638">creates</text></g><!--reverse link LevelFactory to ConstLevelFactory--><g class="link" data-entity-1="LevelFactory" data-entity-2="ConstLevelFactory" data-source-line="24" data-uid="lnk8" id="link_LevelFactory_ConstLevelFactory"><path codeLine="24" d="M297.3433,514.1989 C245.5033,542.8289 192.26,572.2269 144.38,598.6669" fill="none" id="LevelFactory-backto-ConstLevelFactory" style="stroke:#181818;stroke-width:1;"/><polygon fill="none" points="313.1,505.4969,294.4426,508.9467,300.244,519.4512,313.1,505.4969" style="stroke:#181818;stroke-width:1;"/></g><!--reverse link LevelFactory to RandomLevelFactory--><g class="link" data-entity-1="LevelFactory" data-entity-2="RandomLevelFactory" data-source-line="25" data-uid="lnk9" id="link_LevelFactory_RandomLevelFactory"><path codeLine="25" d="M368.3236,522.7721 C359.9436,551.4021 353.85,572.2269 346.11,598.6669" fill="none" id="LevelFactory-backto-RandomLevelFactory" style="stroke:#181818;stroke-width:1;"/><polygon fill="none" points="373.38,505.4969,362.5652,521.0866,374.0819,524.4576,373.38,505.4969" style="stroke:#181818;stroke-width:1;"/></g><!--reverse link Managed to ManagedNode--><g class="link" data-entity-1="Managed" data-entity-2="ManagedNode" data-source-line="43" data-uid="lnk13" id="link_Managed_ManagedNode"><path codeLine="43" d="M1112,158.8369 C1112,193.6769 1112,231.8569 1112,266.7069" fill="none" id="Managed-backto-ManagedNode" style="stroke:#181818;stroke-width:1;"/><polygon fill="none" points="1112,140.8369,1106,158.8369,1118,158.8369,1112,140.8369" style="stroke:#181818;stroke-width:1;"/></g><!--link NodePath to ManagedNode--><g class="link" data-entity-1="NodePath" data-entity-2="ManagedNode" data-source-line="44" data-uid="lnk14" id="link_NodePath_ManagedNode"><path codeLine="44" d="M988.97,173.4469 C1020.06,204.8669 1047.7304,232.8362 1072.7504,258.1262" fill="none" id="NodePath-to-ManagedNode" style="stroke:#181818;stroke-width:1;"/><polygon fill="#181818" points="1081.19,266.6569,1079.8138,259.5783,1072.7504,258.1262,1074.1266,265.2047,1081.19,266.6569" style="stroke:#181818;stroke-width:1;"/></g><!--reverse link BlockFactory to StdBlockFactory--><g class="link" data-entity-1="BlockFactory" data-entity-2="StdBlockFactory" data-source-line="46" data-uid="lnk16" id="link_BlockFactory_StdBlockFactory"><path codeLine="46" d="M681.4026,361.9917 C704.7526,392.6217 723.08,416.6669 741.41,440.7169" fill="none" id="BlockFactory-backto-StdBlockFactory" style="stroke:#181818;stroke-width:1;"/><polygon fill="none" points="670.49,347.6769,676.631,365.6293,686.1742,358.3542,670.49,347.6769" style="stroke:#181818;stroke-width:1;"/></g><!--reverse link ManagedNode to Environment--><g class="link" data-entity-1="ManagedNode" data-entity-2="Environment" data-source-line="49" data-uid="lnk18" id="link_ManagedNode_Environment"><path codeLine="49" d="M1046.781,339.6502 C1035.711,345.7102 1039.59,342.8969 1028,347.2969 C875.45,405.2369 822.98,370.2669 669,424.2969 C656.41,428.7169 643.26,434.6869 631.37,440.6569" fill="none" id="ManagedNode-backto-Environment" style="stroke:#181818;stroke-width:1;"/><polygon fill="none" points="1062.57,331.0069,1043.8999,334.3872,1049.6621,344.9132,1062.57,331.0069" style="stroke:#181818;stroke-width:1;"/></g><!--reverse link BlockFactory to Environment--><g class="link" data-entity-1="BlockFactory" data-entity-2="Environment" data-source-line="51" data-uid="lnk19" id="link_BlockFactory_Environment"><path codeLine="51" d="M619.6048,353.4718 C611.3848,384.1018 602.64,416.6669 596.19,440.7169" fill="none" id="BlockFactory-backto-Environment" style="stroke:#181818;stroke-width:1;"/><polygon fill="#181818" points="621.16,347.6769,614.964,355.3325,619.864,352.506,622.6906,357.4061,621.16,347.6769" style="stroke:#181818;stroke-width:1;"/></g><!--reverse link DepInjector to Maze--><g class="link" data-entity-1="DepInjector" data-entity-2="Maze" data-source-line="59" data-uid="lnk22" id="link_DepInjector_Maze"><path codeLine="59" d="M434.184,143.9728 C420.594,177.6028 399.78,229.0769 384.56,266.7369" fill="none" id="DepInjector-backto-Maze" style="stroke:#181818;stroke-width:1;"/><polygon fill="none" points="438.68,132.8469,432.7234,136.9112,434.184,143.9728,440.1406,139.9085,438.68,132.8469" style="stroke:#181818;stroke-width:1;"/></g><!--reverse link DepInjector to FileLoader--><g class="link" data-entity-1="DepInjector" data-entity-2="FileLoader" data-source-line="60" data-uid="lnk25" id="link_DepInjector_FileLoader"><path codeLine="60" d="M403.9701,139.5698 C357.8701,170.7498 284.88,220.1069 228.66,258.1269" fill="none" id="DepInjector-backto-FileLoader" style="stroke:#181818;stroke-width:1;"/><polygon fill="none" points="413.91,132.8469,406.6991,132.895,403.9701,139.5698,411.181,139.5216,413.91,132.8469" style="stroke:#181818;stroke-width:1;"/></g><!--reverse link DepInjector to Loader--><g class="link" data-entity-1="DepInjector" data-entity-2="Loader" data-source-line="61" data-uid="lnk28" id="link_DepInjector_Loader"><path codeLine="61" d="M515.9147,136.1146 C586.1447,163.4146 698.12,207.3069 803,250.2969 C809.25,252.8569 815.69,255.5269 822.18,258.2269" fill="none" id="DepInjector-backto-Loader" style="stroke:#181818;stroke-width:1;"/><polygon fill="none" points="504.73,131.7669,508.8731,137.669,515.9147,136.1146,511.7716,130.2125,504.73,131.7669" style="stroke:#181818;stroke-width:1;"/></g><!--reverse link DepInjector to BlockFactory--><g class="link" data-entity-1="DepInjector" data-entity-2="BlockFactory" data-source-line="62" data-uid="lnk30" id="link_DepInjector_BlockFactory"><path codeLine="62" d="M479.2481,141.3791 C507.9581,170.4091 549.58,212.4669 586.7,249.9869" fill="none" id="DepInjector-backto-BlockFactory" style="stroke:#181818;stroke-width:1;"/><polygon fill="none" points="470.81,132.8469,472.185,139.9257,479.2481,141.3791,477.8731,134.3003,470.81,132.8469" style="stroke:#181818;stroke-width:1;"/></g><!--link Maze to Environment--><g class="link" data-entity-1="Maze" data-entity-2="Environment" data-source-line="69" data-uid="lnk31" id="link_Maze_Environment"><path codeLine="69" d="M413.26,330.8369 C455.72,362.7769 511.3212,404.602 549.5312,433.352" fill="none" id="Maze-to-Environment" style="stroke:#181818;stroke-width:1;"/><polygon fill="#181818" points="559.12,440.5669,556.7305,433.7632,549.5312,433.352,551.9206,440.1557,559.12,440.5669" style="stroke:#181818;stroke-width:1;"/></g><!--reverse link NodePath to Loader--><g class="link" data-entity-1="NodePath" data-entity-2="Loader" data-source-line="71" data-uid="lnk32" id="link_NodePath_Loader"><path codeLine="71" d="M921.9293,179.4366 C920.2893,207.4466 918.76,233.5069 917.33,258.0469" fill="none" id="NodePath-backto-Loader" style="stroke:#181818;stroke-width:1;"/><polygon fill="#181818" points="922.28,173.4469,917.7608,182.1977,921.9877,178.4383,925.7471,182.6653,922.28,173.4469" style="stroke:#181818;stroke-width:1;"/><text fill="#000000" font-family="sans-serif" font-size="13" lengthAdjust="spacing" textLength="48.3247" x="921" y="216.3638">creates</text></g><!--reverse link FileLoader to ConstLevelFactory--><g class="link" data-entity-1="FileLoader" data-entity-2="ConstLevelFactory" data-source-line="73" data-uid="lnk33" id="link_FileLoader_ConstLevelFactory"><path codeLine="73" d="M124.4125,343.8461 C103.7325,366.4761 84.92,392.2569 74,424.2969 C53.87,483.3669 67.69,557.3869 78.53,598.5369" fill="none" id="FileLoader-backto-ConstLevelFactory" style="stroke:#181818;stroke-width:1;"/><polygon fill="#181818" points="128.46,339.4169,119.4359,343.3623,125.0871,343.1079,125.3415,348.759,128.46,339.4169" style="stroke:#181818;stroke-width:1;"/></g><!--reverse link FileLoader to VirtualFS--><g class="link" data-entity-1="FileLoader" data-entity-2="VirtualFS" data-source-line="74" data-uid="lnk35" id="link_FileLoader_VirtualFS"><path codeLine="74" d="M170,351.4969 C170,377.1869 170,398.5069 170,424.1769" fill="none" id="FileLoader-backto-VirtualFS" style="stroke:#181818;stroke-width:1;"/><polygon fill="none" points="170,339.4969,166,345.4969,170,351.4969,174,345.4969,170,339.4969" style="stroke:#181818;stroke-width:1;"/></g><!--link Environment to LevelManager--><g class="link" data-entity-1="Environment" data-entity-2="LevelManager" data-source-line="94" data-uid="lnk38" id="link_Environment_LevelManager"><path codeLine="94" d="M590,488.9469 C590,508.9869 590,526.9469 590,554.0869" fill="none" id="Environment-to-LevelManager" style="stroke:#181818;stroke-width:1;"/><polygon fill="#181818" points="590,566.0869,594,560.0869,590,554.0869,586,560.0869,590,566.0869" style="stroke:#181818;stroke-width:1;"/></g><!--link LevelFactory to LevelManager--><g class="link" data-entity-1="LevelFactory" data-entity-2="LevelManager" data-source-line="95" data-uid="lnk40" id="link_LevelFactory_LevelManager"><path codeLine="95" d="M434.62,505.4969 C457.38,523.6969 475.5392,538.231 501.0792,558.661" fill="none" id="LevelFactory-to-LevelManager" style="stroke:#181818;stroke-width:1;"/><polygon fill="#181818" points="510.45,566.1569,508.2632,559.2853,501.0792,558.661,503.266,565.5325,510.45,566.1569" style="stroke:#181818;stroke-width:1;"/></g><!--SRC=[VLJ1Rjim3BtxAuZsugHnFc38QTao36Y7OGMsmn04YiscQcN9a9IqpjP_dqJPZXIdknWM-KW-aa-ot0g49Ge1IyrU16eeu9VIee8lA54povNCChOrLhFIGYcOCV1HgF9vvSvAj_0d0xZ-fYg4KYEpkC6wiMq-EJU_C278UXDPypjsH2flsmPdy20Kis1A9d2IlOqAt-81HLBOnqFDdd4Zl2yK-2mFN2jPexJ1X_AGKxwGPgcaiQDSHSFiumdqWybArMCKTqaDFw97KlL5KIJ4FdIzcInBeXT_7N1K-W9cN7aqY3icsGwhC8E3ufMp8vFx9cxJp_cxwubGl6u4S0ds4G7bZalqaw9GZR927KP71eDsGpl8QH-fer4cVvr1EuEZTw0jv_DvVcbR7KbQzqabBcCLu7qJr7G4pWRYHJ5D75cYF8gxjrLix7kF9935F2WcTfwbFFU6R9-m-IgVq6Dw4wtUTtKZkB6_wTEBURqUn57icq8byIikyDRDm5-raVDTHy9oxEv8TU7lxtlOmAPsVoBtaf-So4xJveSzaCGfToJkg975HML70EK0FxcsUoPMzptRo4-3TE89wWYid6NRkaedsmokjbUHm8UC_-dO5v6iHjWvxJwuGtn3Y6wGHySXxjyTatxSsLz-UcWsSb_xru3s7gFMq6YiqAAk7ODgk3eIN-tmHhrrJqDVUketcip-WZkkyWy0]--></g></svg>