<svg xmlns="http://www.w3.org/2000/svg" xmlns:xlink="http://www.w3.org/1999/xlink" contentStyleType="text/css" data-diagram-type="DESCRIPTION" height="741px" preserveAspectRatio="none" style="width:1415px;height:741px;background:#FFFFFF;" version="1.1" viewBox="0 0 1415 741" width="1415px" zoomAndPan="magnify"><defs/><g><!--cluster Roguelike--><g class="cluster" data-entity="Roguelike" data-source-line="10" data-uid="ent0003" id="cluster_Roguelike"><path d="M8.5,78.29 L87.7852,78.29 A3.75,3.75 0 0 1 90.2852,80.79 L97.2852,100.5869 L1339.5,100.5869 A2.5,2.5 0 0 1 1342,103.0869 L1342,731.98 A2.5,2.5 0 0 1 1339.5,734.48 L8.5,734.48 A2.5,2.5 0 0 1 6,731.98 L6,80.79 A2.5,2.5 0 0 1 8.5,78.29" fill="none" style="stroke:#000000;stroke-width:1.5;"/><line style="stroke:#000000;stroke-width:1.5;" x1="6" x2="97.2852" y1="100.5869" y2="100.5869"/><text fill="#000000" font-family="sans-serif" font-size="14" font-weight="bold" lengthAdjust="spacing" textLength="78.2852" x="10" y="93.2851">Roguelike</text></g><!--cluster logic--><g class="cluster" data-entity="logic" data-source-line="14" data-uid="ent0005" id="cluster_logic"><path d="M40.5,183.59 L133.0537,183.59 A3.75,3.75 0 0 1 135.5537,186.09 L142.5537,205.8869 L1307.5,205.8869 A2.5,2.5 0 0 1 1310,208.3869 L1310,699.98 A2.5,2.5 0 0 1 1307.5,702.48 L40.5,702.48 A2.5,2.5 0 0 1 38,699.98 L38,186.09 A2.5,2.5 0 0 1 40.5,183.59" fill="none" style="stroke:#000000;stroke-width:1.5;"/><line style="stroke:#000000;stroke-width:1.5;" x1="38" x2="142.5537" y1="205.8869" y2="205.8869"/><text fill="#000000" font-family="sans-serif" font-size="14" font-weight="bold" lengthAdjust="spacing" textLength="91.5537" x="42" y="198.5851">Game Logic</text></g><!--cluster world--><g class="cluster" data-entity="world" data-source-line="17" data-uid="ent0006" id="cluster_world"><rect fill="none" height="266.59" rx="2.5" ry="2.5" style="stroke:#181818;stroke-width:1;" width="380" x="78" y="242.59"/><rect fill="none" height="10" style="stroke:#181818;stroke-width:1;" width="15" x="438" y="247.59"/><rect fill="none" height="2" style="stroke:#181818;stroke-width:1;" width="4" x="436" y="249.59"/><rect fill="none" height="2" style="stroke:#181818;stroke-width:1;" width="4" x="436" y="253.59"/><text fill="#000000" font-family="sans-serif" font-size="14" font-weight="bold" lengthAdjust="spacing" textLength="139.5352" x="198.2324" y="268.5851">World Generation</text></g><!--cluster systems--><g class="cluster" data-entity="systems" data-source-line="24" data-uid="ent0010" id="cluster_systems"><rect fill="none" height="266.59" rx="2.5" ry="2.5" style="stroke:#181818;stroke-width:1;" width="571" x="498" y="395.89"/><rect fill="none" height="10" style="stroke:#181818;stroke-width:1;" width="15" x="1049" y="400.89"/><rect fill="none" height="2" style="stroke:#181818;stroke-width:1;" width="4" x="1047" y="402.89"/><rect fill="none" height="2" style="stroke:#181818;stroke-width:1;" width="4" x="1047" y="406.89"/><text fill="#000000" font-family="sans-serif" font-size="14" font-weight="bold" lengthAdjust="spacing" textLength="116.5459" x="725.2271" y="421.8851">Game Systems</text></g><!--cluster ui--><g class="cluster" data-entity="ui" data-source-line="32" data-uid="ent0015" id="cluster_ui"><rect fill="none" height="113.3" rx="2.5" ry="2.5" style="stroke:#181818;stroke-width:1;" width="153" x="1109" y="549.18"/><rect fill="none" height="10" style="stroke:#181818;stroke-width:1;" width="15" x="1242" y="554.18"/><rect fill="none" height="2" style="stroke:#181818;stroke-width:1;" width="4" x="1240" y="556.18"/><rect fill="none" height="2" style="stroke:#181818;stroke-width:1;" width="4" x="1240" y="560.18"/><text fill="#000000" font-family="sans-serif" font-size="14" font-weight="bold" lengthAdjust="spacing" textLength="79.7686" x="1145.6157" y="575.1751">UI System</text></g><!--cluster input--><g class="cluster" data-entity="input" data-source-line="37" data-uid="ent0017" id="cluster_input"><rect fill="none" height="113.3" rx="2.5" ry="2.5" style="stroke:#181818;stroke-width:1;" width="365" x="704" y="242.59"/><rect fill="none" height="10" style="stroke:#181818;stroke-width:1;" width="15" x="1049" y="247.59"/><rect fill="none" height="2" style="stroke:#181818;stroke-width:1;" width="4" x="1047" y="249.59"/><rect fill="none" height="2" style="stroke:#181818;stroke-width:1;" width="4" x="1047" y="253.59"/><text fill="#000000" font-family="sans-serif" font-size="14" font-weight="bold" lengthAdjust="spacing" textLength="105.0479" x="833.9761" y="268.5851">Input System</text></g><!--entity core--><g class="entity" data-entity="core" data-source-line="12" data-uid="ent0004" id="entity_core"><rect fill="#90EE90" height="46.2969" rx="2.5" ry="2.5" style="stroke:#181818;stroke-width:0.5;" width="190.001" x="1136" y="113.29"/><rect fill="#90EE90" height="10" style="stroke:#181818;stroke-width:0.5;" width="15" x="1306.001" y="118.29"/><rect fill="#90EE90" height="2" style="stroke:#181818;stroke-width:0.5;" width="4" x="1304.001" y="120.29"/><rect fill="#90EE90" height="2" style="stroke:#181818;stroke-width:0.5;" width="4" x="1304.001" y="124.29"/><text fill="#000000" font-family="sans-serif" font-size="14" lengthAdjust="spacing" textLength="150.001" x="1151" y="146.2851">Core Game (Adapter)</text></g><!--entity lfactory--><g class="entity" data-entity="lfactory" data-source-line="18" data-uid="ent0007" id="entity_lfactory"><rect fill="#FFDAB9" height="46.2969" rx="2.5" ry="2.5" style="stroke:#181818;stroke-width:0.5;" width="129.626" x="102.19" y="285.59"/><rect fill="#FFDAB9" height="10" style="stroke:#181818;stroke-width:0.5;" width="15" x="211.816" y="290.59"/><rect fill="#FFDAB9" height="2" style="stroke:#181818;stroke-width:0.5;" width="4" x="209.816" y="292.59"/><rect fill="#FFDAB9" height="2" style="stroke:#181818;stroke-width:0.5;" width="4" x="209.816" y="296.59"/><text fill="#000000" font-family="sans-serif" font-size="14" lengthAdjust="spacing" textLength="89.626" x="117.19" y="318.5851">LevelFactory</text></g><!--entity maze--><g class="entity" data-entity="maze" data-source-line="19" data-uid="ent0008" id="entity_maze"><rect fill="#FFDAB9" height="46.2969" rx="2.5" ry="2.5" style="stroke:#181818;stroke-width:0.5;" width="147.7139" x="267.14" y="285.59"/><rect fill="#FFDAB9" height="10" style="stroke:#181818;stroke-width:0.5;" width="15" x="394.8539" y="290.59"/><rect fill="#FFDAB9" height="2" style="stroke:#181818;stroke-width:0.5;" width="4" x="392.8539" y="292.59"/><rect fill="#FFDAB9" height="2" style="stroke:#181818;stroke-width:0.5;" width="4" x="392.8539" y="296.59"/><text fill="#000000" font-family="sans-serif" font-size="14" lengthAdjust="spacing" textLength="107.7139" x="282.14" y="318.5851">MazeGenerator</text></g><!--entity mob--><g class="entity" data-entity="mob" data-source-line="20" data-uid="ent0009" id="entity_mob"><rect fill="#FFDAB9" height="46.2969" rx="2.5" ry="2.5" style="stroke:#181818;stroke-width:0.5;" width="121.9561" x="106.02" y="438.89"/><rect fill="#FFDAB9" height="10" style="stroke:#181818;stroke-width:0.5;" width="15" x="207.9761" y="443.89"/><rect fill="#FFDAB9" height="2" style="stroke:#181818;stroke-width:0.5;" width="4" x="205.9761" y="445.89"/><rect fill="#FFDAB9" height="2" style="stroke:#181818;stroke-width:0.5;" width="4" x="205.9761" y="449.89"/><text fill="#000000" font-family="sans-serif" font-size="14" lengthAdjust="spacing" textLength="81.9561" x="121.02" y="471.8851">MobFactory</text></g><!--entity combat--><g class="entity" data-entity="combat" data-source-line="25" data-uid="ent0011" id="entity_combat"><rect fill="#FFE4B5" height="46.2969" rx="2.5" ry="2.5" style="stroke:#181818;stroke-width:0.5;" width="147.1396" x="522.43" y="438.89"/><rect fill="#FFE4B5" height="10" style="stroke:#181818;stroke-width:0.5;" width="15" x="649.5696" y="443.89"/><rect fill="#FFE4B5" height="2" style="stroke:#181818;stroke-width:0.5;" width="4" x="647.5696" y="445.89"/><rect fill="#FFE4B5" height="2" style="stroke:#181818;stroke-width:0.5;" width="4" x="647.5696" y="449.89"/><text fill="#000000" font-family="sans-serif" font-size="14" lengthAdjust="spacing" textLength="107.1396" x="537.43" y="471.8851">CombatSystem</text></g><!--entity inv--><g class="entity" data-entity="inv" data-source-line="26" data-uid="ent0012" id="entity_inv"><rect fill="#FFE4B5" height="46.2969" rx="2.5" ry="2.5" style="stroke:#181818;stroke-width:0.5;" width="159.0752" x="704.46" y="438.89"/><rect fill="#FFE4B5" height="10" style="stroke:#181818;stroke-width:0.5;" width="15" x="843.5352" y="443.89"/><rect fill="#FFE4B5" height="2" style="stroke:#181818;stroke-width:0.5;" width="4" x="841.5352" y="445.89"/><rect fill="#FFE4B5" height="2" style="stroke:#181818;stroke-width:0.5;" width="4" x="841.5352" y="449.89"/><text fill="#000000" font-family="sans-serif" font-size="14" lengthAdjust="spacing" textLength="119.0752" x="719.46" y="471.8851">InventorySystem</text></g><!--entity shop--><g class="entity" data-entity="shop" data-source-line="27" data-uid="ent0013" id="entity_shop"><rect fill="#FFE4B5" height="46.2969" rx="2.5" ry="2.5" style="stroke:#181818;stroke-width:0.5;" width="139.5449" x="526.23" y="592.18"/><rect fill="#FFE4B5" height="10" style="stroke:#181818;stroke-width:0.5;" width="15" x="645.7749" y="597.18"/><rect fill="#FFE4B5" height="2" style="stroke:#181818;stroke-width:0.5;" width="4" x="643.7749" y="599.18"/><rect fill="#FFE4B5" height="2" style="stroke:#181818;stroke-width:0.5;" width="4" x="643.7749" y="603.18"/><text fill="#000000" font-family="sans-serif" font-size="14" lengthAdjust="spacing" textLength="99.5449" x="541.23" y="625.1751">ChestsSystem</text></g><!--entity save--><g class="entity" data-entity="save" data-source-line="28" data-uid="ent0014" id="entity_save"><rect fill="#FFE4B5" height="46.2969" rx="2.5" ry="2.5" style="stroke:#181818;stroke-width:0.5;" width="126.5703" x="898.71" y="438.89"/><rect fill="#FFE4B5" height="10" style="stroke:#181818;stroke-width:0.5;" width="15" x="1005.2803" y="443.89"/><rect fill="#FFE4B5" height="2" style="stroke:#181818;stroke-width:0.5;" width="4" x="1003.2803" y="445.89"/><rect fill="#FFE4B5" height="2" style="stroke:#181818;stroke-width:0.5;" width="4" x="1003.2803" y="449.89"/><text fill="#000000" font-family="sans-serif" font-size="14" lengthAdjust="spacing" textLength="86.5703" x="913.71" y="471.8851">SaveSystem</text></g><!--entity menus--><g class="entity" data-entity="menus" data-source-line="34" data-uid="ent0016" id="entity_menus"><rect fill="#E6E6FA" height="46.2969" rx="2.5" ry="2.5" style="stroke:#181818;stroke-width:0.5;" width="85.7324" x="1133.13" y="592.18"/><rect fill="#E6E6FA" height="10" style="stroke:#181818;stroke-width:0.5;" width="15" x="1198.8624" y="597.18"/><rect fill="#E6E6FA" height="2" style="stroke:#181818;stroke-width:0.5;" width="4" x="1196.8624" y="599.18"/><rect fill="#E6E6FA" height="2" style="stroke:#181818;stroke-width:0.5;" width="4" x="1196.8624" y="603.18"/><text fill="#000000" font-family="sans-serif" font-size="14" lengthAdjust="spacing" textLength="45.7324" x="1148.13" y="625.1751">Menus</text></g><!--entity keys--><g class="entity" data-entity="keys" data-source-line="38" data-uid="ent0018" id="entity_keys"><rect fill="#D8BFD8" height="46.2969" rx="2.5" ry="2.5" style="stroke:#181818;stroke-width:0.5;" width="126.2764" x="727.86" y="285.59"/><rect fill="#D8BFD8" height="10" style="stroke:#181818;stroke-width:0.5;" width="15" x="834.1364" y="290.59"/><rect fill="#D8BFD8" height="2" style="stroke:#181818;stroke-width:0.5;" width="4" x="832.1364" y="292.59"/><rect fill="#D8BFD8" height="2" style="stroke:#181818;stroke-width:0.5;" width="4" x="832.1364" y="296.59"/><text fill="#000000" font-family="sans-serif" font-size="14" lengthAdjust="spacing" textLength="86.2764" x="742.86" y="318.5851">KeyBindings</text></g><!--entity mouse--><g class="entity" data-entity="mouse" data-source-line="39" data-uid="ent0019" id="entity_mouse"><rect fill="#D8BFD8" height="46.2969" rx="2.5" ry="2.5" style="stroke:#181818;stroke-width:0.5;" width="136.3389" x="888.83" y="285.59"/><rect fill="#D8BFD8" height="10" style="stroke:#181818;stroke-width:0.5;" width="15" x="1005.1689" y="290.59"/><rect fill="#D8BFD8" height="2" style="stroke:#181818;stroke-width:0.5;" width="4" x="1003.1689" y="292.59"/><rect fill="#D8BFD8" height="2" style="stroke:#181818;stroke-width:0.5;" width="4" x="1003.1689" y="296.59"/><text fill="#000000" font-family="sans-serif" font-size="14" lengthAdjust="spacing" textLength="96.3389" x="903.83" y="318.5851">MouseControl</text></g><!--entity engine--><g class="entity" data-entity="engine" data-source-line="7" data-uid="ent0002" id="entity_engine"><rect fill="#ADD8E6" height="46.2969" rx="2.5" ry="2.5" style="stroke:#181818;stroke-width:0.5;" width="212.5322" x="1124.73" y="7"/><rect fill="#ADD8E6" height="10" style="stroke:#181818;stroke-width:0.5;" width="15" x="1317.2622" y="12"/><rect fill="#ADD8E6" height="2" style="stroke:#181818;stroke-width:0.5;" width="4" x="1315.2622" y="14"/><rect fill="#ADD8E6" height="2" style="stroke:#181818;stroke-width:0.5;" width="4" x="1315.2622" y="18"/><text fill="#000000" font-family="sans-serif" font-size="14" lengthAdjust="spacing" textLength="172.5322" x="1139.73" y="39.9951">Game Engine (Panda3D)</text></g><!--entity db--><g class="entity" data-entity="db" data-source-line="53" data-uid="ent0025" id="entity_db"><path d="M1357.81,602.68 C1357.81,592.68 1378.0024,592.68 1378.0024,592.68 C1378.0024,592.68 1398.1948,592.68 1398.1948,602.68 L1398.1948,627.9769 C1398.1948,637.9769 1378.0024,637.9769 1378.0024,637.9769 C1378.0024,637.9769 1357.81,637.9769 1357.81,627.9769 L1357.81,602.68" fill="#FFC0CB" style="stroke:#181818;stroke-width:0.5;"/><path d="M1357.81,602.68 C1357.81,612.68 1378.0024,612.68 1378.0024,612.68 C1378.0024,612.68 1398.1948,612.68 1398.1948,602.68" fill="none" style="stroke:#181818;stroke-width:0.5;"/><text fill="#000000" font-family="sans-serif" font-size="14" lengthAdjust="spacing" textLength="20.3848" x="1367.81" y="629.6751">DB</text></g><!--link engine to core--><g class="link" data-entity-1="engine" data-entity-2="core" data-source-line="46" data-uid="lnk20" id="link_engine_core"><path d="M1231,53.77 C1231,71.27 1231,89.37 1231,106.85" fill="none" id="engine-to-core" style="stroke:#181818;stroke-width:1;"/><polygon fill="#181818" points="1231,112.85,1235,103.85,1231,107.85,1227,103.85,1231,112.85" style="stroke:#181818;stroke-width:1;"/></g><!--link core to logic--><g class="link" data-entity-1="core" data-entity-2="logic" data-source-line="47" data-uid="lnk21" id="link_core_logic"><path d="M1240.43,160.06 C1242.8063,165.76 1245.53,172.2931 1248.4797,179.368 C1248.8485,180.2524 1249.2207,181.1452 1249.5963,182.046 C1249.784,182.4963 1247.6637,199.7076 1247.8531,200.1619" fill="none" id="core-to-logic" style="stroke:#181818;stroke-width:1;"/><polygon fill="#181818" points="1250.162,205.6998,1250.3905,195.8536,1248.2379,201.0848,1243.0066,198.9322,1250.162,205.6998" style="stroke:#181818;stroke-width:1;"/></g><!--link world to systems--><g class="link" data-entity-1="world" data-entity-2="systems" data-source-line="49" data-uid="lnk22" id="link_world_systems"><path d="M458.2429,312.3611 C458.3869,312.4063 458.5326,312.452 458.6801,312.4983 C458.9751,312.5907 459.2771,312.6853 459.586,312.7819 C460.2039,312.9751 460.8496,313.1766 461.5224,313.386 C462.8681,313.8047 464.3225,314.2552 465.8807,314.7352 C468.997,315.6952 472.5286,316.773 476.4363,317.9505 C492.0669,322.6603 513.715,328.9644 538.8775,335.6963 C589.2025,349.16 653.585,364.335 712,371.89 C730.13,374.23 1026.75,368.44 1041,379.89 C1044.5063,382.7063 1047.4566,386.0303 1049.9342,389.6979 C1051.173,391.5317 1052.2936,393.4514 1053.3064,395.4364 C1053.3697,395.5605 1050.7432,390.3213 1050.8056,390.4459" fill="none" id="world-to-systems" style="stroke:#181818;stroke-width:1;"/><polygon fill="#181818" points="1053.4951,395.8094,1053.0366,385.9712,1051.2539,391.3398,1045.8853,389.5571,1053.4951,395.8094" style="stroke:#181818;stroke-width:1;"/></g><!--link systems to ui--><g class="link" data-entity-1="systems" data-entity-2="ui" data-source-line="50" data-uid="lnk23" id="link_systems_ui"><path d="M1069.2291,463.7413 C1069.3567,463.7544 1069.4857,463.7677 1069.616,463.7812 C1069.8765,463.8082 1070.1424,463.8361 1070.4136,463.8649 C1071.498,463.98 1072.6661,464.1096 1073.9124,464.255 C1076.405,464.5459 1079.2104,464.9004 1082.2855,465.3298 C1094.5859,467.0478 1111.2019,469.9669 1129.3738,474.8262 C1165.7175,484.545 1208.285,502.025 1235,533.18 C1237.92,536.585 1240.4114,540.3553 1242.5352,544.3525 C1243.0661,545.3518 1243.5741,546.3653 1244.0601,547.3908 C1244.303,547.9036 1242.0892,542.9429 1242.3213,543.4614" fill="none" id="systems-to-ui" style="stroke:#181818;stroke-width:1;"/><polygon fill="#181818" points="1244.7726,548.9378,1244.7466,539.089,1242.7298,544.3742,1237.4447,542.3574,1244.7726,548.9378" style="stroke:#181818;stroke-width:1;"/></g><!--link input to systems--><g class="link" data-entity-1="input" data-entity-2="systems" data-source-line="51" data-uid="lnk24" id="link_input_systems"><path d="M1061,356.0524 C1061,356.3187 1061,356.5855 1061,356.8529 C1061,357.3877 1061,357.9247 1061,358.4639 C1061,367.0901 1061,376.2534 1061,385.4163 C1061,387.707 1061,389.9976 1061,392.2799 C1061,393.421 1061,388.56 1061,389.6958" fill="none" id="input-to-systems" style="stroke:#181818;stroke-width:1;"/><polygon fill="#181818" points="1061,395.6958,1065,386.6958,1061,390.6958,1057,386.6958,1061,395.6958" style="stroke:#181818;stroke-width:1;"/></g><!--link save to db--><g class="link" data-entity-1="save" data-entity-2="db" data-source-line="54" data-uid="lnk26" id="link_save_db"><path d="M978.94,485.47 C991.13,499.69 1008.9,516.91 1029,525.18 C1078.55,545.58 1219.46,515.37 1270,533.18 C1304.73,545.42 1333.1833,568.9821 1353.3233,588.6121" fill="none" id="save-to-db" style="stroke:#181818;stroke-width:1;"/><polygon fill="#181818" points="1357.62,592.8,1353.9669,583.6537,1354.0394,589.3101,1348.383,589.3826,1357.62,592.8" style="stroke:#181818;stroke-width:1;"/></g><!--SRC=[VLJ1RXCn4BtxAqR98ULG95hEI6q29Q98Y51nTdOd6ojUUxNhJGbL9Sg1Imv8d1079FuWQea8A0s_uFqZnjv0tKGbYRpsx9itupSpQO4HHYBOBtPbb_OthTTsRg-hz_ISLH_1VhSBExDNrJjQb_ITGHkbX7REJoNcZ1KZeJAUynHY7F1IcbVunXn8aQWKbO685eBTe2ATPbgHjMSc5BXCvHvZBNXm7-pNweAYhkmbnP_QETXVcqbLK_RF7nf7F4Luh1AX47PUS1Np_Swz1l02i3OsAOsXwSiI6MCPZqOyGMYyr4c9Keom0MSiv6lh7C6JxXp4FAEyQxR8sMkk94TK0PT77-j4H1uftSwnjc2FBlJDBgeBad9kbzKKx9MxX9qxAQiF9EiY3FvQvpA68rIOSoEqydodtdZ6W3u1zXZ7A9_moEXyKiSTr0TePiYZOLOE1fi-p_bRNBFht3kbPFcVW-w78LBT3y7dxexxTCVFlZUeQBvaLC7Wobl5waqAWsdX2OjwltsxjaxxtDJGjVxE0CrKHn4lXDfqwAenFIdHm4UeyTqExI4MfWZGnL1dTyDxV8mXc8u1s2lna9JuP7_GZ2oeOrSqDNFxqmjnIPPvACH95mAoKgm5Q0MGfoST_t9OnjHt54x5D4ERzK5LragcRXS0pszrTLTbfO5RqZZ3bkpFS78eL2nKKhEES4AaPYWA-eFORewomBPM9jTotHvak85J2lLlFOcxku_y634_I-xaHuMnkiETOTqFx6zVE5ifM9rj260nDxpFALoZS-Y3nwurXHenNng7ZVj_0000]--></g></svg>
