<svg xmlns="http://www.w3.org/2000/svg" xmlns:xlink="http://www.w3.org/1999/xlink" contentStyleType="text/css" data-diagram-type="SEQUENCE" height="1670px" preserveAspectRatio="none" style="width:1072px;height:1670px;background:#FFFFFF;" version="1.1" viewBox="0 0 1072 1670" width="1072px" zoomAndPan="magnify"><title>Прохождение уровня в Cell Crawler</title><defs/><g><text fill="#000000" font-family="sans-serif" font-size="14" font-weight="bold" lengthAdjust="spacing" textLength="288.4834" x="388.0474" y="27.9951">Прохождение уровня в Cell Crawler</text><g><title>LevelManager</title><rect fill="#FFFFFF" height="262.1953" style="stroke:#181818;stroke-width:1;" width="10" x="223.0229" y="192.8594"/></g><g><title>LevelManager</title><rect fill="#FFFFFF" height="29.1328" style="stroke:#181818;stroke-width:1;" width="10" x="223.0229" y="1372.1719"/></g><g><title>LevelManager</title><rect fill="#FFFFFF" height="29.1328" style="stroke:#181818;stroke-width:1;" width="10" x="223.0229" y="1535.8359"/></g><g><title>LevelFactory</title><rect fill="#FFFFFF" height="87.3984" style="stroke:#181818;stroke-width:1;" width="10" x="350.7715" y="221.9922"/></g><g><title>Maze</title><rect fill="#FFFFFF" height="29.1328" style="stroke:#181818;stroke-width:1;" width="10" x="477.9805" y="251.125"/></g><g><title>Maze</title><rect fill="#FFFFFF" height="29.1328" style="stroke:#181818;stroke-width:1;" width="10" x="477.9805" y="551.4531"/></g><g><title>MobFactory</title><rect fill="#FFFFFF" height="29.1328" style="stroke:#181818;stroke-width:1;" width="10" x="561.2686" y="338.5234"/></g><g><title>Inventory</title><rect fill="#FFFFFF" height="29.1328" style="stroke:#181818;stroke-width:1;" width="10" x="680.3691" y="1076.8438"/></g><g><title>CombatSystem</title><rect fill="#FFFFFF" height="87.3984" style="stroke:#181818;stroke-width:1;" width="10" x="791.3735" y="609.7188"/></g><g><title>CombatSystem</title><rect fill="#FFFFFF" height="215.9297" style="stroke:#181818;stroke-width:1;" width="10" x="791.3735" y="750.3828"/></g><g><title>CombatSystem</title><rect fill="#FFFFFF" height="29.1328" style="stroke:#181818;stroke-width:1;" width="10" x="791.3735" y="987.4453"/></g><g><title>ChestsSystem</title><rect fill="#FFFFFF" height="29.1328" style="stroke:#181818;stroke-width:1;" width="10" x="918.7158" y="396.7891"/></g><g><title>ChestsSystem</title><rect fill="#FFFFFF" height="145.6641" style="stroke:#181818;stroke-width:1;" width="10" x="918.7158" y="1166.2422"/></g><rect fill="none" height="312.4609" style="stroke:#000000;stroke-width:1.5;" width="1025.5781" x="20" y="712.1172"/><rect fill="none" height="135.6641" style="stroke:#000000;stroke-width:1.5;" width="836.9434" x="30" y="823.6484"/><rect fill="none" height="75.3984" style="stroke:#000000;stroke-width:1.5;" width="705.8037" x="30" y="1038.5781"/><rect fill="none" height="191.9297" style="stroke:#000000;stroke-width:1.5;" width="960.4883" x="30" y="1127.9766"/><rect fill="none" height="106.5313" style="stroke:#000000;stroke-width:1.5;" width="264.3066" x="30" y="1333.9063"/><rect fill="none" height="17.1328" style="stroke:#000000;stroke-width:1.5;" width="91.9517" x="50" y="1416.3047"/><rect fill="none" height="75.3984" style="stroke:#000000;stroke-width:1.5;" width="264.3066" x="30" y="1497.5703"/><g><title>Player</title><rect fill="#000000" fill-opacity="0.00000" height="1471.375" width="8" x="60.7827" y="118.5938"/><line style="stroke:#181818;stroke-width:0.5;stroke-dasharray:5.0,5.0;" x1="64" x2="64" y1="118.5938" y2="1589.9688"/></g><g><title>LevelManager</title><rect fill="#000000" fill-opacity="0.00000" height="1471.375" width="8" x="224.0229" y="118.5938"/><line style="stroke:#181818;stroke-width:0.5;stroke-dasharray:5.0,5.0;" x1="227.7393" x2="227.7393" y1="118.5938" y2="1589.9688"/></g><g><title>LevelFactory</title><rect fill="#000000" fill-opacity="0.00000" height="1471.375" width="8" x="351.7715" y="118.5938"/><line style="stroke:#181818;stroke-width:0.5;stroke-dasharray:5.0,5.0;" x1="354.9585" x2="354.9585" y1="118.5938" y2="1589.9688"/></g><g><title>Maze</title><rect fill="#000000" fill-opacity="0.00000" height="1471.375" width="8" x="478.9805" y="118.5938"/><line style="stroke:#181818;stroke-width:0.5;stroke-dasharray:5.0,5.0;" x1="482.6704" x2="482.6704" y1="118.5938" y2="1589.9688"/></g><g><title>MobFactory</title><rect fill="#000000" fill-opacity="0.00000" height="1471.375" width="8" x="562.2686" y="118.5938"/><line style="stroke:#181818;stroke-width:0.5;stroke-dasharray:5.0,5.0;" x1="565.2905" x2="565.2905" y1="118.5938" y2="1589.9688"/></g><g><title>Inventory</title><rect fill="#000000" fill-opacity="0.00000" height="1471.375" width="8" x="681.3691" y="118.5938"/><line style="stroke:#181818;stroke-width:0.5;stroke-dasharray:5.0,5.0;" x1="684.9346" x2="684.9346" y1="118.5938" y2="1589.9688"/></g><g><title>CombatSystem</title><rect fill="#000000" fill-opacity="0.00000" height="1471.375" width="8" x="792.3735" y="118.5938"/><line style="stroke:#181818;stroke-width:0.5;stroke-dasharray:5.0,5.0;" x1="795.8037" x2="795.8037" y1="118.5938" y2="1589.9688"/></g><g><title>ChestsSystem</title><rect fill="#000000" fill-opacity="0.00000" height="1471.375" width="8" x="919.7158" y="118.5938"/><line style="stroke:#181818;stroke-width:0.5;stroke-dasharray:5.0,5.0;" x1="922.9434" x2="922.9434" y1="118.5938" y2="1589.9688"/></g><g><title>mob</title><rect fill="#000000" fill-opacity="0.00000" height="1471.375" width="8" x="1009.0332" y="118.5938"/><line style="stroke:#181818;stroke-width:0.5;stroke-dasharray:5.0,5.0;" x1="1012.4883" x2="1012.4883" y1="118.5938" y2="1589.9688"/></g><g class="participant participant-head" data-participant="player"><text fill="#000000" font-family="sans-serif" font-size="14" lengthAdjust="spacing" textLength="43.5654" x="40" y="115.292">Player</text><ellipse cx="64.7827" cy="50.7969" fill="#E2E2F0" rx="8" ry="8" style="stroke:#181818;stroke-width:0.5;"/><path d="M64.7827,58.7969 L64.7827,85.7969 M51.7827,66.7969 L77.7827,66.7969 M64.7827,85.7969 L51.7827,100.7969 M64.7827,85.7969 L77.7827,100.7969" fill="none" style="stroke:#181818;stroke-width:0.5;"/></g><g class="participant participant-tail" data-participant="player"><text fill="#000000" font-family="sans-serif" font-size="14" lengthAdjust="spacing" textLength="43.5654" x="40" y="1601.9639">Player</text><ellipse cx="64.7827" cy="1613.7656" fill="#E2E2F0" rx="8" ry="8" style="stroke:#181818;stroke-width:0.5;"/><path d="M64.7827,1621.7656 L64.7827,1648.7656 M51.7827,1629.7656 L77.7827,1629.7656 M64.7827,1648.7656 L51.7827,1663.7656 M64.7827,1648.7656 L77.7827,1663.7656" fill="none" style="stroke:#181818;stroke-width:0.5;"/></g><g class="participant participant-head" data-participant="lm"><rect fill="#E2E2F0" height="30.2969" rx="2.5" ry="2.5" style="stroke:#181818;stroke-width:0.5;" width="112.5674" x="171.7393" y="87.2969"/><text fill="#000000" font-family="sans-serif" font-size="14" lengthAdjust="spacing" textLength="98.5674" x="178.7393" y="107.292">LevelManager</text></g><g class="participant participant-tail" data-participant="lm"><rect fill="#E2E2F0" height="30.2969" rx="2.5" ry="2.5" style="stroke:#181818;stroke-width:0.5;" width="112.5674" x="171.7393" y="1588.9688"/><text fill="#000000" font-family="sans-serif" font-size="14" lengthAdjust="spacing" textLength="98.5674" x="178.7393" y="1608.9639">LevelManager</text></g><g class="participant participant-head" data-participant="lf"><rect fill="#E2E2F0" height="30.2969" rx="2.5" ry="2.5" style="stroke:#181818;stroke-width:0.5;" width="103.626" x="303.9585" y="87.2969"/><text fill="#000000" font-family="sans-serif" font-size="14" lengthAdjust="spacing" textLength="89.626" x="310.9585" y="107.292">LevelFactory</text></g><g class="participant participant-tail" data-participant="lf"><rect fill="#E2E2F0" height="30.2969" rx="2.5" ry="2.5" style="stroke:#181818;stroke-width:0.5;" width="103.626" x="303.9585" y="1588.9688"/><text fill="#000000" font-family="sans-serif" font-size="14" lengthAdjust="spacing" textLength="89.626" x="310.9585" y="1608.9639">LevelFactory</text></g><g class="participant participant-head" data-participant="maze"><rect fill="#E2E2F0" height="30.2969" rx="2.5" ry="2.5" style="stroke:#181818;stroke-width:0.5;" width="50.6201" x="457.6704" y="87.2969"/><text fill="#000000" font-family="sans-serif" font-size="14" lengthAdjust="spacing" textLength="36.6201" x="464.6704" y="107.292">Maze</text></g><g class="participant participant-tail" data-participant="maze"><rect fill="#E2E2F0" height="30.2969" rx="2.5" ry="2.5" style="stroke:#181818;stroke-width:0.5;" width="50.6201" x="457.6704" y="1588.9688"/><text fill="#000000" font-family="sans-serif" font-size="14" lengthAdjust="spacing" textLength="36.6201" x="464.6704" y="1608.9639">Maze</text></g><g class="participant participant-head" data-participant="mf"><rect fill="#E2E2F0" height="30.2969" rx="2.5" ry="2.5" style="stroke:#181818;stroke-width:0.5;" width="95.9561" x="518.2905" y="87.2969"/><text fill="#000000" font-family="sans-serif" font-size="14" lengthAdjust="spacing" textLength="81.9561" x="525.2905" y="107.292">MobFactory</text></g><g class="participant participant-tail" data-participant="mf"><rect fill="#E2E2F0" height="30.2969" rx="2.5" ry="2.5" style="stroke:#181818;stroke-width:0.5;" width="95.9561" x="518.2905" y="1588.9688"/><text fill="#000000" font-family="sans-serif" font-size="14" lengthAdjust="spacing" textLength="81.9561" x="525.2905" y="1608.9639">MobFactory</text></g><g class="participant participant-head" data-participant="inv"><rect fill="#E2E2F0" height="30.2969" rx="2.5" ry="2.5" style="stroke:#181818;stroke-width:0.5;" width="80.8691" x="644.9346" y="87.2969"/><text fill="#000000" font-family="sans-serif" font-size="14" lengthAdjust="spacing" textLength="66.8691" x="651.9346" y="107.292">Inventory</text></g><g class="participant participant-tail" data-participant="inv"><rect fill="#E2E2F0" height="30.2969" rx="2.5" ry="2.5" style="stroke:#181818;stroke-width:0.5;" width="80.8691" x="644.9346" y="1588.9688"/><text fill="#000000" font-family="sans-serif" font-size="14" lengthAdjust="spacing" textLength="66.8691" x="651.9346" y="1608.9639">Inventory</text></g><g class="participant participant-head" data-participant="combat"><rect fill="#E2E2F0" height="30.2969" rx="2.5" ry="2.5" style="stroke:#181818;stroke-width:0.5;" width="121.1396" x="735.8037" y="87.2969"/><text fill="#000000" font-family="sans-serif" font-size="14" lengthAdjust="spacing" textLength="107.1396" x="742.8037" y="107.292">CombatSystem</text></g><g class="participant participant-tail" data-participant="combat"><rect fill="#E2E2F0" height="30.2969" rx="2.5" ry="2.5" style="stroke:#181818;stroke-width:0.5;" width="121.1396" x="735.8037" y="1588.9688"/><text fill="#000000" font-family="sans-serif" font-size="14" lengthAdjust="spacing" textLength="107.1396" x="742.8037" y="1608.9639">CombatSystem</text></g><g class="participant participant-head" data-participant="chest"><rect fill="#E2E2F0" height="30.2969" rx="2.5" ry="2.5" style="stroke:#181818;stroke-width:0.5;" width="113.5449" x="866.9434" y="87.2969"/><text fill="#000000" font-family="sans-serif" font-size="14" lengthAdjust="spacing" textLength="99.5449" x="873.9434" y="107.292">ChestsSystem</text></g><g class="participant participant-tail" data-participant="chest"><rect fill="#E2E2F0" height="30.2969" rx="2.5" ry="2.5" style="stroke:#181818;stroke-width:0.5;" width="113.5449" x="866.9434" y="1588.9688"/><text fill="#000000" font-family="sans-serif" font-size="14" lengthAdjust="spacing" textLength="99.5449" x="873.9434" y="1608.9639">ChestsSystem</text></g><g class="participant participant-head" data-participant="mob"><rect fill="#E2E2F0" height="30.2969" rx="2.5" ry="2.5" style="stroke:#181818;stroke-width:0.5;" width="45.0898" x="990.4883" y="87.2969"/><text fill="#000000" font-family="sans-serif" font-size="14" lengthAdjust="spacing" textLength="31.0898" x="997.4883" y="107.292">mob</text></g><g class="participant participant-tail" data-participant="mob"><rect fill="#E2E2F0" height="30.2969" rx="2.5" ry="2.5" style="stroke:#181818;stroke-width:0.5;" width="45.0898" x="990.4883" y="1588.9688"/><text fill="#000000" font-family="sans-serif" font-size="14" lengthAdjust="spacing" textLength="31.0898" x="997.4883" y="1608.9639">mob</text></g><g><title>LevelManager</title><rect fill="#FFFFFF" height="262.1953" style="stroke:#181818;stroke-width:1;" width="10" x="223.0229" y="192.8594"/></g><g><title>LevelManager</title><rect fill="#FFFFFF" height="29.1328" style="stroke:#181818;stroke-width:1;" width="10" x="223.0229" y="1372.1719"/></g><g><title>LevelManager</title><rect fill="#FFFFFF" height="29.1328" style="stroke:#181818;stroke-width:1;" width="10" x="223.0229" y="1535.8359"/></g><g><title>LevelFactory</title><rect fill="#FFFFFF" height="87.3984" style="stroke:#181818;stroke-width:1;" width="10" x="350.7715" y="221.9922"/></g><g><title>Maze</title><rect fill="#FFFFFF" height="29.1328" style="stroke:#181818;stroke-width:1;" width="10" x="477.9805" y="251.125"/></g><g><title>Maze</title><rect fill="#FFFFFF" height="29.1328" style="stroke:#181818;stroke-width:1;" width="10" x="477.9805" y="551.4531"/></g><g><title>MobFactory</title><rect fill="#FFFFFF" height="29.1328" style="stroke:#181818;stroke-width:1;" width="10" x="561.2686" y="338.5234"/></g><g><title>Inventory</title><rect fill="#FFFFFF" height="29.1328" style="stroke:#181818;stroke-width:1;" width="10" x="680.3691" y="1076.8438"/></g><g><title>CombatSystem</title><rect fill="#FFFFFF" height="87.3984" style="stroke:#181818;stroke-width:1;" width="10" x="791.3735" y="609.7188"/></g><g><title>CombatSystem</title><rect fill="#FFFFFF" height="215.9297" style="stroke:#181818;stroke-width:1;" width="10" x="791.3735" y="750.3828"/></g><g><title>CombatSystem</title><rect fill="#FFFFFF" height="29.1328" style="stroke:#181818;stroke-width:1;" width="10" x="791.3735" y="987.4453"/></g><g><title>ChestsSystem</title><rect fill="#FFFFFF" height="29.1328" style="stroke:#181818;stroke-width:1;" width="10" x="918.7158" y="396.7891"/></g><g><title>ChestsSystem</title><rect fill="#FFFFFF" height="145.6641" style="stroke:#181818;stroke-width:1;" width="10" x="918.7158" y="1166.2422"/></g><rect fill="#EEEEEE" height="3" style="stroke:#EEEEEE;stroke-width:1;" width="1065.5781" x="0" y="149.1602"/><line style="stroke:#000000;stroke-width:1;" x1="0" x2="1065.5781" y1="149.1602" y2="149.1602"/><line style="stroke:#000000;stroke-width:1;" x1="0" x2="1065.5781" y1="152.1602" y2="152.1602"/><rect fill="#EEEEEE" height="23.1328" style="stroke:#000000;stroke-width:2;" width="193.8545" x="435.8618" y="138.5938"/><text fill="#000000" font-family="sans-serif" font-size="13" font-weight="bold" lengthAdjust="spacing" textLength="175.3286" x="441.8618" y="154.6606">Инициализация уровня</text><g class="message" data-participant-1="player" data-participant-2="lm"><polygon fill="#181818" points="211.0229,188.8594,221.0229,192.8594,211.0229,196.8594,215.0229,192.8594" style="stroke:#181818;stroke-width:1;"/><line style="stroke:#181818;stroke-width:1;" x1="64.7827" x2="217.0229" y1="192.8594" y2="192.8594"/><text fill="#000000" font-family="sans-serif" font-size="13" lengthAdjust="spacing" textLength="111.2046" x="71.7827" y="187.7935">start_new_level()</text></g><g class="message" data-participant-1="lm" data-participant-2="lf"><polygon fill="#181818" points="338.7715,217.9922,348.7715,221.9922,338.7715,225.9922,342.7715,221.9922" style="stroke:#181818;stroke-width:1;"/><line style="stroke:#181818;stroke-width:1;" x1="233.0229" x2="344.7715" y1="221.9922" y2="221.9922"/><text fill="#000000" font-family="sans-serif" font-size="13" lengthAdjust="spacing" textLength="83.7129" x="240.0229" y="216.9263">make_level()</text></g><g class="message" data-participant-1="lf" data-participant-2="maze"><polygon fill="#181818" points="465.9805,247.125,475.9805,251.125,465.9805,255.125,469.9805,251.125" style="stroke:#181818;stroke-width:1;"/><line style="stroke:#181818;stroke-width:1;" x1="360.7715" x2="471.9805" y1="251.125" y2="251.125"/><text fill="#000000" font-family="sans-serif" font-size="13" lengthAdjust="spacing" textLength="69.0371" x="367.7715" y="246.0591">generate()</text></g><g class="message" data-participant-1="maze" data-participant-2="lf"><polygon fill="#181818" points="371.7715,276.2578,361.7715,280.2578,371.7715,284.2578,367.7715,280.2578" style="stroke:#181818;stroke-width:1;"/><line style="stroke:#181818;stroke-width:1;stroke-dasharray:2.0,2.0;" x1="365.7715" x2="481.9805" y1="280.2578" y2="280.2578"/><text fill="#000000" font-family="sans-serif" font-size="13" lengthAdjust="spacing" textLength="93.209" x="377.7715" y="275.1919">Maze instance</text></g><g class="message" data-participant-1="lf" data-participant-2="lm"><polygon fill="#181818" points="244.0229,305.3906,234.0229,309.3906,244.0229,313.3906,240.0229,309.3906" style="stroke:#181818;stroke-width:1;"/><line style="stroke:#181818;stroke-width:1;stroke-dasharray:2.0,2.0;" x1="238.0229" x2="354.7715" y1="309.3906" y2="309.3906"/><text fill="#000000" font-family="sans-serif" font-size="13" lengthAdjust="spacing" textLength="93.7485" x="250.0229" y="304.3247">Level instance</text></g><g class="message" data-participant-1="lm" data-participant-2="mf"><polygon fill="#181818" points="549.2686,334.5234,559.2686,338.5234,549.2686,342.5234,553.2686,338.5234" style="stroke:#181818;stroke-width:1;"/><line style="stroke:#181818;stroke-width:1;" x1="233.0229" x2="555.2686" y1="338.5234" y2="338.5234"/><text fill="#000000" font-family="sans-serif" font-size="13" lengthAdjust="spacing" textLength="94.1484" x="240.0229" y="333.4575">spawn_mobs()</text></g><g class="message" data-participant-1="mf" data-participant-2="lm"><polygon fill="#181818" points="244.0229,363.6563,234.0229,367.6563,244.0229,371.6563,240.0229,367.6563" style="stroke:#181818;stroke-width:1;"/><line style="stroke:#181818;stroke-width:1;stroke-dasharray:2.0,2.0;" x1="238.0229" x2="565.2686" y1="367.6563" y2="367.6563"/><text fill="#000000" font-family="sans-serif" font-size="13" lengthAdjust="spacing" textLength="67.063" x="250.0229" y="362.5903">List[Mobs]</text></g><g class="message" data-participant-1="lm" data-participant-2="chest"><polygon fill="#181818" points="906.7158,392.7891,916.7158,396.7891,906.7158,400.7891,910.7158,396.7891" style="stroke:#181818;stroke-width:1;"/><line style="stroke:#181818;stroke-width:1;" x1="233.0229" x2="912.7158" y1="396.7891" y2="396.7891"/><text fill="#000000" font-family="sans-serif" font-size="13" lengthAdjust="spacing" textLength="100.5342" x="240.0229" y="391.7231">spawn_chests()</text></g><g class="message" data-participant-1="chest" data-participant-2="lm"><polygon fill="#181818" points="244.0229,421.9219,234.0229,425.9219,244.0229,429.9219,240.0229,425.9219" style="stroke:#181818;stroke-width:1;"/><line style="stroke:#181818;stroke-width:1;stroke-dasharray:2.0,2.0;" x1="238.0229" x2="922.7158" y1="425.9219" y2="425.9219"/><text fill="#000000" font-family="sans-serif" font-size="13" lengthAdjust="spacing" textLength="70.0527" x="250.0229" y="420.856">List[Chest]</text></g><g class="message" data-participant-1="lm" data-participant-2="player"><polygon fill="#181818" points="75.7827,451.0547,65.7827,455.0547,75.7827,459.0547,71.7827,455.0547" style="stroke:#181818;stroke-width:1;"/><line style="stroke:#181818;stroke-width:1;" x1="69.7827" x2="227.0229" y1="455.0547" y2="455.0547"/><text fill="#000000" font-family="sans-serif" font-size="13" lengthAdjust="spacing" textLength="84.811" x="81.7827" y="449.9888">level_ready()</text></g><rect fill="#EEEEEE" height="3" style="stroke:#EEEEEE;stroke-width:1;" width="1065.5781" x="0" y="483.6211"/><line style="stroke:#000000;stroke-width:1;" x1="0" x2="1065.5781" y1="483.6211" y2="483.6211"/><line style="stroke:#000000;stroke-width:1;" x1="0" x2="1065.5781" y1="486.6211" y2="486.6211"/><rect fill="#EEEEEE" height="23.1328" style="stroke:#000000;stroke-width:2;" width="146.3105" x="459.6338" y="473.0547"/><text fill="#000000" font-family="sans-serif" font-size="13" font-weight="bold" lengthAdjust="spacing" textLength="127.7847" x="465.6338" y="489.1216">Игровой процесс</text><g class="message" data-participant-1="player" data-participant-2="maze"><polygon fill="#181818" points="465.9805,547.4531,475.9805,551.4531,465.9805,555.4531,469.9805,551.4531" style="stroke:#181818;stroke-width:1;"/><line style="stroke:#181818;stroke-width:1;" x1="64.7827" x2="471.9805" y1="551.4531" y2="551.4531"/><text fill="#000000" font-family="sans-serif" font-size="13" lengthAdjust="spacing" textLength="103.708" x="71.7827" y="546.3872">move(direction)</text></g><g class="message" data-participant-1="maze" data-participant-2="player"><polygon fill="#181818" points="75.7827,576.5859,65.7827,580.5859,75.7827,584.5859,71.7827,580.5859" style="stroke:#181818;stroke-width:1;"/><line style="stroke:#181818;stroke-width:1;stroke-dasharray:2.0,2.0;" x1="69.7827" x2="481.9805" y1="580.5859" y2="580.5859"/><text fill="#000000" font-family="sans-serif" font-size="13" lengthAdjust="spacing" textLength="84.8618" x="81.7827" y="575.52">new_position</text></g><g class="message" data-participant-1="player" data-participant-2="combat"><polygon fill="#181818" points="779.3735,605.7188,789.3735,609.7188,779.3735,613.7188,783.3735,609.7188" style="stroke:#181818;stroke-width:1;"/><line style="stroke:#181818;stroke-width:1;" x1="64.7827" x2="785.3735" y1="609.7188" y2="609.7188"/><text fill="#000000" font-family="sans-serif" font-size="13" lengthAdjust="spacing" textLength="161.9795" x="71.7827" y="604.6528">check_enemies_nearby()</text></g><g class="message" data-participant-1="combat" data-participant-2="mf"><polygon fill="#181818" points="577.2686,634.8516,567.2686,638.8516,577.2686,642.8516,573.2686,638.8516" style="stroke:#181818;stroke-width:1;"/><line style="stroke:#181818;stroke-width:1;" x1="571.2686" x2="790.3735" y1="638.8516" y2="638.8516"/><text fill="#000000" font-family="sans-serif" font-size="13" lengthAdjust="spacing" textLength="125.6265" x="583.2686" y="633.7856">get_nearby_mobs()</text></g><g class="message" data-participant-1="mf" data-participant-2="combat"><polygon fill="#181818" points="779.3735,663.9844,789.3735,667.9844,779.3735,671.9844,783.3735,667.9844" style="stroke:#181818;stroke-width:1;"/><line style="stroke:#181818;stroke-width:1;stroke-dasharray:2.0,2.0;" x1="566.2686" x2="785.3735" y1="667.9844" y2="667.9844"/><text fill="#000000" font-family="sans-serif" font-size="13" lengthAdjust="spacing" textLength="61.2358" x="573.2686" y="662.9185">mobs_list</text></g><g class="message" data-participant-1="combat" data-participant-2="player"><polygon fill="#181818" points="75.7827,693.1172,65.7827,697.1172,75.7827,701.1172,71.7827,697.1172" style="stroke:#181818;stroke-width:1;"/><line style="stroke:#181818;stroke-width:1;stroke-dasharray:2.0,2.0;" x1="69.7827" x2="795.3735" y1="697.1172" y2="697.1172"/><text fill="#000000" font-family="sans-serif" font-size="13" lengthAdjust="spacing" textLength="86.1631" x="81.7827" y="692.0513">enemies_info</text></g><path d="M20,712.1172 L84.4429,712.1172 L84.4429,719.25 L74.4429,729.25 L20,729.25 L20,712.1172" fill="#EEEEEE" style="stroke:#000000;stroke-width:1.5;"/><rect fill="none" height="312.4609" style="stroke:#000000;stroke-width:1.5;" width="1025.5781" x="20" y="712.1172"/><text fill="#000000" font-family="sans-serif" font-size="13" font-weight="bold" lengthAdjust="spacing" textLength="19.4429" x="35" y="725.1841">alt</text><text fill="#000000" font-family="sans-serif" font-size="11" font-weight="bold" lengthAdjust="spacing" textLength="121.1611" x="99.4429" y="724.3276">[Есть враги рядом]</text><g class="message" data-participant-1="player" data-participant-2="combat"><polygon fill="#181818" points="779.3735,746.3828,789.3735,750.3828,779.3735,754.3828,783.3735,750.3828" style="stroke:#181818;stroke-width:1;"/><line style="stroke:#181818;stroke-width:1;" x1="64.7827" x2="785.3735" y1="750.3828" y2="750.3828"/><text fill="#000000" font-family="sans-serif" font-size="13" lengthAdjust="spacing" textLength="50.9463" x="71.7827" y="745.3169">attack()</text></g><g class="message" data-participant-1="combat" data-participant-2="mf"><polygon fill="#181818" points="577.2686,775.5156,567.2686,779.5156,577.2686,783.5156,573.2686,779.5156" style="stroke:#181818;stroke-width:1;"/><line style="stroke:#181818;stroke-width:1;" x1="571.2686" x2="790.3735" y1="779.5156" y2="779.5156"/><text fill="#000000" font-family="sans-serif" font-size="13" lengthAdjust="spacing" textLength="195.749" x="583.2686" y="774.4497">apply_damage(mob, damage)</text></g><g class="message" data-participant-1="mf" data-participant-2="combat"><polygon fill="#181818" points="779.3735,804.6484,789.3735,808.6484,779.3735,812.6484,783.3735,808.6484" style="stroke:#181818;stroke-width:1;"/><line style="stroke:#181818;stroke-width:1;stroke-dasharray:2.0,2.0;" x1="566.2686" x2="785.3735" y1="808.6484" y2="808.6484"/><text fill="#000000" font-family="sans-serif" font-size="13" lengthAdjust="spacing" textLength="51.8604" x="573.2686" y="803.5825">mob_hp</text></g><path d="M30,823.6484 L94.4429,823.6484 L94.4429,830.7813 L84.4429,840.7813 L30,840.7813 L30,823.6484" fill="#EEEEEE" style="stroke:#000000;stroke-width:1.5;"/><rect fill="none" height="135.6641" style="stroke:#000000;stroke-width:1.5;" width="836.9434" x="30" y="823.6484"/><text fill="#000000" font-family="sans-serif" font-size="13" font-weight="bold" lengthAdjust="spacing" textLength="19.4429" x="45" y="836.7153">alt</text><text fill="#000000" font-family="sans-serif" font-size="11" font-weight="bold" lengthAdjust="spacing" textLength="91.8994" x="109.4429" y="835.8589">[mob_hp &lt;= 0]</text><g class="message" data-participant-1="combat" data-participant-2="mf"><polygon fill="#181818" points="577.2686,857.9141,567.2686,861.9141,577.2686,865.9141,573.2686,861.9141" style="stroke:#181818;stroke-width:1;"/><line style="stroke:#181818;stroke-width:1;" x1="571.2686" x2="790.3735" y1="861.9141" y2="861.9141"/><text fill="#000000" font-family="sans-serif" font-size="13" lengthAdjust="spacing" textLength="99.9312" x="583.2686" y="856.8481">drop_loot(mob)</text></g><g class="message" data-participant-1="mf" data-participant-2="inv"><polygon fill="#181818" points="673.3691,887.0469,683.3691,891.0469,673.3691,895.0469,677.3691,891.0469" style="stroke:#181818;stroke-width:1;"/><line style="stroke:#181818;stroke-width:1;" x1="566.2686" x2="679.3691" y1="891.0469" y2="891.0469"/><text fill="#000000" font-family="sans-serif" font-size="13" lengthAdjust="spacing" textLength="95.1006" x="573.2686" y="885.981">add_item(loot)</text></g><g class="message" data-participant-1="combat" data-participant-2="player"><polygon fill="#181818" points="75.7827,916.1797,65.7827,920.1797,75.7827,924.1797,71.7827,920.1797" style="stroke:#181818;stroke-width:1;"/><line style="stroke:#181818;stroke-width:1;" x1="69.7827" x2="790.3735" y1="920.1797" y2="920.1797"/><text fill="#000000" font-family="sans-serif" font-size="13" lengthAdjust="spacing" textLength="80.1265" x="81.7827" y="915.1138">mob_killed()</text></g><line style="stroke:#000000;stroke-width:1;stroke-dasharray:2.0,2.0;" x1="30" x2="866.9434" y1="929.1797" y2="929.1797"/><g class="message" data-participant-1="combat" data-participant-2="player"><polygon fill="#181818" points="75.7827,947.3125,65.7827,951.3125,75.7827,955.3125,71.7827,951.3125" style="stroke:#181818;stroke-width:1;"/><line style="stroke:#181818;stroke-width:1;" x1="69.7827" x2="790.3735" y1="951.3125" y2="951.3125"/><text fill="#000000" font-family="sans-serif" font-size="13" lengthAdjust="spacing" textLength="118.168" x="81.7827" y="946.2466">attack_complete()</text></g><g class="message" data-participant-1="mob" data-participant-2="combat"><polygon fill="#181818" points="812.3735,983.4453,802.3735,987.4453,812.3735,991.4453,808.3735,987.4453" style="stroke:#181818;stroke-width:1;"/><line style="stroke:#181818;stroke-width:1;" x1="806.3735" x2="1012.0332" y1="987.4453" y2="987.4453"/><text fill="#000000" font-family="sans-serif" font-size="13" lengthAdjust="spacing" textLength="107.4658" x="818.3735" y="982.3794">counter_attack()</text></g><g class="message" data-participant-1="combat" data-participant-2="player"><polygon fill="#181818" points="75.7827,1012.5781,65.7827,1016.5781,75.7827,1020.5781,71.7827,1016.5781" style="stroke:#181818;stroke-width:1;"/><line style="stroke:#181818;stroke-width:1;" x1="69.7827" x2="795.3735" y1="1016.5781" y2="1016.5781"/><text fill="#000000" font-family="sans-serif" font-size="13" lengthAdjust="spacing" textLength="151.4297" x="81.7827" y="1011.5122">take_damage(damage)</text></g><path d="M30,1038.5781 L94.4429,1038.5781 L94.4429,1045.7109 L84.4429,1055.7109 L30,1055.7109 L30,1038.5781" fill="#EEEEEE" style="stroke:#000000;stroke-width:1.5;"/><rect fill="none" height="75.3984" style="stroke:#000000;stroke-width:1.5;" width="705.8037" x="30" y="1038.5781"/><text fill="#000000" font-family="sans-serif" font-size="13" font-weight="bold" lengthAdjust="spacing" textLength="19.4429" x="45" y="1051.645">alt</text><text fill="#000000" font-family="sans-serif" font-size="11" font-weight="bold" lengthAdjust="spacing" textLength="116.8105" x="109.4429" y="1050.7886">[Найден предмет]</text><g class="message" data-participant-1="player" data-participant-2="inv"><polygon fill="#181818" points="668.3691,1072.8438,678.3691,1076.8438,668.3691,1080.8438,672.3691,1076.8438" style="stroke:#181818;stroke-width:1;"/><line style="stroke:#181818;stroke-width:1;" x1="64.7827" x2="674.3691" y1="1076.8438" y2="1076.8438"/><text fill="#000000" font-family="sans-serif" font-size="13" lengthAdjust="spacing" textLength="89.0449" x="71.7827" y="1071.7778">pick_up(item)</text></g><g class="message" data-participant-1="inv" data-participant-2="player"><polygon fill="#181818" points="75.7827,1101.9766,65.7827,1105.9766,75.7827,1109.9766,71.7827,1105.9766" style="stroke:#181818;stroke-width:1;"/><line style="stroke:#181818;stroke-width:1;stroke-dasharray:2.0,2.0;" x1="69.7827" x2="684.3691" y1="1105.9766" y2="1105.9766"/><text fill="#000000" font-family="sans-serif" font-size="13" lengthAdjust="spacing" textLength="76.5908" x="81.7827" y="1100.9106">item_added</text></g><path d="M30,1127.9766 L94.4429,1127.9766 L94.4429,1135.1094 L84.4429,1145.1094 L30,1145.1094 L30,1127.9766" fill="#EEEEEE" style="stroke:#000000;stroke-width:1.5;"/><rect fill="none" height="191.9297" style="stroke:#000000;stroke-width:1.5;" width="960.4883" x="30" y="1127.9766"/><text fill="#000000" font-family="sans-serif" font-size="13" font-weight="bold" lengthAdjust="spacing" textLength="19.4429" x="45" y="1141.0435">alt</text><text fill="#000000" font-family="sans-serif" font-size="11" font-weight="bold" lengthAdjust="spacing" textLength="106.9761" x="109.4429" y="1140.187">[Найден cундук]</text><g class="message" data-participant-1="player" data-participant-2="chest"><polygon fill="#181818" points="906.7158,1162.2422,916.7158,1166.2422,906.7158,1170.2422,910.7158,1166.2422" style="stroke:#181818;stroke-width:1;"/><line style="stroke:#181818;stroke-width:1;" x1="64.7827" x2="912.7158" y1="1166.2422" y2="1166.2422"/><text fill="#000000" font-family="sans-serif" font-size="13" lengthAdjust="spacing" textLength="42.5864" x="71.7827" y="1161.1763">open()</text></g><g class="message" data-participant-1="chest" data-participant-2="player"><polygon fill="#181818" points="75.7827,1191.375,65.7827,1195.375,75.7827,1199.375,71.7827,1195.375" style="stroke:#181818;stroke-width:1;"/><line style="stroke:#181818;stroke-width:1;stroke-dasharray:2.0,2.0;" x1="69.7827" x2="917.7158" y1="1195.375" y2="1195.375"/><text fill="#000000" font-family="sans-serif" font-size="13" lengthAdjust="spacing" textLength="86.3853" x="81.7827" y="1190.3091">show_items()</text></g><g class="message" data-participant-1="player" data-participant-2="chest"><polygon fill="#181818" points="906.7158,1220.5078,916.7158,1224.5078,906.7158,1228.5078,910.7158,1224.5078" style="stroke:#181818;stroke-width:1;"/><line style="stroke:#181818;stroke-width:1;" x1="64.7827" x2="912.7158" y1="1224.5078" y2="1224.5078"/><text fill="#000000" font-family="sans-serif" font-size="13" lengthAdjust="spacing" textLength="68.104" x="71.7827" y="1219.4419">take(item)</text></g><g class="message" data-participant-1="chest" data-participant-2="inv"><polygon fill="#181818" points="696.3691,1249.6406,686.3691,1253.6406,696.3691,1257.6406,692.3691,1253.6406" style="stroke:#181818;stroke-width:1;"/><line style="stroke:#181818;stroke-width:1;" x1="690.3691" x2="917.7158" y1="1253.6406" y2="1253.6406"/><text fill="#000000" font-family="sans-serif" font-size="13" lengthAdjust="spacing" textLength="99.855" x="702.3691" y="1248.5747">add_item(item)</text></g><g class="message" data-participant-1="inv" data-participant-2="chest"><polygon fill="#181818" points="906.7158,1278.7734,916.7158,1282.7734,906.7158,1286.7734,910.7158,1282.7734" style="stroke:#181818;stroke-width:1;"/><line style="stroke:#181818;stroke-width:1;stroke-dasharray:2.0,2.0;" x1="685.3691" x2="912.7158" y1="1282.7734" y2="1282.7734"/><text fill="#000000" font-family="sans-serif" font-size="13" lengthAdjust="spacing" textLength="50.8511" x="692.3691" y="1277.7075">success</text></g><g class="message" data-participant-1="chest" data-participant-2="player"><polygon fill="#181818" points="75.7827,1307.9063,65.7827,1311.9063,75.7827,1315.9063,71.7827,1311.9063" style="stroke:#181818;stroke-width:1;"/><line style="stroke:#181818;stroke-width:1;stroke-dasharray:2.0,2.0;" x1="69.7827" x2="922.7158" y1="1311.9063" y2="1311.9063"/><text fill="#000000" font-family="sans-serif" font-size="13" lengthAdjust="spacing" textLength="129.8921" x="81.7827" y="1306.8403">collecting_complete</text></g><path d="M30,1333.9063 L94.4429,1333.9063 L94.4429,1341.0391 L84.4429,1351.0391 L30,1351.0391 L30,1333.9063" fill="#EEEEEE" style="stroke:#000000;stroke-width:1.5;"/><rect fill="none" height="106.5313" style="stroke:#000000;stroke-width:1.5;" width="264.3066" x="30" y="1333.9063"/><text fill="#000000" font-family="sans-serif" font-size="13" font-weight="bold" lengthAdjust="spacing" textLength="19.4429" x="45" y="1346.9731">alt</text><text fill="#000000" font-family="sans-serif" font-size="11" font-weight="bold" lengthAdjust="spacing" textLength="107.0513" x="109.4429" y="1346.1167">[Найден портал]</text><g class="message" data-participant-1="player" data-participant-2="lm"><polygon fill="#181818" points="211.0229,1368.1719,221.0229,1372.1719,211.0229,1376.1719,215.0229,1372.1719" style="stroke:#181818;stroke-width:1;"/><line style="stroke:#181818;stroke-width:1;" x1="64.7827" x2="217.0229" y1="1372.1719" y2="1372.1719"/><text fill="#000000" font-family="sans-serif" font-size="13" lengthAdjust="spacing" textLength="108.2783" x="71.7827" y="1367.106">level_complete()</text></g><g class="message" data-participant-1="lm" data-participant-2="player"><polygon fill="#181818" points="75.7827,1397.3047,65.7827,1401.3047,75.7827,1405.3047,71.7827,1401.3047" style="stroke:#181818;stroke-width:1;"/><line style="stroke:#181818;stroke-width:1;" x1="69.7827" x2="227.0229" y1="1401.3047" y2="1401.3047"/><text fill="#000000" font-family="sans-serif" font-size="13" lengthAdjust="spacing" textLength="134.2402" x="81.7827" y="1396.2388">prepare_next_level()</text></g><path d="M50,1416.3047 L136.9517,1416.3047 L136.9517,1423.4375 L126.9517,1433.4375 L50,1433.4375 L50,1416.3047" fill="#EEEEEE" style="stroke:#000000;stroke-width:1.5;"/><rect fill="none" height="17.1328" style="stroke:#000000;stroke-width:1.5;" width="91.9517" x="50" y="1416.3047"/><text fill="#000000" font-family="sans-serif" font-size="13" font-weight="bold" lengthAdjust="spacing" textLength="41.9517" x="65" y="1429.3716">break</text><rect fill="#EEEEEE" height="3" style="stroke:#EEEEEE;stroke-width:1;" width="1065.5781" x="0" y="1468.0039"/><line style="stroke:#000000;stroke-width:1;" x1="0" x2="1065.5781" y1="1468.0039" y2="1468.0039"/><line style="stroke:#000000;stroke-width:1;" x1="0" x2="1065.5781" y1="1471.0039" y2="1471.0039"/><rect fill="#EEEEEE" height="23.1328" style="stroke:#000000;stroke-width:2;" width="128.8291" x="468.3745" y="1457.4375"/><text fill="#000000" font-family="sans-serif" font-size="13" font-weight="bold" lengthAdjust="spacing" textLength="110.3032" x="474.3745" y="1473.5044">Смерть игрока</text><path d="M30,1497.5703 L94.4429,1497.5703 L94.4429,1504.7031 L84.4429,1514.7031 L30,1514.7031 L30,1497.5703" fill="#EEEEEE" style="stroke:#000000;stroke-width:1.5;"/><rect fill="none" height="75.3984" style="stroke:#000000;stroke-width:1.5;" width="264.3066" x="30" y="1497.5703"/><text fill="#000000" font-family="sans-serif" font-size="13" font-weight="bold" lengthAdjust="spacing" textLength="19.4429" x="45" y="1510.6372">alt</text><text fill="#000000" font-family="sans-serif" font-size="11" font-weight="bold" lengthAdjust="spacing" textLength="61.0693" x="109.4429" y="1509.7808">[HP &lt;= 0]</text><g class="message" data-participant-1="player" data-participant-2="lm"><polygon fill="#181818" points="211.0229,1531.8359,221.0229,1535.8359,211.0229,1539.8359,215.0229,1535.8359" style="stroke:#181818;stroke-width:1;"/><line style="stroke:#181818;stroke-width:1;" x1="64.7827" x2="217.0229" y1="1535.8359" y2="1535.8359"/><text fill="#000000" font-family="sans-serif" font-size="13" lengthAdjust="spacing" textLength="85.6235" x="71.7827" y="1530.77">player_died()</text></g><g class="message" data-participant-1="lm" data-participant-2="player"><polygon fill="#181818" points="75.7827,1560.9688,65.7827,1564.9688,75.7827,1568.9688,71.7827,1564.9688" style="stroke:#181818;stroke-width:1;"/><line style="stroke:#181818;stroke-width:1;" x1="69.7827" x2="227.0229" y1="1564.9688" y2="1564.9688"/><text fill="#000000" font-family="sans-serif" font-size="13" lengthAdjust="spacing" textLength="122.6113" x="81.7827" y="1559.9028">show_game_over()</text></g><!--SRC=[dLNDQjj04BxhAPQSR6YWPrFt4YWjD13eiHInbiQEyEe7xSQfUt8IcbCXfq8lfVGDJ1AtIPgahx1weyxiIh9MLXAemKBQdPtvvljcPrIa133zerZe- -ApljU_zALUwJjzfLUiEA5bVQxlYZEcpzaE2C5sSdue8FSy7gWqPtk2po5dNBBCl7aPprKKH1bF5Djw2pCGkppX4yYto4Z47GQlZAkvDHYx1hly4vYD65zQM-ceUJ9kdNoJp22fTwDavcxlfF68gtTpgI0s5e5PQ1djWrIoQKGBdZSSClsDM2fEaQcb_eFFttf9NqYLmzjmw5bcsFPBJ7_0fC88VWA7lg3aUtrYCffn1SIEY8tTU809Jw73PEo9CPaG7mCsWGHoN6-Q6ARemRPBLqGYCe2Ham2y45nJybTYCt9qMcBS4bkC3cN63nC_JaVI2JpsueQlIAhtg97yu4Ii_HWgArVcmt5ccJPFrwNHnF5PYcBTMh87p33dvy33ERfjPX9N-bsKCjthQwR_cYjmgbV5KN54geaqpV1cuEwDNZ8Ks9hVCBmZL_hSO_XRAslbYDCPzC8e1moM9drZuv9DAxKs5LOgXYoL4Hqo5cs9QAqLq9RhW98FfZwMGHo1nBBY-OWITYANfKrhzhNISGAgF5A9QV1P4Qi8jECBfDvnq81V1O-ISTg6tmXjCGd5z5Va-BZuWZq5ALtg2tt5YaLnXgtdNjyQi-vSkL8yc9Oe7yfmCqkUPMBkXpp6DjJ3R9un-xxsivcnlv-jeo1ckyHU3DdpUdqpKfYdcO-5eoXCtp6CpQt5DeHumj2FiAFqoBB_WBkAN0eyZOI0i94t20bFdBDS-RYH2J0DeZwSXFLxjrArMWPuEdBgBJr85EJ-VsXHGLFKsKevsafq0weWhqleEzRDjPrLzkwkyECMR-znH_qOrhC8wJZ8UiHy1seQ4DKYlZi5JaTyL0qwYQjEFWuoA4vmO5pYywQhmcqpJ3D8EYar7Qvcj6wA5K2vdnwQafADqnlUYVTM-gMhTc6wHXKTLSS-20AGyX4uGOhrYjYJILr_dGBNMJsbBtRcHN5CWxOZEveCjjjt57kpxLThxg38Si2P3zW7FwfwtdQWRJWOuLYPri3fRoRAJrE02zlQwdc1mmEd2INrUc_TFrpuziiFe_gMjyEwc8tU4nw3ZmCdBu-uM17LFm00]--></g></svg>
