<svg xmlns="http://www.w3.org/2000/svg" xmlns:xlink="http://www.w3.org/1999/xlink" contentStyleType="text/css" data-diagram-type="STATE" height="422px" preserveAspectRatio="none" style="width:288px;height:422px;background:#FFFFFF;" version="1.1" viewBox="0 0 288 422" width="288px" zoomAndPan="magnify"><title>Cellcrawler - State Machine</title><defs/><g><text fill="#000000" font-family="sans-serif" font-size="14" font-weight="bold" lengthAdjust="spacing" textLength="216.8975" x="28.9731" y="22.9951">Cellcrawler - State Machine</text><ellipse cx="125.5" cy="53.2969" fill="#222222" rx="10" ry="10" style="stroke:#222222;stroke-width:1;"/><g id="Level"><rect fill="#F1F1F1" height="50" rx="12.5" ry="12.5" style="stroke:#181818;stroke-width:0.5;" width="57.2012" x="97" y="140.2969"/><line style="stroke:#181818;stroke-width:0.5;" x1="97" x2="154.2012" y1="166.5938" y2="166.5938"/><text fill="#000000" font-family="sans-serif" font-size="14" lengthAdjust="spacing" textLength="37.2012" x="107" y="158.292">Level</text></g><g id="Defeat"><rect fill="#F1F1F1" height="50.2656" rx="12.5" ry="12.5" style="stroke:#181818;stroke-width:0.5;" width="237.3535" x="7" y="267.2969"/><line style="stroke:#181818;stroke-width:0.5;" x1="7" x2="244.3535" y1="293.5938" y2="293.5938"/><text fill="#000000" font-family="sans-serif" font-size="14" lengthAdjust="spacing" textLength="47.0039" x="102.1748" y="285.292">Defeat</text><text fill="#000000" font-family="sans-serif" font-size="12" lengthAdjust="spacing" textLength="217.3535" x="12" y="309.7324">displays Play again and Exit buttons</text></g><ellipse cx="125.5" cy="405.2969" fill="none" rx="11" ry="11" style="stroke:#222222;stroke-width:1;"/><ellipse cx="125.5" cy="405.2969" fill="#222222" rx="6" ry="6" style="stroke:#222222;stroke-width:1;"/><!--link *start* to Level--><g class="link" data-entity-1="*start*" data-entity-2="Level" data-source-line="3" data-uid="lnk4" id="link_*start*_Level"><path d="M125.5,63.2969 C125.5,79.9269 125.5,109.9569 125.5,134.1669" fill="none" id="*start*-to-Level" style="stroke:#181818;stroke-width:1;"/><polygon fill="#181818" points="125.5,140.1669,129.5,131.1669,125.5,135.1669,121.5,131.1669,125.5,140.1669" style="stroke:#181818;stroke-width:1;"/><text fill="#000000" font-family="sans-serif" font-size="13" lengthAdjust="spacing" textLength="71.2905" x="126.5" y="106.3638">start game</text></g><!--link Level to Level--><g class="link" data-entity-1="Level" data-entity-2="Level" data-source-line="5" data-uid="lnk5" id="link_Level_Level"><path d="M154.23,154.4969 C172.05,151.8869 189,155.4869 189,165.2969 C189,175.1069 177.9867,179.5764 160.1667,176.9664" fill="none" id="Level-to-Level" style="stroke:#181818;stroke-width:1;"/><polygon fill="#181818" points="154.23,176.0969,162.5553,181.3589,159.1772,176.8215,163.7147,173.4434,154.23,176.0969" style="stroke:#181818;stroke-width:1;"/><text fill="#000000" font-family="sans-serif" font-size="13" lengthAdjust="spacing" textLength="80.8438" x="195" y="169.8638">got to portal</text></g><!--link Level to Defeat--><g class="link" data-entity-1="Level" data-entity-2="Defeat" data-source-line="7" data-uid="lnk7" id="link_Level_Defeat"><path d="M99.41,190.3069 C91.81,198.9369 84.49,209.2769 80.5,220.2969 C74.44,237.0369 80.3077,249.5312 92.3777,262.6512" fill="none" id="Level-to-Defeat" style="stroke:#181818;stroke-width:1;"/><polygon fill="#181818" points="96.44,267.0669,93.2904,257.7352,93.0548,263.3872,87.4028,263.1516,96.44,267.0669" style="stroke:#181818;stroke-width:1;"/><text fill="#000000" font-family="sans-serif" font-size="13" lengthAdjust="spacing" textLength="43.9194" x="81.5" y="233.3638">hp = 0</text></g><!--link Defeat to Level--><g class="link" data-entity-1="Defeat" data-entity-2="Level" data-source-line="9" data-uid="lnk8" id="link_Defeat_Level"><path d="M127.67,267.1269 C128.41,257.8069 129.14,247.0669 129.5,237.2969 C130.07,221.7469 129.5989,210.2869 128.4789,196.5869" fill="none" id="Defeat-to-Level" style="stroke:#181818;stroke-width:1;"/><polygon fill="#181818" points="127.99,190.6069,124.7366,199.9029,128.3974,195.5902,132.71,199.251,127.99,190.6069" style="stroke:#181818;stroke-width:1;"/><text fill="#000000" font-family="sans-serif" font-size="13" lengthAdjust="spacing" textLength="67.6914" x="130.5" y="233.3638">play again</text></g><!--link Defeat to *end*--><g class="link" data-entity-1="Defeat" data-entity-2="*end*" data-source-line="11" data-uid="lnk10" id="link_Defeat_*end*"><path d="M125.5,317.3869 C125.5,341.3569 125.5,370.9969 125.5,388.2369" fill="none" id="Defeat-to-*end*" style="stroke:#181818;stroke-width:1;"/><polygon fill="#181818" points="125.5,394.2369,129.5,385.2369,125.5,389.2369,121.5,385.2369,125.5,394.2369" style="stroke:#181818;stroke-width:1;"/><text fill="#000000" font-family="sans-serif" font-size="13" lengthAdjust="spacing" textLength="24.4004" x="126.5" y="360.3638">exit</text></g><!--SRC=[LOwx2i9054Jx_OgfXO1rG1krKn0iWyKrkIOBrzsmExx-tWGbnFQSCp3qDCL6pUeaJzE40YSA5GUfEn_KkMfnHb6iiTU76afaIY9QkGtko-QsZGGZ-fWeDW-sUbNXK7GzLbWwzmFpSM_oXhJYmvyU7vJGb-U4IpG-Ztd6SHf1GeFTaE5o9sF87m00]--></g></svg>